<mxfile host="app.diagrams.net" agent="Mozilla/5.0 (X11; Linux x86_64) AppleWebKit/537.36 (KHTML, like Gecko) Chrome/128.0.0.0 Safari/537.36" version="24.7.14">
  <diagram name="第 1 页" id="I_vEnn5mo4LWlLxei6Jp">
    <mxGraphModel dx="1693" dy="1051" grid="1" gridSize="10" guides="1" tooltips="1" connect="1" arrows="1" fold="1" page="1" pageScale="1" pageWidth="827" pageHeight="1169" math="0" shadow="0">
      <root>
        <mxCell id="0" />
        <mxCell id="1" parent="0" />
        <mxCell id="R1Sj7afmYKt7WFE0D8gf-1" style="edgeStyle=orthogonalEdgeStyle;rounded=0;orthogonalLoop=1;jettySize=auto;html=1;entryX=0;entryY=0.5;entryDx=0;entryDy=0;" edge="1" parent="1" source="R1Sj7afmYKt7WFE0D8gf-3" target="R1Sj7afmYKt7WFE0D8gf-6">
          <mxGeometry relative="1" as="geometry">
            <Array as="points">
              <mxPoint x="360" y="206" />
              <mxPoint x="360" y="330" />
            </Array>
          </mxGeometry>
        </mxCell>
        <mxCell id="R1Sj7afmYKt7WFE0D8gf-2" style="edgeStyle=orthogonalEdgeStyle;rounded=0;orthogonalLoop=1;jettySize=auto;html=1;entryX=0;entryY=0.5;entryDx=0;entryDy=0;" edge="1" parent="1" target="R1Sj7afmYKt7WFE0D8gf-24">
          <mxGeometry relative="1" as="geometry">
            <Array as="points">
              <mxPoint x="800" y="183" />
              <mxPoint x="800" y="300" />
            </Array>
            <mxPoint x="305" y="183" as="sourcePoint" />
          </mxGeometry>
        </mxCell>
        <mxCell id="R1Sj7afmYKt7WFE0D8gf-3" value="" style="shape=image;verticalLabelPosition=bottom;labelBackgroundColor=default;verticalAlign=top;aspect=fixed;imageAspect=0;image=data:image/png,iVBORw0KGgoAAAANSUhEUgAAAp4AAAEPCAIAAABkxlO/AAAACXBIWXMAAA7EAAAOxAGVKw4bAAAgAElEQVR4nOzdd3RcWZko+m+fyrmkqpJUpVRSKWfLsi05yTl0u5MbuklNaIZhuAPNneHBsJh+8GC4A8wFBhj63UeThwY60MEd7HZsp7YlW7IlK+ecSlVSqXI8+/2hLFlWlVQKlr/fYq1G5a1z9t5n63xnp1MkITEZAFSaKPOwERBCCCF0n2PWOgMIIYQQCicM7QghhNCGgqEdIYQQ2lAwtCOEEEIbCoZ2hBBCaEPB0I4QQghtKBjaEUIIoQ0FQztCCCG0oWBoRwghhDYUDO0IIYTQhoKhHSGEENpQMLQjhBBCGwqGdoQQQmhDwdCOEEIIbSgY2hFCCKENBUM7QgghtKFw1zoDCD0weJzi3cJH8nj6CMLrc33lRfcQXessIYQ2IgztCK0GIuT9w9fkn9GT8YEyn4Pg3x5CaIXg7WXlMUlP/tu3H9Zxxn+iNOBzjA6015Sff+/CHaN3bfM2Ayf9Uz/8xiEVQ923f/WN/7pmH+9QEknxP/70C5tFhDWe/sG/vNIaWONc3rditos/mUjA4v2v3zrebAnYsSIRQisG59pXCw24LEaj0ThsGvPyIhLy9j71P7/3zaeypWStMzaL22r1CDK25EgmsyXK2ZQpcI+NedY0WxtArJbDJdBX7vxrI8Z1hNDKwl77qrFef/GbLzX4AQA4Mv2Oj3/hkzv0h//+6ZZv/e62Y91MuXIH2+s5+VlFOZLyMjsFEGZsyhQ6WxoHswoi1jpv9zeni1IADmd9PcohhDYk7LWvhYCt8/LvfvV+D8soi0oLZevobk+Eg20NTmFmUa6YAIAgfVOO2FnXNiRcR3m8P41aWRZAKSf4J4cQWmnze+1M/r59382hp8/Wu7MyDsXwrQNdL57p8GblfrFAHUUd5TfuvFA95p75GxxxYb7h0QxNaoRQBP7RUUtlY8fr1cND80YduVL1Q9uS9yUqdBIenwGfxzNoNF2pbj3R5vAsNSVwxZtyk46kaTIiRVIOa7Na69q6/1bR1zFvBJkj0zxeknIgURElALtl5OqtxldsCT97IlFpav6nv7Z0zew4B12iZfD31dSZjiWodQnRDFhnHpmnyd1/7GBJflKMQgjuscH2muvvv3e+xuSbLnPWp3/6tT300m9f8ux4erdBam+98NJvTvt2PvupQ9lqdvD227/5w/nOWRXAjy44+Mj+bdn6aIUAPGNDHfXlZ0+evT00d6qfUYr7369zbs4tyhGXlfvSCnKkrtrKftEnGZhXoYvnczK7Edn7Hj26PTc5RinhMazfbTV21t049/bpW4PepaYEviZnz5E9W3NTdCox1+cw9TbdunDy5PVu59wREE5kzuHjj+3M1avF4BxqufH+y2+b93736/vlPW9897tv9bJLKdESjFkpS4ErY+QETOtmlAYhtCFxFMoIABBLJC6nAwAASExS0t4orlwMnS0DtV5JoSG6KD5CExi51Gzlx8RsS1Vxunuq7ZM3J57yycdLnsuJjBGywyZrvxMUqoicJN2eWPZOy+jIjPsmEUV/+ektx+MlSh51ODwWd4DlCaMjFXmpulS38cqQly4hpSDyU8eL/0e2Kl7Kox632QNyhSw5NmZfkqCtxTjgn3F2ScxzHy16LE4s41K7zWXnSgsydPGsTxUlFTrNp2tHxqaSBl2iYJGIrH2laTJPx7Uzd0zTv09Ehh17shRs740zt4enPhYkP/TPzz9bmhYl9pp7uwetVK4zpOdtL0n3N9xstkw8ATCa/MPb9SKZnPRUlDe5Y3I2FeVnGSL9DWXl3TxD4aaiLE7dxfpRdvJEqY/9X9/69M6UKLmAOq12vyBCo9NnF2/PJM0VTSOTtcSo8w7sSJGO3nrtJmdHcQ6v+4Mqyb5P7I1pfPtVo+HhzVp329VzdSM0lHwCABBZ4Wef/6ejWVqFkHVaRq0OD+Ur1Vp95taSJPut8g47XUJKcfrxr3/r07szdBEi6hwddRCpRpeYXrS9QNZ1c9bSRKLc8uy3vnooQyPlsw6zycHXZpeU6AKOiESdwNpw6VKjdeqgQZdoieS8J0u4Irf/1BXfCIZ2hNBKWmCunTADDQ0v1XporSMybuthke3tC613AuQGVb64N7IoSfrS4Hg/kyRvzv1ELM8z1P7Dd5tu21kA4Eg0zzxS+Hhs2pcLh79WPtUdJVEZyaVy4jN1/vBEQ6WdBQBg+BlFm79TEpm3KT61pqGRDTllalHe8Rieb7Tv16frzw95AwACRcyzxwoOqxO+sLn3y1enbshMRmFGqZywtoFfvX3njMlPgShjU752OFkyd6A5+BKtBE7C0WcfTxN7O0+98IvXakf9AMBR5jz53HOH045/9sid753onvFowB269tc3Lo5R7qAy4xulst6zf3ynwU+qWMOPnknLy499va2LBQDgJB793DGDiDXd/Ov/+cPFdhsLHGnSnme+9Kkiw6OfOVr13Tc6ZjwCARFJoL6i3rU1qyA7ZTRb4aq91UBk+whZYj6JquShYhXj7znzwn++fGfUDwDAyAzHnvvnx9MzD+1JvvjXyUX3wafkJD387ENJIv/gh3958a9XO6wBAH7Ulo995Yulcfs+cfTa869OrePnphx5qljNUPONP/38d5d7nBQ48vRHv/iFw+Ll1PyS0AD1USAcXN6CEFpxC038UbvbRwGAeq0eoB6vjU58yAJIhfyJGz2j2Jkm41LX+asTURAAAo7hv1ztHaZMQpo2acbhNQoRA7SnuWsqJbDexsrKr/73pS+/1d7JLiEll2sdeKui5f99v+bMkHf8bu4ZG/xD2ZCDkuh4tW4qHDHSTQliBvy3ymrPmPwUAIBa+lpfrHXMvc+GUqLwYxK3bo3lUvPVV/42Hl0AIGCpffPVK2bKjdu6LWHm2SnrtDsoALA2u5MFp93BAgB12O0UGIlUOpGWSdi8WcsBe8Urv/2g3cYCAATsHRf++OoNB3C0m4viZpeI8HlcZ+2tepcoY/fhbI2noaLexeMLZkf2EPLJqDQqhrB9Nz6YSgmsre3kL77zrX95/qenetjQUxIhx3Tz/ZNv//H/+/2ljoknLa/x5qtvVjopo87Kip46O6PLzlYz1FPz1n9f7hkfqQ9Ym078+ZJx7mq2kGp+CTjM1i18DQOmFl/XMp8REEJoMUvpQkz34BhRtIwAa283z7pd+czWHhY0ckkUgdbJD0ftHgqi2CRtyp3WZs/kiGTAaxydO4sadEpffU1T/bzseR0uKwWxgCclABObswURYgDW1T7smzEUSgeGrHaqkM785VBKFH5clUbFANvf3TuzIw3+3q4BFlTqKDUHOoMLDNORi6NSqxgI9Ld3umaW3dXZ3h8oSVVpVHOOyeFywFlbUe/ZvDlX6bp1qtYJSi5nyfmkY5YxCpHa/K36C2+1T02E+22mQdvsgwadkjpaPvhby7wiey0jNgoisXR6JIaRK+QMUFN3z8w9CKyxo9NB9ZIllihY3GTx//m8QEUAgEjkjIJhm8oc//GGzxXaYRBCKGTLGx0khEMAiGTX9hzDzHFqjiSOAAHCYQAmPqf9TV2VmxRbtWk/eja+fdDSabZ3mcaa+8zNY/7Z98zgUwIAcMWKTcmqZDlfxJl45GDEkXIy8wEEYDwnQOf+foD1z/4glBKtAMJhCAFGu/UjzyTOzBk3RssAoRzOEvqODJfLEAC/b05R/T4/AGG43DnHJAwD1Flz+o3T5igYqqhxUohk5vRxQ8gnO1R2vubQ3xWkPP6tH+/qbuvo6e/t6+lqb2poH3bNvhrBpwQA4Mr1OQWZCRq5kDuRO6JIn7fXgMNhAGjA7589uR0IzL2GK1DzhM/oNBzNZJaoH4ClHtzRjhBaeeGY+GPEBTmJBfM/n30Xo7ben7we+Oj2lAN6uSFBlJIwkWigvfWF8201MxY2B52SxKTnPb8/Lp53l0wta9QzuBKtFEaTXXoge63ODgAA1Nl0/pWmyfwskCi4fFLzlV/9yHvs+LFdeQmJOWp9zhYAAOoxVr/zh9+/M2MZW/ApOVHFzz732Z06wV125C3vuoez5n2N9of/3g4AQEASwX34Y/J/LpH+wBb45N986+cVhAihDSkcoT0w9J+/rrgYxOvK3CMDf3p34CUOP0YlS4iU6bWa3ema2OS0bxLPc+/0mGloKYki8Sv74+IYx+XzVb9vHBuZ7JlxojN++ZQhZtaZaYAFADK3h8ph7l7+oEu0Iny3fv3Vn11f/+O2QefT01/++i/L3+DJNLFxsbq4eEPutpL8mIIn//FZy7d/fnmUhpaSRO377Gd3ajlDZX/81avXOizeiWjOJD/9/X99OGrWmQMBFoBwuNw5qwA5c2YYQi1RaCg4RvxvXvB+pkAYl81LfMPXgtPtCKGVtLzVQZQGKAAwc0PmvX8p4B0wmssbO1/54OY/vdHaHiCS+JgCQcgplQnR6Tzwdre+WGsZmTniOr8vRz1mJwAjStbwZvwj0UbJ577ndUklWhoiEgsJUI9nejMfDbCUAuFyw/jOMtbvZykAlzd3vpzHBaCs/y6THItaUj6pz2bsbLh97ezbf/rpd390otsP4syirHlbFBZLSeRZhSl88NW9/ZdLbVNx/e7YMcsYC0SdED/zNEyUXj/3tCtR83eFr/5BCK285UUw1jlopcBIDepZcYOII/YWJD2SrVJN38j4qSlx+zN1GbPvqV6zpdNHCeGKpmNukCmJkMchAKw/MOeFImKFRDmnWKy9qtsZAG7htuwDqvEeHFHEpnwhW+SZs8M4hBItEzc2J1vNUF9/9+BUePKbjCYWGF3i7DkGIk/dfvDwwd2ZEUs4e8A0bGaBo0vSi2Y+1ogSk3UcoGajaQmjzcHnk8iSinbu2LEtRTn7ava19bqBMCKRIOSUAqEACLAej2/WtSPiqGjFnPphB2rrhlkiyH30mZ2x4y/U48jTH/3EbrV3znVfiZqfjSslMgDWxlpwUztCaIUtM7RbP2yx+Ylo3870ItnEoQhPum93wVdKMz+WJJzuSxNOekHuVw4VfG1XXMLUFCnhGfL0RQJC3fbeqRn0YFNSs9lmoyBMSHwkemq8lUg0iV/aEglz755sU2XjRStl5Lp//OSBP3ym9IXPHfztk3pPj3nu4GvwJVoOjky/+9kvHo1nqKXi0q3pV7Gw3Tdv9vmJasfTH81TTcwVEIFu+8f/4dmPf+LRvIi5i/6CwfZUVPQHQLrl6c+V6seLxJHq93z6qa0SCPTdvNm7hF57CPkUGA48++zffenvn94VO/VowUj0+w7mSgi19w/MeGVMcCmppbfXQYkg9+DB6YcVIk7Y+8yxjHkZ9befeuX6MEs02z77b//1nz/6wf/637/88TcOeOsa3HMf6Vag5mdTyBkOAb+dWjG0I4RW2DLn2ml7Zc3LcVs/GZv0/GfihkYcYyxXEymJ4JGAbeB3V/unX/FGXRdvdB95RB+fnveLlMxRh89LiUAoUAoYQn3VNztqAiGn9Pa0v9wd8w+Jqk8+tXfPgKXbyYpkiowoTmP1kDEiPmFORp2DL7x2o2976gG9IlouIpbRsxcaX7bG/3zuoqmgSxQyecnf/zDHC0A4QrlSJuAQ6u4+8+tXq2buywp0n/rd25lffyLt8Fd/uHO4f9DGClVarUJAAuaKl18tty0lKkwc8/HUbZ/+dtFTVouDSJQyIYdQZ8sbf3y/a0lLxILOJzVff/eDPUkHdMWf/17RJ8ZG7V7KCGRKuZBLwFH/3vsNvpBTeutPnqjd/ExuxhPP/6SktbXfFhBGJhr0gtZzt0wxu2NnZ5RaK//wg58MPPnYzrwkjUoDQy2X//jKCfOe75UutURLpVQwDMCYlcU18gihlbbsZXQ+y2tvXm0vSHkkQ50WqYiCgGVs9MP23rdu9ba4Zt0O7d3133xt7HhRfHGsPFom5hDq83h6+0auVbe+2TLrWy6DTck63n/32ujm1EfT1YYYjZb6hk3m9063vDES/f38u+Q0YDe9fsb0+szCJyTcJV3QJQoN4YiUUSIASlmfc7SnpebGhZPnbw/OXavnaX/3x9/pOnDsUEleki5JDR6rseVm1ZXT71/tsC118ZW77Z0ff6fn4CP7t+UkRSuV4LH21taWn33v7O2lf118sPmkjtqXfvCDjqNH9xSmJ6hVGg5h/W7rQHNj5YW3T90cYJeQkh28+MvvjR194tC27ERDbhTrNPc0nH/xzVN9Rd/Yf5ecBkZrT/6m9uSMT7jZdxteX4man0EqJgTA7aHYaUcIrTSSkJgMACpNlHnYuNaZWW08fd7vH40XGxufe6WtF++4Dwxu3t/99H/uFnW++u3vvzuwWovV9UeVfznOhQH3N3/muIwvkUcIraQH+BsmOaKSDLWEUNeoA7+J6wHCVReVZIsJdQ8OLOXLfpaq+5rr3AhwtML//e+RJ/894q9fEEbjanmE0Mp4gL6rgqNN/4+jcVNLnXkCgYxHwDf2bpXRfc9fRPc1TspH/vVLu6YWz/PEcomAA57Oc2fvrOabC9gxz/d+wNY9LDqWy9OrOIox8gD97SGEVtcDdHshHF6EVDi5e436vZ7u7qH3y5pPDeELRDYywpMoIiImHuko9Xss/bW3Pzjx+gcd4fga9lD4Lb5X/ux7ZZXPihB68DzQc+0IIYTQxvMAz7UjhBBCGxGGdoQQQmhDwdCOEEIIbSgY2hFCCKENBUM7QgghtKHM3fym1caH5bgDAz1hOQ5CCCGEQoK9doQQQmhDwdCOEEIIbSgY2hFCCKENBUM7QgghtKFgaEcIIYQ2FAztCCGE0IaCoR0hhBDaUDC0I4QQQhvKGn9fO1FuOvpIYSTbW/bm6VZneFI+oDgyXVq2IU4jlwg4o3fOXW520rXOEkIIoSUjEsPuI9kRrNdhMfW1NDX12gLB/urahnYmMjk5ggFvT2vPItE6+JQPJF50waHD2WoeAQAA1sNfvdEYga5gX2lGJBlrvvzBzV73qp0XIYQ2OIYvlssVDCgi1bpkQ3L1B2cqjN6gfnNNQzsnKjlJQai7r63bE66UYcFXJWXnpiZqI6RChvU4x4x9rbV1LYMudhXOvQREmlKUqeaBs+fWlestRptvbj6ZiPzHHiqIpENlJ07XOUCacfijRdEwWnXiZPXIMvv2jNqQqhFzCahSDepbvb1BP1QuDSeu9Mn9KfyZH1F74+nXKobW6bUBAOBpDFnxEjraVdMxdtfqJuqCxx7Jkbubz7xyY3DRgqzg1QwWX51WvKcwScEFYM0V771Xffdyhd86KHuYYEte66sZ4tmDbPNcRVxmXrpep5KLueBzWU2DnfW1Dd02/5LOTm0Np37fwPClUelbdm2JVeUUpDSdrbcFUzlrGdq52tQECaGuzvYBX7hSLh8R64sPlRoUXICA1+n0cIRSdWKGOj4xrvz8xXrLCoeuJSFShZwBam+vahy0rfKNgTW1tRhj01WMtaXNtPKVQ1mv2zX1iMVwhYI1nlIKAuFrkvM2RdMOS13H2HpsP6Hhq7O27dqSKOcG/H7KXf/Vv05hS76PBNvmBbrCgwcyVTxC/S7bmBOE0ohYQ6QuIbHm0tmbg0vulbJe+2BdTUeGLlsmk8sIrPfQLtAZEoWE2jtbh+Y+0Sw55bIRcVLxzmQFxztcc+3KrV6bH4Aj0eVv31UQHbelOLP/dK1lHXYOfF4fgIgwZIF/pwGWpQCUDbAUAMb/Q1g2HI8Bnv6q91+uCsOBgsL2X3/71esTPzBRhY8dy5Kt1rnXi5W8movgqzJ37dysl3H81o5r13vUe3al8Vb+rDOsYdnDDFvyWl/NIM8efJvn6Qp3Zap4rKW57GJZx5gPAHjKlC17diarcos39b1b1j8jfIVcdoZhAKjP6wsyAK3dCnlhQnKsgFBLZ9vwIlcy+JTLRsR6g05A/IPVl2/2ToyhBBz9tz+81ecHbmSSXrFQ9FxL1ON2UyACkXCh3Pm9PgAAn88//h8fAIDft+JDIGglrNnVZCKTsxNl1NJx/d1TlxvMwc35hRe25I1kba9mUGcPvs1ztfpECaGWxg+vjcd1APBZWsuv1VspkSSmRHNCP/s0IhQJCIDb7QqydGvVayfixBQtD1hTW8foveN18CnvcYyI3GOP50d4Ws690SwuKMhKipILGb9jdKCt7nZVj3V6aInIFRLW7x3tHXTMfDaiLuPgGBunkiokDEyMyQd9zBkYuWHnjs1JSsbWXXHheqslTE8q1ONyUwBGKOID3O3KU5/PSwECvvFZeNbn8wNwfb6ZD4CMtvjpfWnQ+mGZP2VLilrgGW64cbUukLJza5ZOQq291ZfLGs2TT52MpujJQ9nymU8S3tYzr3/YM7fYU3NvZ090RmwuSE+IlPLBaxvpa6m5XTPgWJXHc45Ml5GXkRyvVoi44HOPDfe119U19tpn5jXEfDKS2MxNBYZYtZQPXutQV92NO46Mhw9mCkdvnXz3toUCgNBw4GMlsTP/mpN2f+rz0z+xxltvvTt31ozwI1MLN2XrNTLBwmcP5mrOymwYW53P0lp263rriA/WplsQ9pYMAAAcmS49J1Ufp1FK+EzAYx81djfW1raOzriPc6O2HjmUq2TGGs+cqBicvv9y1UWHj+RHkLHGs7M+XxHYksN5/wz27EG2eSJSyHiEugcHR2bdBQOmfqMnR86XyUQE7FPHDrHsRCAUcgBYj8uzvnvtRKY3RHPAP9zetsi8QfApgyBO3r2/KJax9HZ2dI/4RGp9we4j+1Jk05XADlx/6y9/fPXUnblLJLg8LgHq9/rn5WHRY05jNGkFKSoRlyOI0OdnqMNX9wG3y0uBCESCBbrtrM/HAvVPtJvxUR3W75v//MHTpiUGumvqux1Cbd72/fsyZcam6npjQKnfsidXM/3nHfC53S7X+P8885btzSdJ21Oap/Gbujo7eiysNMpQtPfIrgTxyo+BcDXZBx/bW5ShUzCuUaNp1MUo4lKLDh09mKe622NtMPkkIn3xkUObDDFyAXgddg9Xnbr9SLFeNLswNOCZqB+3e7yCAt7JGnO7XG63Z35bEibu2FuSqqSOMYuD5SsWqqWgryYAhLXVscY7Fy6P3+PWSthbMvBjCo48vndLVrxGyvE7Ha4ATx6dmFt65GiJTjidym+8Vd4wGiCKtG0FmqmWw1FlFWdHcFhr04fVKx3XsSWH+/4Z1NmDb/MMwwBAwD9v0tgfCAAAM2e+NLSyg0gkBKA+tzvYNQ5r02snSkOSmgP+nvZO+yKRPeiUQZyVH612X3/nXNf4wyMnImPfQ5t18fn5cV1Xu+956RhlfLycUO/QwNyBg5COSR1Wqx+kPADwW8fCue+cZVkAMt627oZ6PW5/wO/xjp/T5/EEAjD508ziMLa28qpmF3DGRDFHUoWjjWXVgwHSy2oeL46OjVNWDZspAAA7Uv3O69UTvyPPeeTYZs29skcE0Urr1ROnel0UAICnyTt4NE9j2JTV0FthXMmeOxOZszM/WhAw11y+UNHvZAGAEccW7N2fFb25OLvvZLV5VhUElU9GnbMlScpQe8eNC1dbR70UGGF0/s5dObxZf7qeziuvdI4fVZJ14HhJNO0ue/1C973+MPkxsdz6Uy/XDXsoAFeRUrx/l152l1oK9mpOpA5jq1v7Se1wt2RGnbszW81nx1pvXr3RbnKxAFyZvnBvaVpE5pbstncqp2reP1x9tUH3UE5k9pacjtNVpgAwysztWSouO1Zbfnul1/diSw7//TO4s69Umw+t7EAIAQCWDbrUaxLaGVWyQUmot7e1Z5GJg+BTBoOMNN3qnhoUCow2V7dmaHMk2thIpvseW06IPKMwM4Kwlpb6nnlTLaEck9qbL77tSIqTE9tgR/eyH1UmMeKYJJ2YUJdx0LrAMdmhshN/Lpv6abT6rZer75qQej1eAADW4/FSALeHHf/QQ4EIBAICsLRcm5tu97kmf9U33FDfm1maJInWSolxoTyHAVEl6pUMtbdUVI7fDQGAdfZVV7YkHMpSJiVF3jHPviMGkU+i1GmlBHx91ddbJkZsWfdQ1c3mhIc3qZeXW8beUj5+NwQA/1hrRY0hbnvc/FoK+moCwIq1ujUS7pbMY+yd9TXsWFd1u3kiWPltnber9Po9BolWJyPG6QE8v7Hmeo3uSEFkdklm13v1bNbWvCgua2m4fmtopQcysCVD+FtyaGcPBZGl7Ty4TUd7b5672O4Ix9mpZXDQma0Qa/WxImNPMNuw1yK0c2KSk+SEunvb50fKpaYMBvVarbMe9VjbmJ0FqUAsYgAWqix+TMHuLVo+O1r7Ye383V2hHtNn6Wu29C2vHADAaAoP7jQICQAwPJFYQNwj7eU3KvtWegPBElGv1eqaWUsBh91NQbqch4VgMFKphAHWMjI6e/Zr1GxlQSqRSxgwz/yXYPJJRCIhAWofGZm5l4XaTGYvVc/aphwq6h0xz3rO8Y6NumhcGGopTK1uI/IYmyqM8z71Ox1uABlfwJ9d8wFTVXlt/KH8qKzN+cBma3ispfZq9YoHdmzJk+6TlsyL0sfJ+BxIjNfwFgrtIfIPVp67wZTkGA4eN7idLh8LANTVcfXknQUWl69BaOfpUhLEhDo72/sX+ZMIPmVwKKVzP2ABABiy0EA2V5W1Z3+WiuPuL7t6+64770I/ZlhwhBKZfHrqKkCA9a/5YOnCJiplxs+UAgBZ4bl2QggBYBT6wpLImRlgFHIGgJ2/WzCYfDKEAaDs3KGxMIzbsezsR0fKrkotPfAYkUoXp4uQCXnMZF2LYoQAcJeKD5hrrtbFPZwXW1gAEBi9U1694htyAbAl32e8fbV1PXwt7WvqC+M2EsLw+DwOIUQkkYkAAChXyFkw9eqHdoEuOUFAWFtHq3GRBQHBp1wZjCJl96FNWqHfXH35Uv3Yegqc7OC1N/77GgAAYXhidfLWfUUp23d5LO9VDD1Ib5IIDpFp07K0a50LtC4xsuSde0pSFXe7Ed69e8JLVFMAACAASURBVBkY6eoazVFpGGCtXW3m1Rwow5Z8v3D337nQf2f8/4enj8eJKthbpJe5e8rO3GgxObyLTrqvemgXJSbHCQgd6Ww3LRIrg0+5Eog0cfuhrfFi1tJw9XxlkK/tXQOU9TmMLY3d2fGZMl2snAyN3ueTqeEX6P7w1bMdYbuCLJ1Ysjh7bHHhNYxo3SKyjOKSVAVj7bx+sbLd5Jpc6k3UWx55KO+ur5Ah8owtOWom4PFQfkRWcVrn+42r9tSPLfmBRZRanZRQV29Dg9EeVHtb5YtIJIkpMVwImFo7FtmUGHzK4E/OcGaPWxEOh0NgoonP+geRbuuh7QY52FqvnS/rcy0cLYM/Jlp9E6OQc7edLO+YLqeLApFGRgpmfEpkKhX/QRlu3DiE2kQ1F/z9VTebh13zt3DNxyjSSzbH8Kml4fylegvL1+aXZClW4SaKLXn9G5/I4Mx/Dy2Xw4GQFrffzcRkRvDHWN3QThQTm9Tb2hfb9BZ0yhDwIjURMwvMjdQoCFC3c/aCQ35UwcFdGRGMs+vGuStdizwiBXnMqeQKXWp2ZnqiclnLVOZiBEI+AepxrcZ356wflGUpvVcvg7XZHCwwysjIWVNSRBSdnJmdkapdyr56ahkYsFPg6fKLU5Tjb5xkhNEFW1JlgYUa6uRyjDW7Ya5Mq7v/ES6PSwCo3z9nGosvl4vucrUYRcbO/Bg+O9Zw886AsfZ6s5XlRRduy4pY7m0UW3KQ1nFLpi6r3UeJMDo6ctZV5Kh0UQJCvVbbPbqIi3O7PQCELxQE29ZWNbSTiOQkFQO+/vYuxyKRPeiUIaA+vn5bQaxk/I+DKzcUbU4SEuoe6B2ZDsPciOz9pbkarruv8vzFVutiXe+gjjlVKmnqnkf3bS/eXHzgcGmGNGx/H0QgEjEArNsd7JuKNgbqsNlYIEJtUrz4rg2ZjnR3WlgiNWzeMnmJALjK5C2lJVu35cWJl/QczQ7X3Wi3s0SaXPzoJz5y/MlHnvzEE4cz/QMLLvWkXofDR4HRxMauwjt65lmpVhfs6cXpRz/+mc9/6jOfe3SzZp2N9FLn6KiHAleXlaGaei844UdmbM3Vzu8fMcqc4k0xPGptKa8c8gH4BqrLm2yUF5W/I3OZwR1bcjDWuCUvxt/f0eWgJCJjx3a9YqI58RSGrduz5IQ6utqWtQyKul1uFoC5x9vE51jNuXZGbTAoCPX0tS72td7BpwyJf7BzLGHfUykuqzPAl8rEXALU3V19p2+6KRNlYmqMgADlqnMOPJUz9wju9ktv3Zq1XT2IY04fXKKQT1xyrlwpnvnawWUZf3s89biW9VgYAm5iyeM7YifvQYQrYAB4SXueiJ1ovNTb/uHbZYt/qeNyuXoaWnJ0mbLUA08keaZeisda7pw7W2ulAMCO1F69E3M4Pzp77/EUm8XqoTyJQiHiEtbeUVnRscTG5eoqP3XGWlhgiFVLJVKwGduu37jjyHg4dYH0/v7WtjF9ljJ579PxHk+ABQCgjsaLJ2+ZV+GChbHVMVEFD+1Pmbqrc3h8AiQi/9BHs8ffqOVq++BU5ZzLzo/SajgAEDA2N6/Fopl7CgzU1PQnbomNKXjo6eThIYub8iQqtYo73NBll6cpZyblRGZt36Thsrama9WT76fx9VdWtMbvSY3OLcntP109uvR7N7bkIKzU/fOeQmjzvv5bVxtV+zNU6TsfS95stblBKJOLuQR85pqy2/3LW3DJul0eCiKhUABgD+YXVjG0c7XJehmhrt623kUWggSfMjTEP1h+3uwuzEuJiRASn93c31p3u6r7bt+DSrgC4fy6ocCbu9kghGMCO9xc3Ra1Wa8g9p47jWG8z/H5fAAa8C84kBZuHJ5QNGffBeHwhaKJ/0+ZefW0Mrz9Zec+cBXmp2kjJMLJIVTWxZvu+fiHa8+eGMnMz0yKUynUUvC77UNdPS31dS1m99Jri3X21V3tq5vxCaO7R3K/sfL0Zd+2vNRYpUg0/qovGuDNWb20UsLZ6hieUCScM1TN8ASi8Rsupbx5XU6ORhvNBaCenvqO5b8pOuzoWPMH7zhzCjOTdJHqOCn1OkYHmq7crrckHsiYmY4Tmb0zR8Ol9sabt2buZ/L0VV5v1x0waAqKc3rPVJuXHNyxJS9uxe6f9xRKm/f0Vb5/wpiVl6aPVcmVSvC7xvq7Oxvq6jrHlr2Twu/zAYj5Qb8agCQkJgOAShNlHjYCgFYbv9wsAADAwEDPnE948aWP7U0ROOrPvXX93kMTwacM1vRXubxc3h+uRXkrcMylZkWe+8ixQg2MNV4+W9bruB+3vzGRWXs3JwgXTkA93Teu1JvWX3CYwInbdXxfGs9c8e7J6hV8v979hona+siRXBlYG0+/8WBszMSWjMKPI0koOrg/VQEjt948VRPUF4uvWq9dEGtIEBLW2tE6vNh29qBTonHU1lrTlb4nSZGx57jB5XB6TNUXrrSE8x31K08gj4qKvscEHnVZ+KvTN1gKjjQ+Sccn1Ge13F/VvsKIPEYnIRAwNTWvzbsp1gC2ZBQ2RGLYdThbLRBJxDwGqKOtrm3uN5ctZLVCu1ifHMsH1tyx6Cb14FOiSdTVcf2k25yXmxwbpZDKBa6gl1GuF+xA2V+nX6i87jFRRYd3p06N0nH4QgGXAb+psaF3nb7rd00QcbRWyYC3t7Hlgen/YUtGYcTwJQqZlPU5zH19LfV3GoaCfuBardDubLrw56Ywp0QzsM6BxrKBxrXOxoOC4YvE4smuGWV9Lkt/d0t1ZfP8bxl4kPFiYlQc6mhp6grDlzuhFYEteT2jtoZTv29Y0q+u3lw7QgghhFbB/TZwixBCCKF7wtCOEEIIbSgY2hFCCKENBUM7QgghtKFgaEcIIYQ2FAztCCGE0IaCoR0hhBDaUDC0I4QQQhsKhnaEEEJoQ8HQjhBCCG0oGNoRQgihDQVDO0IIIbShYGhHCCGENhQM7QghhNCGslrf174Aotx09JHCSLa37M3Trc7wpHxAcWS6tGxDnEYuEXBG75y73Oyka50lhMKISAy7j2RHsF6HxdTX0tTUa8OvFEdoAWsb2pnI5OQIBrw9rT2LROvgUz6QeNEFhw5nq3kEAABYDx9HY9CGw/DFcrmCAUWkWpdsSK7+4EyF0bvWmUJoXVrT0M6JSk5SEOrua+v2hCtlWPBVSdm5qYnaCKmQYT3OMWNfa21dy6CLXYVzLwGRphRlqnng7Ll15XqL0eabm08mIv+xhwoi6VDZidN1DpBmHP5oUTSMVp04WT2yUfv2nLjSJ/en8Gd+RO2Np1+rGFr+VVzb+lwHV5OvTiveU5ik4AKw5or33qseW9aJgysRtTWc+n0Dw5dGpW/ZtSVWlVOQ0nS23rZRGzBCy7GWoZ2rTU2QEOrqbB/whSvl8hGxvvhQqUHBBQh4nU4PRyhVJ2ao4xPjys9frLesxzFAIlXIGaD29qrGQds6ffxYdZT1ul1TD2MMVyhY48mnjYKvztq2a0uinBvw+yl31SuV9doH62o6MnTZMplcRgBDO0J3sYa3O4HOkCgk1N7ZOuQPV8plI+Kk4p3JCo53uObalVu9Nj8AR6LL376rIDpuS3Fm/+layzq8lfi8PgARYcgC/04DLEsBKBtgKQCM/4ew7EZ+DGD7r7/96vWJH5iowseOZcnCdey1rc81PDtflblr52a9jOO3dly73qPesyuNF4bDhlwihmEAqM/rW4d/jAitB2s3JytMSI4VEGrpbBte5J4UfMplI2K9QScg/sHqyzd7bePPEQFH/+0Pb/X5gRuZpFcsFD3XEvW43RSIQCRcKHd+rw8AwOfzj//HBwDg9634EMhGtbb1uWZnZyKTsxNl1NJx/d1TlxvM4ZvnDrFERCgSEAC32xW2HCC0saxVr52IE1O0PGBNbR2j947Xwae8xzEico89nh/haTn3RrO4oCArKUouZPyO0YG2uttVPdbpQXYiV0hYv3e0d9Axsz9AXcbBMTZOJVVIGJgYkw/6mDMwcsPOHZuTlIytu+LC9VZLmJ5UqMflpgCMUMQHuNvdjvp8XgoQ8I3PwrM+nx+A6/PdrdPDkeky8jKS49UKERd87rHhvva6usZe+4wCcaO2HjmUq2TGGs+cqBicvv9y1UWHj+RHkLHGs7M+B45Ml56Tqo/TKCV8JuCxjxq7G2trW0enYwOjLX56Xxq0fljmT9mSohZ4hhtuXK0LpOzcmqWTUGtv9eWyRvPEkM1Saj44QZQ95PoECPd1D+HsjFiXnp+brNPIxHwuQwNet83c39VY1dA9Nnf8iyuPy8xP1+tUcjEXfC6rabCzvrah2zY7nc/SWnbreuuID+7dLSDqgsceyZG7m8+e6IzYXJCeECnlg9c20tdSc7tmwDGnAkKsTyIQCjkArMflwV47Qne1Rr12ItMbojngH25vW2SuLPiUQRAn795fFMtYejs7ukd8IrW+YPeRfSmy6UpgB66/9Zc/vnrqztxlQVwelwD1e/3z8rDoMacxmrSCFJWIyxFE6PMz1OGr+4Db5aVABCLBAt121udjgfon7pXjI5ms3zcvCnI12Qcf21uUoVMwrlGjadTFKOJSiw4dPZinmvEQ6DfeKm8YDRBF2rYCzdTnHFVWcXYEh7U2fVg9M67zYwqOPL53S1a8RsrxOx2uAE8enZhbeuRoiU445/Q8bVpioLumvtsh1OZt378vU2Zsqq43BpT6LXtyNZw5qUOo+WAEV/ZxwdbnuHBf92DPLkzcdvTw5rS4CAnjd9ltNqeXCJXalPw9j5RmKGe1FF503qHHSgvTtJFixu9y+xlxZKyh8MDRQ4WamQPurPHOhcvjcT1IkrQ9pXkav6mrs6PHwkqjDEV7j+xKEM9tpqHVJ4hEQgDqc7vX48oXhNaDtem1E6UhSc0Bf097p32RyB50yiDOyo9Wu6+/c65rvNPAicjY99BmXXx+flzX1e573q4YZXy8nFDv0MDcgYOQjkkdVqsfpDwA8FvHwrnvnGVZAMIwC0UN6vW4/QG/xzt+Tp/HEwjA5E9TmMicnfnRgoC55vKFin4nCwCMOLZg7/6s6M3F2X0nq82Tv+Afrr7aoHsoJzJ7S07H6SpTABhl5vYsFZcdqy2/PXOtI6PO3Zmt5rNjrTev3mg3uVgArkxfuLc0LSJzS3bbO5XG6RoljK2tvKrZBZwxUcyRVOFoY1n1YID0sprHi6Nj45RVw+bpHC/9at5V8GUPvj6nUof5ugd3diJNzk2SMoGRusvnb/Y5AwAARKjJ27+vICYmK03dfGNyfouJzNmRo+FTe0fFpWvNJjcFRqBO31panKjJ35bTffK2afIahTihTwTRSuvVE6d6XRQAgKfJO3g0T2PYlNXQW2GceaTQ6hMIIQDAsthnR2gBaxLaGVWyQUmot7e1Z5HJsuBTBoOMNN3qnhoMDIw2V7dmaHMk2thIpvseW6KIPKMwM4Kwlpb6nnnTi6Eck9qbL77tSIqTE9tgR/eyH1UmMeKYJJ2YUJdx0LrAMdmhshN/Lpv6abT6rZer5yUiqkS9kqH2lorK8dgGAKyzr7qyJeFQljIpKfKOeTq++Y0112t0Rwois0syu96rZ7O25kVxWUvD9VtDs+Iqj7F31tewY13V7eaJPpbf1nm7Sq/fY5BodTJinDFAQr0eLwAA6/F4KYDbw45/6KFABAIBAZhRviVezbsLqexB1ud0scJ83YM7O5FIJQRYS2djv3Oyd0vdw7Xn3+sUMtTrnKoiEpmQqGCou7PiapNpvIGzHlNDeUV0TKlBkaiPqDKZl5pnc9PtPtfkL/uGG+p7M0uTJNFaKTFal16flsFBZ7ZCrNXHiow963VLKkJraS1COycmOUlOqLu3fX6kXGrKYFCv1Tqry8TaxuwsSAViEQOw0A2CH1Owe4uWz47WflhrmjcAGOoxfZa+Zkvf8soBAIym8OBOg5AAAMMTiQXEPdJefqOyb1kbCBipVMIAaxkZnVXMwKjZyoJUIpcwYJ7xLwFTVXlt/KH8qKzN+cBma3ispfZq9dCcDrPH2FRhnHcqv9PhBpDxBfzZ4ToES7uaCwmx7CEL03UPBXW5XBSk8rgkVVOVaaoHHHDbx9yzEo6XnVpM5lnXzmceHqOGKIls6WWnXqvVNfMaBRx2NwXpvMe0EPkHK8/dYEpyDAePG9xOl48FAOrquHryzoovtEXo/rAGoZ2nS0kQE+rsbO9fZNw0+JTBoZTO/YAFAGDIQgPZXFXWnv1ZKo67v+zq7bvuvAv9mGHBEUpk8ukpywAB1r/c3U+EEALAKPSFJZEzD8Uo5AwAO39vXcBcc7Uu7uG82MICgMDonfLqu29OZEQqXZwuQibkMWTiGKIYIQAsa7tBWGs+5LKvf9TW3tCfpY6LKjz8kbSR4WGLxWIZNZuG+k222cvTCMMQAMrOGeCe2Io2/q9LzQNl5/xMKQCQ5dcmYXh8HocQIpLIRAAAlCucuxgDoQfX6od2gS45QUBYW0ercZGuQPApVwajSNl9aJNW6DdXX75UP7ae+gPs4LU3/vsaAABheGJ18tZ9RSnbd3ks71UMLbeqiEyblqUNMnFgpKtrNEelYYC1drWZ7xLYGVnyzj0lqYq7NbR1N1UaUtnXPepoufq+P6cwPyVWpdJJVbrxj/22nuqya9VD7nVX/UHjRBXsLdLL3D1lZ260mBxenHRHaI5VD+2ixOQ4AaEjne2mRWJl8ClXApEmbj+0NV7MWhqunq9cv6+qpqzPYWxp7M6Oz5TpYuVkaHSZt7lA94evnu0IrrxEnrElR80EPB7Kj8gqTut8v3H2ExCRZRSXpCoYa+f1i5XtJtfkBgOi3vLIQ3lhe4VMuIRS9vuCf6yj6oOOKo5QpoxQKCMiNLH6pHhFfGHpDue7F+7bLxAiSq1OSqirt6HBaF9PT9wIrRurvPmNSBJTYrgQMLV2LLK5N/iUwZ+c4cweWyQcDocAADtn2BCISLf10HaDHGyt186X9bkWvgUGf8z1b2K0NOgBWEaRXrI5hk8tDecv1VtYvja/JEsxu0EJtYlqLvj7q242D7vmbxxcjvDWfKhlv78E3DbzQG9bfU3Z2ZNnqkZYwtfqtVOv16fsxMD7nPocr2C6DheiTwzor7t8IbRurG5oJ4qJTept7Yttegs6ZQh4kZqImQXmRmoUBKjbOXuRLT+q4OCujAjG2XXj3JWuRboFQR5zKrlCl5qdmZ6o5N/tX5eKEQj5BKjHtazvzmFtNgcLjDIyctakJRFFJ2dmZ6RqZ+9GZhQZO/Nj+OxYw807A8ba681WlhdduC1rZm0QLo9LAKjfP2eagC+Xi5YbREOpecqylE68n/SuQiv7EjK7Itf9noSqxBSDIVkzO+sBy/CojwLh8biTn7N2u50FolSrZr00lqfSKAhQu3X9dYzdbg8A4QsF+AWHCN3dqv5tkIjkJBUDvv72LscikT3olCGgPr5+W0GsZPzmzZUbijYnCQl1D/SOTN+8uBHZ+0tzNVx3X+X5i63Wxe5qQR1zqlTS1D2P7ttevLn4wOHSDGnYOohEIBIxAKzbvay3c9GR7k4LS6SGzVsmCwTAVSZvKS3Zui0vTjyz98Yoc4o3xfCotaW8csgH4BuoLm+yUV5U/o7M6YBLnaOjHgpcXVbGdNgg/MiMrbna5fa5Qqp56rDZWCBCbVK8+K5NPpSyh2ylrvu9T8rVZO4s2blnR1Gqkj95SiKITM+K5RPqtoxNzbXTke4uC0uECZt3pKnG31XMCFQZ2zYnCQhr6epcd9+aQN0uNwvA3OPNygg94FZzrp1RGwwKQj19rb3ucKUMiX+wcyxh31MpLqszwJfKxFwC1N1dfadvev09USamxggIUK4658BTOXOP4G6/9NatWZumgzjm9MElCvlEhOPKlWICYRqQGH97PPW47jFzEAx2pPbqnZjD+dHZe4+n2CxWD+VJFAoRl7D2jsqKjulLwYnM2r5Jw2VtTdeqJ99P4+uvrGiN35ManVuS23+6enwTWWCgpqY/cUtsTMFDTycPD1nclCdRqVXc4YYuuzxNuazchlLz4OppaMnRZcpSDzyR5PFMfusta7lz7mytlYZS9iVYqet+T9TefqcpdV+WImnXsYRtLpfbTxmuQCziM0A9g7V1g9MDKexI3dUa7ZG8qOStx/SbXE4vCEQiHgPUa7xdXmeebu5MVMFD+1OmhgE4PD4BEpF/6KPZ42+Rc7V9cKpycOU7+azb5aEgEgoFAPYVPxtC96FVDO1cbbJeRqirt613kYVKwacMDfEPlp83uwvzUmIihMRnN/e31t2u6r7b96ASrkA4v24o8OZusAnhmMAON1e3RW3WK4i9505jGBcH8vl8ABrwB5YbMvzDtWdPjGTmZybFqRRqKfjd9qGunpb6uhbz9IJqTmT2zhwNl9obb97qm3GBPH2V19t1BwyaguKc3jPV5gAA0LHmD95x5hRmJuki1XFS6nWMDjRduV1vSTyQscy8hlLzAN7+snMfuArz07QREuHkZADr4k334YMq+5Ks2HW/N29/2elTpuyc9PjoSKlELiJswOseGxrobqyun9MV9w3XnD0xmpmfnhSrkotF4HeP9g10zH+HPMMTioRzplIYnkA0/uBCKW+VRgH9Ph+AmL/M7fEIbVwkITEZAFSaKPOwEQC02viwHHdgoGfOJ7z40sf2pggc9efeun7vHVrBpwzW9BeKvFzeH65FeStwzKVmRZ77yLFCDYw1Xj5b1uvY6C/WXkc1j9YAR5JQdHB/qgJGbr15qmbdTRcgtB6sWq9dEGtIEBLW2tE6vNh29qBTonHU1lrTlb4nSZGx57jB5XB6TNUXrrTcr1ubELorIjHsOpytFogkYh4D1NFW1zb3W5wQQuNWK7SL9cmxfGDNHYtuUg8+JZpEXR3XT7rNebnJsVEKqVzgwqXDaONh+BKFTMr6HOa+vpb6Ow1D+PSK0AJWK7Q7my78uSnMKdEMrHOgsWygca2zgdBKobaGU79vWOtcIHRfWL25doQQQgitAhy4RQghhDYUDO0IIYTQhoKhHSGEENpQMLQjhBBCGwqGdoQQQmhDwdCOEEIIbSgY2hFCCKENBUM7QgghtKFgaEcIIYQ2FAztCCGE0IaCoR0hhBDaUDC0I4QQQhsKhnaEEEJoQ8HQjhBCCG0oGNoRQgihDYW71hlYbUSo/tQj+ceimJ6aqn+7PDy21vlBCCGEwmv9hnbCV+4riIoC29WKgR42bIflxOgOa4VCAinZsekfDt8IhO3IaLWJEnhPfk5QEA0EoPdt58/fZ8PXThBC6P61fkM7CJT7tqbmwEBX5UBP+I4aGOw/3a9+KIrpq+trwrh+vyIkvlTwqSe4ai54vcDjr3V+EEJoHVnHoX1lULfpT3+78Ke1zgZaOiJidj4jPJbPcHzs7Vc8dYnCT5aQtc4UQgitH7iMDt1vmDheaR7DDvlf/7Hrz5cDLrrWGUIIofVlVXvtXKn6oW3J+xIVOgmPz4DP4xk0mq5Ut55oc3gmkvAPPLb/K/qZDxzaf/nyw9M/sZY//Onam5bxuzmJKSx5YVeEt7HyS7f5H9uhL9ZKZMRvMo18eLv51Wabe/rXSMau0h8USmYe115/87Nnjb45WWQUz3xyx0ciPCff+vCKKu1TedEpMi71uNq6el673n7bNjeKcGSax0tSDiQqogRgt4xcvdX4ii3hZ08kKk3N//TXlq5Qgw6T9OS/ffthrfXCj/+f8rgnn9y3Sa8SUedwV82Vd944VTcyb/6Ar8nZc2TP1twUnUrM9TlMvU23Lpw8eb3bOXVibtanf/q1PfTSb1/y7Hh6t0Fqb73w0m9O+3Y++6lD2Wp28Pbbv/nD+U7PzGPyNLn7jx0syU+KUQjBPTbYXnP9/ffO15jm1tQaonTohue9V3397sXTTuDH7/viPzxZGAXGqtdf+PWFbu8KZg8hhNYYR6GMAACxROJyOgBAJlOE5bh2u3XOJ0QU/eWntxyPlyh51OHwWNwBlieMjlTkpepS3cYrQ14KAMDEJcVmiVm3L+D2A5fHMMA6nF6nL+Ae/5/XWV3X3zIRi4hUG/9wooh1QnxBQrLTUtM/ZvQL9NrI/BRdpn/46oBnMhgShTZ2ayTx+AJuX8BLOXwO8Q33v9XumLvuigjz8xKyRKyVE/l4lmS4z1xvchO5MiNWsztF3NM81DMjwhFJzHMfLXosTizjUrvNZedKCzJ08axPFSUVOs2na0dCXn5PIrL2labJvDZexpGdWnNzbXPPKFEnGdJytxVFDdyonBnLiDj9+Ne/9endGboIEXWOjjqIVKNLTC/aXiDrunnHOBG7GE3+4e16kUxOeirKm9wxOZuK8rMMkf6GsvJunqFwU1EWp+5i/ehkNQiSH/rn558tTYsSe8293YNWKtcZ0vO2l6T7G242W9bJ0gQ6FqiuYq3+iR/VefzCeGJr8pW30oWepbhZx5/7SI6UYXgybRLTcu62ERfcIYQ2rlXrtZOojORSOfGZOn94oqHSzgIAMPyMos3fKYnM2xSfWtPQyAKA7/L7Fy6P/4JM//3PZOfA0C9/d+vaPYMKP0ZqPnXph53jDwckKr3gB4d12VszSptunrWP3+xpW/mHnyufyEls0fb/2qG8Z2Z52SrnT14qv+GgAED4yo89se3pGN0zhV3lV0Yn88JkFGaUyglrG/jV23fOmPwUiDI25WuHkyXLnfiVpscO/er//lGVhQUAIkp+9GvffNRQ/OThc7dfaZ08Oyfp4WcfShL5Bz/8y4t/vdphDQDwo7Z87CtfLI3b94mj155/tXW6zgh36Npf37g4RrmDyoxvlMp6z/7xnQY/qWINP3omLS8/9vW2LhYAgJNw9NnH08TezlMv/OK12lE/AHCUOU8+99zhtOOfPXLneye6Qw6IguJ//K//sZm3wL/6Kn71lV+Uexb41wUFINSHDNY8NOyjWxhs7QAAIABJREFUcj4B6hseNGNcRwhtaKs3IK9RiBigXc1dt+2Td1bW21hZ+dUWPo/6lnW3Hel7p8s72WGjxuaW9wu1n4qKKNRxzjb77/mbC2qtabnpmDgk9VpO3Bp+9CFtdGykloz2jn/MSDcliBnw3yyrPWPyUwAAaulrfbE2+uclyx356PjgrWrLRI1QV/uZ09WHvrRNnZ4RxbQOjH9MhBzTzfdP0v6b71zrmuihe403X32zaMuXS9RZWdFMa/9UlVLWaXdQAGBtdicLYHewAEAddjsFRiKVMgAsADCJW7fGcqn50it/G4/rABCw1L756pWirx+M27ot4Z3uzlAvE3WPDRuNC7Uy/5h7dSbK2f7TP/9fpm1ZajA1lN8cwNCOENrQVi+0j9o9FESxSdqUO63Nnsk7esBrHF3uvKfP6jTNjBDU2WthaRSjlPAI+JcSO6ivb9Qz8xc9NtcYhWghX0oAJib6BRFiANbVPuybkZIODFntVCFdSjmmOIYGrTPP7h0x2yioJbLp8QDqaPngby3zftNrGbFREImlwY8cTCfkqjQqBtj+7t5Zz0P+3q4BFlTqKDUHQg7t3qqX/rUqxN9ZEayt4+a5jrXOBUIIrYZVC+20v6mrcpNiqzbtR8/Gtw9aOs32LtNYc5+5ecy/zE4Uy84J37S9rv7FfmLpX/LSLxqYkydKKQUgZEbEJBwGAOjc3AfYJQ4UTGPnnJ1SysKcswMAcOX6nILMBI1cyGXG/4ko0mVLng4gHIYQYLRbP/JM4swycGO0DBDK4eB2CoQQuh+sXq+d2np/8nrgo9tTDujlhgRRSsL4x4GB9tYXzrfVOMM4MkuHurtPdofveOsRJ6r42ec+u1MnuEskX9ajEqPJLj2QPf/zdbKGDiGE0GJWdfObe2TgT+8OvMThx6hkCZEyvVazO10Tm5z2TeJ57p0e8322P3m8Z0+4c/qyHGYV6pRE7fvsZ3dqOUNlf/zVq9c6LN6JaM4kP/39f304ajmH9t369Vd/dt0VjlwCAL/gk89/PHvBZXS1L3//T3dwIxpCCIXVGryNjga8A0bzgNFc3tj5Zl3aD59KTY6PKRD0nA9+l/J6QD1mJ4BYlKzhkeGpRXxEGyWXrvir0Yg8qzCFD747b//lUps9XI9ENMBSCgyXy5laULBsRKiM0cYsGNr7RPgaOYQQCrdVC+381JSoBB7b1z3Q6JgOG16zpdNHDTyuiEdgzmppOrFLmVmfd3/WXtXtfEotKdyWfWCo5pzZT4EoYlO+kC3yUBCs8MkFQgEQYD0e36w6I+KoaMWSq8tvMppYiNElxvOuNEx3pYk8tWRbssTTXXGlYTTUiO8pe+Hvy5aaoXAisuTCvFghAWptr6zp89xnQ0QIIRSC1VoZRTjpBblfOVTwtV1xCVPTw4RnyNMXCQh123vnzbVTt9vko8AoNycK1uX6LbapsvGilTJy3T9+8sAfPlP6wucO/vZJvafHHK7B7IVRS2+vgxJB7sGD+ql+LxEn7H3mWMbSj8p237zZ5yeqHU9/NE818cxHBLrtH/+HZz/+iUfzIpa9PHANEdmm41/4/Bc+/+yzh5MYH8Z1hNCGtlq9duq6eKP7yCP6+PS8X6Rkjjp8XkoEQoFSwBDqq77ZUTN/lZbfdLbesatQuvfYvhKXb7ybxVq7//215pZQ14lxY77y6ZwizsRPDJfPAEjSCn6jn9w77u7/z7/UV4e4Uow6B1947Ubf9tQDekW0XEQso2cvNL5sjf/5XRahhZm3/uSJ2s3P5GY88fxPSlpb+20BYWSiQS9oPXfLFLM7dolHDXSf+t3bmV9/Iu3wV3+4c7h/0MYKVVqtQkAC5oqXXy2f95rdNcJJ5j/3Bd7U6ARXRABAe0j07T0AAEBpxW+d77bO/h1+SoaBR4B6my9d7cVt7QihjW315trt3fXffG3seFF8caw8WibmEOrzeHr7Rq5Vt77ZYr9bVA3UXbvxQ1/Wx7PVeolgvHPK+rlLyTFhJGKBkjP7Qy5POXksyizpsAABu+n1M6bXZx41IWFJRwoRO3jxl98bO/rEoW3ZiYbcKNZp7mk4/+Kbp/qKvrF/GYf1tL/74+90HTh2qCQvSZekBo/V2HKz6srp96922NZPQOQQiYzIZg/lcIREJgQAAAqCeReTk5ieIiJAHXc+uDGyTp5QEEJopZCExGQAUGmizMNGANBq48Ny3IFwfsf6/YSnz/v9o/FiY+Nzr7T1YhBZHxjdo89/7yN6MnLxp//y33Uhv9gWIYTuL+tyFvv+xRGVZKglhLpGHSaM6+sFkaVlxDLADl693IhxHSG08a3B5reNhKNN/4+jcRGT0748gUDGI+Abe7fKeH9t5dvQBCnpSVzwtV663IUv3kEIPQAwtC8L4fAipELVRGin/3979x3e1nXfDfx37sWeJAEOgHtJXJIoatvUXp5yLKdJ49Sp4yTOaEbTPm7aJH372HXjuhl+s56+qZ3EjR0nHoktD8mOhrVFbYkiRUmkuME9QIDYwD3vH9TggEhwiAP6fv6RCB6ce+4lH37vWRdBv6+xsf3Dsiu72mfPzPQdT0yfn6sm77kDZZ0YSQGAOwHm2gEAAKIK5toBAACiCqIdAAAgqiDaAQAAogqiHQAAIKog2gEAAKIKoh0AACCqINoBAACiCqIdAAAgqiDaAQAAogqiHQAAIKog2gEAAKIKoh0AACCqINoBAACiCqIdAAAgqszw57WzmMX3PlgSJzWXvf1RjXtqSt6hRL11XmF2SrxBqxR7y/ccvOLGh5NHjmmz19xTGCv5XfYuW/Xly83O0Ew3CQBgomY22oW4rKxYgfxNNU1jpHXkJe9I8sTiLVsLzXJGRESST4HRmHESFBqDwSiQMc5szcrOOv/xX051+Ge6UQAAEzKj0S4mZGUaGffarjb6pqrklFCYMgsX5KZbYnUqQfK5+zpsNRWV1W0eaRqOPQFMl7M03ywnd9OZQ8eqO5yB4e0UYhc9dF9xHG8v2/FRpYt0eVv/amki9Z7bsfN8z+3v28/s0YlkxpT8hfMzrCaDRkYBj6Orrf5iRVWjMzioDHdW7fptlaDQJcxftnpZsqmoOOfy7otODHwAwFw0k9Eus+SmaRn31Ne2Bqaq5OQxTcbKLWuzjTKikN/t9okqnTk9z5yannJ87/6L9tk4Tst0RoNAvL/23KU25yy9/ZgpSmvJ5k35JjnjQY+zz00qXWxydpw1Lf3Cgd0n24bdJ0r+/rbKC3V51kK93qBnhGgHgDlpBqNdac1OVzHeX1/THpyqkpPGNJkrS7OMor/zwtFDZ5qdQSJRa1101+rixJRlK/NbPqqwz8I/9wF/gEjNBHaL7/OQJHEiLoUkTkQD/zBJmp7bgBk8utxasjrfJJfsV8r2l9X1BYhIHpOzbF1plmnBysW298taRv5CCYJAxAP+wCz8QQMARGLm5mRVaVnJSsbt9Vc7x/gbH3nJSWOajGyrkgXbzh882XxtxDbkajl75IwtSLK4zAzjrdJzJnGf18uJKdWqW7Uu6A8QEQUCwYF/AkREwcBtHwKZ4aPLLBnpWsbtl44cHch1IgrYa44fvejgTJuekyiOfA9TqZWMyOv13PbmAQDcHjPVa2ea9ByLnKSuq3W9o+d15CVHqSN2wQOfWBTrq97z5yua4uKCzASDSgi6eluvVp491+S4OcjODEatFPT3Nre5BvfZuKejrU9KMemMWoGujclHXOcggiG79O4lmTGCs/HUvmM19im6U+E+j5cTCSq1gihcIvFAwM+JQoGBWXgpEAgSyQKBMB1TQZucv7g4O9msU5Df0d5QeaLclXf/5nxV75md758dMmQh6q15C/OyUs1GtYwC3r5OW21l5aXm/uGnPo6jDzRhqq4SUxv1csa9bW09Q9oU6mrp8BUZFHq9mlH/0FYwpUolEkk+jw+9dgCYo2Yo2pk+IztRpGB77dUx5jMjLxkBTdaajSn63pbm+m5FTFJKfEbxmsS447v21lyfoZZaj73z2rEw75TJZYx40B8c0YYx67xJiJ9XnGNSM6LYjEV51bVlHVOU7SGvx89JqVQrGXnCXSUpEJCIB6+l6cBosxAMDA9hps5Yec/6LJ1APOjt7/fJzLl33aOpbg8zGCCLL9y0tThRyUKevt4OH6kMsSm5S5PTUk/t21PePXSYO8KjXzOFV0kQBCIKBUeMugdDISISws1gqNUqIh7wemfjqgoAgEjMTLSzmOxMs0jBptr6/jGSPeKSERxVkWj2HntvT4NLIiISY/M23LfEmrpoUUrD4cZRR4eFmNRUA+P+9tbhAwfjqpO7HI4g6eREFHT0TeW+c0mSiNhAkoXD/T5vMBT0+QeOGfD5QiG6/tUNgrloWaZO4P11J/Ydrun1cxJUiYtKVxfJh0egEFdUuihRGeq+cHDfqRa3RESCJrl4/caCxCUrC207z3cPGfSI6Og3St+2qxQRxhgRSRL67AAwZ81ItAumrOwYxv3NNU1jTGhGXjISrOfymUbX9XAO9V45X5NnKdJakuOExvZbdw2ZIa8kP5ZJ9uqLTSO2Oo+nTt5/Zf+7rswUA3O21TVO+lblOkGTlGnVMO7paHPcok6pvWzH78tufNV7/p0/nh9RiMVYLTpGAdv5Y9W9AycqedvPnbySdv9i89CSpvSMGIH3V586PZDrRCS5bedPV6dtKYjJzIwr7x6c7REd/Ybbc5WYfl7p5hVW3nxyz/5a1yhHt7e1uQuNGktGsrqjabZudwQAGM1MRLuYlJVpYNzbXDsyKSdaMhLc73AM6QRKzr5+iXRKjVogutUfcUVS8ZplFoXUW3GkomvEIO146wzYbVfstsmdBxEJ8SWbS7NVjIgEuVqjZN6e2uMnTtsmtYGAqdUqRry/p2fwnjDu7Or2c7NiyOF1Oq1Akr2nd+gcdm+3QyKd1qAVqHsy49lTdJUGkydkpOgVIqWnxstHi3YKtp3ec0JYVZS9eXu21+0JSETEPXWHd5bf9kWcAABTYwaiXW7NSdMw7q6vbRljjXTkJSPDOR/+gkREJLBbDWTLTAXrNhaYRG9L2eGzYXfejb/OKSGqtHqD5sY4eYiRFJz0bjKBCURcGj4YPXKbGmOMEQnGjJJVcYO/JxgNApF06114M8dvq6hsUli47bJtzLtEJsgVcpExptbq1UREXKYKs5YeAGCWmv5oV1qz0pRMctbVdIzRsYu85O0hGHPWbFlsUQW7zx88cLFvNvXZpLajf/7dUSIiJsg15qzlG5bm3LXaZ//gVPv0XSqmt8wrsEzb4SbJ21K+r6V84P+j3XWJCcXrl2bovU1lfzlR3eXyY9IdAOacaY92dXpWipLxnvrarjGyMvKStwPTpd+1ZXmqRrJXHd57evY+TpxLAVdH9aXGwtR8vTXZwNp7Jx5FEr+2GI8RDarlVqvzQo1H3thdN2uvzMSwGItVx7inuaqqo3823c0BAERsmh9Zw7TpOUkyCnXV1I2xXTnykpEfXBCHjhQzURQZXYu0Id9QW5dvuSvbQM6ao3vLbGH3k423ztmPe9weTkwXF6cc9CrTm0yKYQPsfGAaIuzmsdlkYCpBlI24gZWJIt1iGTwbOCf01QFg7preaGfGgU3qnVdrx9r0FnHJcZDHxccOPmFZXLyREfe6hy6EViQUb16dFyu4G07sOdQwRtctwjpvFDdacwvz56fHKMJ9d6IEpUrBiPs8k/rsHG5vbe3nJLcuWpkTIx+oWJVYvCxXHxr2I5CcTpdEQkxc3JApaKZOzMovzMu1aCYZ+VN0lbjH0R/gTJWYGDfk91w0WROUjPsdzjA3bV6vj4gpVEp8eB4AzFXTOiDPYrMyTQIFmmsbXGMke8Qlx4EHFBkrijv2n7e5QkQyQ/bSJZkqxj2tzT03Y1gWW7hx7YJ4mdd2eu/+GsdYXe+I6rxxVrrcddtWWBVEFEg78sGeS1N018KUarVAJHm9k3uCmtRZeaI2fUO2LmvltrTi/n4fU+u0Umt1SyA3c0iG857GenvBorjsJctaPj5pc4WIiGQxWcvWrszUBRoP1FdP5mym7ioFW+oaXBnzYvPuvsu+/3j9wDPkjdlL7yowMN7fcDXMwgTu9XglIkGpVo14Uh0AwNwwndEumLOzjYz7bDXN3qkqOS7Btvq+tA2fyvE43CGFTq+RMeLexvPltpvr71lMem6SkhGXmYs2fapoeA3e2gPvnBmyXT2COm9WrjUaBnrDJDPEaKYsOgaeHs99nlFmDiLjaTi+6y+OkuLsZLNOqyNnx9VjJ8pdeffnDisn9VQcLk/auiixcP32HKfd4eNyrdGoljGpv+70qbpJ/dCm8ioFWs4cvmTamGeaX/pQ1hKH00sqvUEjYxTovlB2NsxnwxBJXo+Pk1qlUhL1T/jAAAAzaBqjXWbJytAz7mm+2jzG0qvIS44PC7Yd39vtLVmYkxSrYoH+7paayrPnGsN9DiqTKVUjrw0n+fBNUOOok6TOK+evJizJMLL+pvJLU7g4UKFQEPFQcPjA+QRIblvlYVvloFcEa7hywc6K3Tt68hflZ6aYjGYdBb397Q1N1Rcrq7u9k2vF1F4ln+30hzs6ChbOy0g2GWJiKOjpa2msr6qsrO+7xUMAgoEAkUahVDLMuAPA3DR90S635KSqGXeN/ZnrkZccJ8ZYyNl46kDjqVsW4V3n3vntuamt8ybJUXNgZ82BcVQfEe52uThpdGnzki/3NLumePvbtefXjtzdHnK2VBxuqZjao9HUX6VgX1P5oabyiMqK2pScNAMj7nFN+yNuAQCmyLRFuzI5O03FJEddTedY29kjLgkDuLPmQsP8dZnGvHXbsz0ut6/r/L5D1VMTTaIuNdOqYDzgsEdz1jFt9uqthWalWquRC8RdVyuv9kXx6QJAdJuuaNdkZCUrSOquG3OTeuQl4TruqTu209u9cEFWcoJRZ1B6Jr68W0hYunVNrvr6EndRoVLKBAp2XapqntRTbGc7QaE16nVSwNVts1VfLK9qj+YbGQCIctMV7e7L+35/eYpLwiCSu/VSWeulyVckKNQazfXda1wKeOwtjdXnT18Z+fz8aMKdVbt+WzXTrQAAmBIsLT2LiEzxCd2dHURksaROSb2trU1TUg8AAACMC57LAQAAEFUQ7QAAAFEF0Q4AABBVEO0AAABRBdEOAAAQVRDtAAAAUQXRDgAAEFUQ7QAAAFEF0Q4AABBVEO0AAABRBdEOAAAQVRDtAAAAUQXRDgAAEFUQ7QAAAFEF0Q4AABBVZNN/SKYy/82Dix5IEJounPv3g519098CAACA6DUD0S4mWbdaVCpGOYXJ8490nghNtkKmiNlQnJBAzsOnWpuk8McsvW/LU7lhhyik4x/t/sGl4JAKlYY1Jdlbc+IyjUp5KNDV03Oqqu7PFT094SuHsahTZOu2yBfkCiYdC7ml9trQqb3+sho+6R89AACMNAPRHmpr+ajFfF+CYKu0XZ6SP+7KmA3Lc4uoteF0a1P4Etzv89ndw6Jd1Gpk8hFFmS7p69uLN8aKRJLb5XWIiqSkpAeTEkszL/7b+/UNSKPxMi5WfuVxeYKceJA7+7ioF1IXCakLZPlveV7eLwXHrgAAAMZlBqKde7teeWvfK9N6TOnE3n0n9g5+RVG8ZsV3FxvcbbXv1A2KF6Zat37hxljB1Vb7s4+unLCHOIkJ6dnf3JqzICPv74q7/vl0P7ru48CMsu2PyhNkvGGP77X3g11+YnI2b6vq0XvFvIeVqy95Pm6b6SYCAESbO3MZnSxvxdLvFBtYd8OP3rty0XfzG0yXtCldTsGe13ZdOm4PcSKiUEdD9QtHu7wk5sxPSmEz1ea5KWaxPE9D/mr/q28Hu/xERDzAL3/g3VnFSS4uXizcmb+AAAC307T12lne6rXPlWgH/yXvv3jy8d0dgWEFBeNjn737k7G+ne8cOWSa9zcLE3P0Mu7zXG1oevNY7Vknv15Osemhjd/IGFyf5Ttfv//mV5L95VeOvm3nNJyYUVzy3RWxCofthR2Vp91DCoixuoRQyN3dWe4c/DrvtfU0S/HZBm2iQI0TG5NXxBetu2fd8gU5VpNGFnB1NV8+s2/nzmON7uEtFOOKtm5/qHRBhllD7vbqEx/+8d3u9U8/tdHQ9Oenn36nefCggTx+wcYHNq9alJlkVJG3r632wrEPP9h7oWv4NZ058YksFOCtF0NDfhCc11VzqYDFJQgCScOHQRSpG778lUdKEqjj3J9++eK+Rv90NhgAYO6bvgH5gD9gd/sGoliQKfSK0fu/LLGw+LtpipqG9gOt8ozUhIL8vH9N0f/o9fNHXQMhMWj6nIk6tUxGkssduBlqkt8XZuhcsBQU/+vqeL27/f/tKD/sHB6rwcaKL/13RZjWyEUlEQVC3pG3ChFgmvkP/+O378/SMB7yOnq6+xUxibnL788tLs755fOvXBjUDBaz7PP/8rVVZpG439nZ6VJlrvv8U6ZD1WEuljLrvm8/9ch8LQX62ppqbKRPSila+6miJcVv/uSF9+t9I98wE6687v7u62FeVyiJEfm9fOT1lM3f+NBSi4YRWUoe2jTv4G8qMB8PADAe0xbt/OrxI58/PvB/lrz0rp/fHTNacSYvNLl//OrxEy5OREwR89cPr/h0kvWxkobjh3pDRESBgx/uOzhQVp/x7N8WFlH7L35z5uioXWqmtn5xfZJZ4G6/mF+U4ahqKusKRBDWLC0rwSrwfltX7URm2sXM+5+4L1MdbDvy2v/84XCdI0SkSFj219/48tqUDY/ee/T7b9Rcb7Us555PrTQLvPvEKz/9zcEmNyfRMH/bl7+0VTOizrR7n/jEPI2/ftcvf/ZmRW+QiMSYoke++c2t87Y/fk/5Mzsax91S5cq/+/nXloxcWDggcOpX3/jZ8am5YxCFwgWCwHntFWnkz0vqbu8McIOCEQ90tnVjaQMAwDjNwDK6CNVcqD55rYNO3G/fcaZz232WxOQ4C+ttnlDXmYhIEOWMiJgm1rw+1ryuOPPM4VP/dbbPO+qbxJi0zxfrhVD/h2c7XBM4KFOJXSc/3MlbTr53tOHa6LK/4+Qbby9d9vVV5oKCRKGmZSDABGthoVngvvPv/O5g08BIfchxecfvDyx+envG0BNJX748Wca7D7z+1kCuE1HIXvH2G4eWPrU5ZfmKtPca68cbitzb19nRcavfiGDfxEYswjCXKldbKdQaOHAhTJVSy0c//Y+uFQVm6qo6frIV0Q4AME6zNdp5wNbrG/x33+f09HFKVCl0jGiiGcNdjc/+yiYQKdXa/Lx5X1ieUFK6+LHOwy8233LMlynjPntv/kIlbzh14a32CeUMd1V//Fb1iJf99h4nJ7VGp70x2i4YjAaBeFdjk2vQKUoddfUunqEd/GaZKd4kkNTSOLTlweaGVolM5gSzSOOOdv+5V793bpzvGT91juKxh0VVUPr4D4Gm8Jddctad3FN321sCABClZmu0Ew8NSybOOSdibHJL1Lk/ECQib6Cv7MQZu6L0B0t0GxbG/7651R22uNzwifuXbE8QHA2VPyzrHb1zPzqZIaOoOD8t3qCSCQOnwIzz9cNPRhQFIh4KBofevIRCw8etmSgwRoJl+ScfSx+cj7Iki0CMi+LsXHmuSJX/7ZOKFDm//Ib3w6tTNQoAAACDzdponwahmoZue4kuJs6QJLSGmUQXtZvvWfa5VIW3veb5XQ3NE39YjZiw8olvPl5qVYa5LZnUeLMQX7h2U+HI12fnc3XERPlnv6rM0fKmv3hfORhmlh0AAKbCnRztxP1BHycmE5Ujv8fUpZuWfyVLFexu+OG7VyonsXyMJWx4/PFSi9he9r+/euNond1/Lc2FrE8/+737E4aUDYUkIibKZENvAkRRDFt14MyL3/q/xzwTb9sQiuLPfv8zhbdcRlfxx2dfKZ/wRjQhTvbprykLjdR+yPvrd0Me9NgBAG6XOyLa5Wn5z6+JFzquPr3b1js4U2SCjBGXRjztlClK1i77Vp6G+mw/HbH3fZyYoaAkR0GB8ndfO3C1f/SapD57n0R6c1qqljU4rpcVEjIytMM6/DwkcU6CTCZOYunB8JaqYpIsSbeMdpt6wnMhTC8+9DVViZl6TnpfeiM0Ys8hAABMoaiIdn5td7Rwi+yRfJIyVp+sSShQ2o7cnDBnFmuciVGwz9U5ZFhcXrBy2VOL9GJ/23+H2/s+XkqVkhhJPt/QbXZMk5BoHNZgqbWisvPB1MQF2x4rrfv1YZuXk2iY/+Cja8x+TorBJYNdHV0SJVnTU+WHqm52pZkhd9WKLK2v8dShqt7xNtxX9ssny8b5nggwtbj1q6q7LeQo9734arB37CkIps8qWZisYsQdtacv2Hy4EwAAGI/ZudpqfLjX2xXgJMQsSVeGPZ9QZ+vBLonUlic2Z+ZrBorIrNn5f7/UIHL/qar2QR8sK2aWlPzLshi1p+vlHed2R5BDY7bO3tzs4ky5YPPmjBv9XqZJW//YA3kjCgdrd71+rFNi8Sse//efv/D8c//xw1/86J82+Surhm88kxpPnrQFmenuT//VQtO1+zOmtN71ma888ZlHty2MnTVPeVEIa59Ubcpgrku+l34b6IykXUy/ePuXvvClLzzxxNZMIZLHDgAAwGDT1WuXJX3jc0VLr88YCzKFQKSdV/xSxrXs5N6WF167eH5iS6uCXbsvulaX6NY/sGGVJzDQyZMcjT9480r1QPWS4509lwo/kb8wq+C5jHkOVyCoUMYpBUahpooLL1X7b8aHoCstNBkYSXLjIw+vf2TYgbj/412HXraNL238F3fuqFjy2IK8h7//41U1NS3OkCouPTtDWbPnTFfSmuRhR3Ccfvm5H7c+8lDpwsx4Uzy1Vx/839d3dK97Zu2wWkONu37zbv5TD8/b+q3/LO1saXNKKpPFYlSyUPepP75xfLaMeQsW2fJcxjgp0hU45UrxAAAEOklEQVRPPqMY9l3eH3jlOX/tsJ+6IicvW86I+68cONyMbe0AAOM1XdHOBK1GGTNsMZhMHnP9+FyQTaIpocqjJ/4zUPCZQnOGVjnQNZaCQyr0ddY98wfHPUuzNmTGpupVQsDf3Nx1pPzqjmpn2G1vwqC23cRJM4G5balt/y+e6bv34S0rCtOzFyRI7u6mqr3/8/Yu29J/2hjuZHordr5UsXPQK7LCcDMNvtr3f/RvDZse2LJqYaY100w+R0f1yXOHPvrwcJ1ztgUiI4WGDQ92Ik5MNuLUxPT5OWpG3FX+8YmeWXKHAgAwl7C09CwiMsUndHd2EJHFkjol9bbe6pPTYfxkC7/4k79fo65/4/88+37UP51NsG77/jOfzGA9+3/ynd9NZmcCAMCdKhrm2qOczLx0VaGGcW9ba0+05zoR08/LSxZIajt88BJyHQBgIqJihXx0EXM++b2vrr6xeF6uMWiVIvnq9+wuvwOyTpkzP1NGgZoDBxvwTBsAgAlBtM86TK41xsbGDkQ750GfvaXi7Mc7/vRx3ez5GPbbRkyfn6sm77kDZZ2YZgcAmBjMtQMAAEQVzLUDAABEFUQ7AABAVEG0AwAARBVEOwAAQFRBtAMAAESV4ZvfsLIdAABgTkOvHQAAIKog2gEAAKIKoh0AACCqINoBAACiCqIdAAAgqiDaAQAAogqiHQAAIKog2gEAAKJKuM9rZ8K2J42fS+aO3tCFC743D/ib74APCgcAAIgO4aKdmC5GTLMQWWRFBcptKz3/8GPXWc90twwAAAAmQDTGxBKRRqv1uF3XX+QXjrhf2un54DJPLVBkJ8pSnf4PajmfwWYCAABAZG45185DvOWS59fHQxJjyYmCOJ2NAgAAgIkaYxmdTEZE5PJwaToaAwAAAJM1erSzOIPAiOwOjMYDAADMDaNGO2NxesY4tzsk9NoBAADmhNGjXTDpiYj3ONFpBwAAmBvGmGsXBSJOQfTZAQAA5ohRo10KnbwsSYKwYpnCjCXyAAAAc0HYR9bcwE/9yfG8TPv4SsN7K6VOBw8SEZd2/brvxdrpaR4AAACMz+jRTkQkVwk6OYmCkBRPREScxSpud6sAAABggkaPdrZom/7bS8Sectc//sFb2cMDWE4HAAAwu40a7YK4skAUSTq013Oue7paBAAAAJMwxgp5xoiI8MAaAACAuWLUaOdSTz8RsRgdm6bmAAAAwOSMHu2828k5Y7EGNkbvHgAAAGaH0SOb9/ZxThRrENBtBwAAmBPG6I17fJwT6bTotQMAAMwNo0W2Ik6xrVgUiLp7pdC0tQgAAAAmIdzmNyY88EXj45nMFCdoRQr1+F45GsJT5AEAAOaEsPvamSFOTDHx/t7gkQrfq+97Ttunu1kAAAAwMSwtPYuITPEJ3Z0dM90YAAAAmCwsjwMAAIgqiHYAAICogmgHAACIKv8fdspkorFo/pUAAAAASUVORK5CYII=;" vertex="1" parent="1">
          <mxGeometry y="127.64" width="304.98" height="123.36" as="geometry" />
        </mxCell>
        <mxCell id="R1Sj7afmYKt7WFE0D8gf-4" style="edgeStyle=orthogonalEdgeStyle;rounded=0;orthogonalLoop=1;jettySize=auto;html=1;exitX=1;exitY=0.5;exitDx=0;exitDy=0;entryX=0;entryY=0.5;entryDx=0;entryDy=0;" edge="1" parent="1" source="R1Sj7afmYKt7WFE0D8gf-6" target="R1Sj7afmYKt7WFE0D8gf-16">
          <mxGeometry relative="1" as="geometry" />
        </mxCell>
        <mxCell id="R1Sj7afmYKt7WFE0D8gf-5" style="edgeStyle=orthogonalEdgeStyle;rounded=0;orthogonalLoop=1;jettySize=auto;html=1;exitX=0.5;exitY=1;exitDx=0;exitDy=0;entryX=0.25;entryY=0;entryDx=0;entryDy=0;" edge="1" parent="1" source="R1Sj7afmYKt7WFE0D8gf-6" target="R1Sj7afmYKt7WFE0D8gf-18">
          <mxGeometry relative="1" as="geometry" />
        </mxCell>
        <mxCell id="R1Sj7afmYKt7WFE0D8gf-43" style="edgeStyle=orthogonalEdgeStyle;rounded=0;orthogonalLoop=1;jettySize=auto;html=1;exitX=0.25;exitY=1;exitDx=0;exitDy=0;entryX=0;entryY=0.5;entryDx=0;entryDy=0;" edge="1" parent="1" source="R1Sj7afmYKt7WFE0D8gf-6" target="R1Sj7afmYKt7WFE0D8gf-22">
          <mxGeometry relative="1" as="geometry">
            <mxPoint x="430" y="910" as="targetPoint" />
            <Array as="points">
              <mxPoint x="419" y="360" />
              <mxPoint x="419" y="900" />
            </Array>
          </mxGeometry>
        </mxCell>
        <mxCell id="R1Sj7afmYKt7WFE0D8gf-6" value="Protoc" style="rounded=1;whiteSpace=wrap;html=1;" vertex="1" parent="1">
          <mxGeometry x="400" y="300" width="120" height="60" as="geometry" />
        </mxCell>
        <mxCell id="R1Sj7afmYKt7WFE0D8gf-8" style="edgeStyle=orthogonalEdgeStyle;rounded=0;orthogonalLoop=1;jettySize=auto;html=1;exitX=1.001;exitY=0.364;exitDx=0;exitDy=0;exitPerimeter=0;" edge="1" parent="1">
          <mxGeometry relative="1" as="geometry">
            <mxPoint x="400" y="331" as="targetPoint" />
            <mxPoint x="302.9025999999999" y="330.37932" as="sourcePoint" />
            <Array as="points" />
          </mxGeometry>
        </mxCell>
        <mxCell id="R1Sj7afmYKt7WFE0D8gf-9" value="" style="shape=image;verticalLabelPosition=bottom;labelBackgroundColor=default;verticalAlign=top;aspect=fixed;imageAspect=0;image=data:image/png,iVBORw0KGgoAAAANSUhEUgAAAtkAAAGJCAIAAADQSbijAAAACXBIWXMAAA7EAAAOxAGVKw4bAAAgAElEQVR4nOzdZ1wU1/4w8N+ZmWUbS3GXsvQO0gVEURRjbzFRE70xMTGmJ1dTfJKbGK+5aTfx3iSm/m9M1cQYNbF3jb0CKhYQlCq9LLAsuwtbZs7zAkRAkN2lLOD5fvIirLOnzZmZ35w5cxZ5eftBW1In5+qqSiAIgiAIguh9lLULQBAEQRDEPY3EIgRBEARBWBOJRQiCIAiCsCYSixAEQRAEYU0kFiEIgiAIwppILEIQBEEQhDWRWIQgCIIgCGsisQhBEARBENbEWLsABHFP4tEjxwruj+T5OCJeScOS7xorsLWLRBAEYSUkFiGIvoYEvOeX2T3hg5qGJQ0aRI5DgiDuZeQc2Lco37nvr5zhRjf9hTFr0NSW5V1NPrznyJVKvXXL1god/NjHb0yWUrgxbc0bX51RN92yI/HIlz57JlaIuMoDH/1jUw5r5VIOWK6jRI96I1Dqv/pRsy2bVZOGJAji3kbmi1gDZhuUlZWVlVWKOj3P0SvyvnmvvPfmvDBbZO2CtdGoUun4IcPDxbeKJQwfNpTfWFens2qxBgF3Oc0gKEnW/p5FAhGCIAgyLmIdqrPfvbk+0wgAQEt8Rj/yzKOjfaY8Oz97+U9pmn4zbYApz7tGR4XGhYuTz6kxgCBk2FCBNjurPDTa0dplG9i0DRgD0HT/ij0JgiCshYyLWBtbX3DipzX7izjKIS4pRtKPLk9IUJ6bqRUMjYsQIQDgBw8LF2kzcisE/aiMA1OtiuMAHOwQOfwIgiCgq3ERKmr8+HfD8YFD1xpDQya72qjKbn53MF8fGvFctMwZa5JTrnxzua6x9TdoUUyU/6wQp0BHgRCMtbXKC1n5Wy5XVdwxEM3YyqaP8Bvvbe8m5tlQYNDpyisVJy/n7MjV6CzdEhjRsAjfqUFOIUOEtjRXr1Jl5Bb+eb4k/46HCrTE6cGEgIne9s58UCtrTl3M2lTv9flsbwfFjVd/z77ZemjC5Bp1g7HkaoZippfMzcuFAlXrlHlOERNmTkqI8nW1F0BjXXne1bP79xy+qjDcrnPo458tG4eP/7heN3r+WH9bdc6R9T8cMCQufmxymIwrT9v5w9rDBW0awMYletL9E0aE+bjY80FXV5F/LfnQ3kNpFe2nq1AOotL9GdrYiLhw0blkQ1B0uG1D+oVS4aMU3NGgXZfzVnEdw8bPmjYqws/VQcyjOGOjqrIgI+WvnQculust3RJsnMLHTR0XHxHgJhUxBo2i+PrFI3v3ni3Uth9jooeET5nzQGKEj0wE2orslP0bd1bf9+7rE+yKtr777vZizpIaWaBOhTkMjISyQ6DoN+NgBEEQ1kLbO7QfbxeJxQ1aDQAAIFdf3/ucGTsRFGSXpevFMf4ucZ6OTmzN8RsqG1fXEYFSurDosvrW2ZTnMPfBhKXhQ1wFXJVCVaoFe6ljuK/bOHfuSnZtTasTPRK6/H3+8DmeYgce1mh0ykaW4wlchthHBroFNlaerNBjC7bkD3lszsgXw6Setjysa6zWgZ29xM/ddbwvPze7sszYKnex69KH4x7wEEkYrK5vUDO20SFunpxB6mwr0FYfSK+pa9nU5BqZCjmGjk8Kkujyzxy8orj9fST0Hz0u1J4rTjmYVtXyMd9v+msrFicFOYv01cWF5Sps5+YfHDkqIdiYmXpD2RyyUE5RU0b5CCV2qOh88vVG1/BhcVGh/kOMmeeSC3n+McPiQumMY9dquVsZBT7w/5Y/nhjgbMfHWpXayHd0cvMJGzlqKLpx/nrNrVaiZJETRwfY1l78I5UePTKcV3j0knj8gvtcs3ZurvSfEStvzD31V0YNNqecAABIErNoxavTQuX2Ak6rrFVpdNjGQSb3GRqf4Ku+mJyvxhZsKQqe8/ryx8eGuDkKsba2VoNsndy8g+NGRUtupraZD4wchi9e/vLkECdbG05TrdDYyMMSEtxYjaO3G1+Vefx4lqolUZNrZCE73twERtho3HfSUENiEYIg7nkmzBdBVFlm5vp0HU7XDPGInyKs33kk5wqLUrDDd/cNifO1XV/edCeP/GIjFrjzdBV5H+++nqbmAIAWOy28P+ZB96C/x1QtS2654UfOIX5JdsigKPh4R+YFNQcAQNmExMW+kzAkcphn4NXMLM7sLQPjIue48gy1Jd8fuHa4Qs8C8O1dF8+MniLzeia2+O+nWq4gVEhMSJId4urL1uy8clBhxIAc3AOWTfETt3/2YHqNegPtNW3xg0EifcG+b778I73WCAC0Q/jcpUunBM1ZNPXKezsKW8UyTMWZ37ceq8NMuUPIG0mS4kPrdmUa0SXOf9XCoMgo9y25NzkAANp72pMz/YWcIvX3/609llfPAW3rO27hC4/F+c96Ytqld7fmt4rZAAnFcO38tYb40OiwgNow+4b0i5lIMh4hC8uJpAnTR0opY9HBb1ZvvFJrBACgJP4zl772YPDQyeP8jv1+69Uc07ekfWcsnu4rNJaf3vDd76fyVSyAjfPwvy15Lslj/IJpZ1ZsbnnbhwmYOm+kjMLVKb9+8dOJIi0G2i541nPPTBF1p+UtgllswIBoMl2LIAgCwLT5IljdaMAAgPUqHWCdvh43f8gB2Apsmq9MlH1ikITBDYdPNV+2AYDVVG04VVyFKa8guW+rrJzshRTgohs3W7YETp914cLLvxz/+/a8As6CLRlGVbb9fPb/7b96sELfdPnR1ZWvPVehwcjFU+bWcv2kbId5iSgwXjyXflBhxAAAWFmS8126pv2FwZwa9TzKOz7encHVpzb92XQ5BABWmb5t88lqzHjEj/BqnTvmtGoNBgCuXq3lQKvWcACANWo1Bkpsa9u8LeUVGyunQX1+049H8+o5AABWnX9k3eYUDdDy2DiPtjVCNjxGm37xWoMwZOyUMCdd5vlrDTwbfttQxIxyUlInKYW4kpSjLVsCV5+798t3lv9jxWf7ijjzt0QCWpG6f+/Odd/+fDy/OTTUV6Zu3nZBiylZaKhLS+6UW1iYjMK6q9t/OVHU9PCGVV3f8dvxyvZTSM1qeQvQVPxwGycKFNmGm90MagiCIAaF7t6Y3b5HpoQuEgScOq+6zfnVUK0q4sDJTuyMIOfWh7VqHQahu6884ErODd2tQWpWX1nbfiaAyVsarl29fu2O4uk1DSoMIj7PFgE0L5LBdxQBcA15VYZWo+O4rEKlxva2rb9sTo16HiN1klLAlRYWtx6qAGPxzTIOpDJnGQ0Fpl3Jbl9qaalMSgFbmlfQ0LruDQV5pWxCoNRJ2i5NmqFBm37+mi42NsKh4eK+dC04MLTF5cR1yjoMQ+RR8T5Htue1TOYw1ivK69smavKWWJN99M/sO6qsV9bUYxCKbG+PdVF29nYUYEVhUes3lbjK/AIN9hFbWCNTMX6i/z3FlyIAQGI7yp7irp/T/GerocG8ZAiCIAannhskRohGAEg8ZlS4f+tHF7TYAwECRFMAzZ/j0us3Lwyzj5cHrVrsmVeuLKhW31TU3SipvlFnbHuSN31LAABGZD/MT+pnZyOkm2MkSjTEDrWOmACaSgK4/fdZztj2A3Nq1AsQTSEElDz+oYXerUvGuMopQJimLbg7pxiGQgBGQ7uqGg1GAEQxTLs0EUUB1l49sPVAtTNUnL+qxTCEajeKYEY5uYpzh69Ofjo64MHln4wpzM0vKi0uKbqZdz0zr6qh7d4wfUsAAMbOJzx6qJeTnYBpLh2yD77jjSSapgAwazS2naDBsu33YS+0PLKh3Jxop1tFwkYADuvIyiIEQRAA0PPri1Ci6HDv6Ds/b3vaxfXFn25hHx4VMNHHzt9LGODVvFFZXs43h3Ovtnr9weQtkWtw5IoJHp68DgrVrYFw02rUWyinsKSJYdbKHQAAsPb64U3Xb5Wnk41MKyeuPrlmlX7mnJljIr28w2U+4cMBALCu8vKutT/vajV31PQtaeeRi5cuSnTjd/Cicff2e0+2vCFLPeNZNQAAArEjM+Nvdq8l2H5Uzz76p6H/LLZLEARhLT0di7AVq78/f8yEhTkba8p+3V22nrZxlUq8hkh85E5jg53c/YLeRLqlu4qqsXlbInvvJRM8PCjNicOXfs6qq7l170u7hHw9z9+1Tc6Y5QAAtR8DoKmO28LkGvUKw8XvX/78bP8fyje5nLrS5C1fJ2/lSZzcPdzdPDz9I0YkRLlGz31psXLlFydqsXlbIufxixYlyumKc+vWbD6Tr9Q3hx+U3/wP3p7h3CZnluUAEM0w7abe0u0eOplbI/Ng0NQYtx3RPxEt8AjjeW81ZJMpIwRB3PN6bvolxiwGAKr9Nf7uX2L1ZZXVyVkFm46mvro1J49FYk/XaL7ZWzp4uQTzQF+Y8126sqb1IPydd8tYV60FoIR+TrxW/4jkznbtl2C3qEaWQUKRAAHW6W6/o4xZDmNADNODq3NyRiOHARhe+zkfPAYAc8YOnnt1yaJyYkN9ZUFm2plDO3/97N1VOwqNIBoaF3rHi0xdbYnsQmMCbMCQsXPD8dyWQKRjXJ2yjgMk8/JsnQ3l7OPTPtveaPkOkTXjCIIgAKAnYxFOW67CQNn6y9pc6JDI8b5o3/vDpNLbZ16bwACPCUPdQtpeBPTVygIDRogR3g4STNwSCXg0AuCMbLuVqET2Yod2VeTUlwq1LDAxI8ImSpvukZG9e8AzYUJdu5UezKhRNzHu4WEyChtKC8tbrqdGRaWCA8rNu+1jJ2QXOGrSlEljhzpakDurqKrmgHbz9RG2jsOE3n5uNODqSoUFDyBMLyeS+MYljh49IsCh7d4syS1uBEQJhXyzt+QL+ICA0+kMbfYdEjm72LdrH64sPaOKQ/yIWQsT3ZuWjqXtgmctGCvTt9vvvdHybTG2SALA1XNKsrgIQRBEj8YiqtPZ9UYkHJ8YHCdpThbxbMePjV6SNPRvvoLboxWIDo6OWDI5etkYD6+Wx/yI5x/pE8dHuFFd3DILxNQtcXV1fT0GgZf3/S4tQ/BI7OT9wvAh0P50z12/kHVMhSk7t5cenbj2iaRvnpz041wfXVF1+/F402vUHbTEZ+zi56Z5Ulh5/vjF22t4cYWpqSVGJB09/+FIafPjI8R3G/XI84sfWTAr0rH9TFtTcEXnz5eyYDt8/pNJPk1Vom19xj0+L14MbElqarEF4yJmlJPvP3Hx4qdfeHb+GPeWWIgS+4yfFCFGWF1a1mqtMdO2xMriYg1G/IhJk25HV0jkdd/CmSF3FNSYt2/T2SoOOY1Y9P5Xq1d99OF/v/7kjYn6jMzG9jFoL7R8W/Z2FI3AqMYqEosQBEH06HwRnHfh6kaP+EfdfVc84VFRo6njGKchYkceYuvLfjpVensxU9xwLKVw6v0+nsGRXwYMrdUY9BjxBXwHPoWw4XJq/lXW7C31RXkbC12f95Y+Ou++cWXKQi0nlNiHONNZlysqHT292hVUW/7NHyklowIn+ti72AmRsvbQkayNKs8v2s9UNLlGZrNLePbjcD0AogV2DhI+jXBj4cHvN19q/bopW7jvp51DX58dNOXljxOrSsvrOYFULrfnI7b6/MbNyfWWXMaa03wwcMTjK+PmqZQaJHaQCGiEtdlb1+2/adG8TJPLiavP7j46znei28in3otbUFer1mOKL3GwEzAINNf27M80mL2l/treHemxCyNCZq/4NCEnp7SeFQzx9vfh5/x1UeE61r1tQbHqwtqPPi2b+0BipK+T1Akqsk+s27Sjetx7SZbWyFIO9hQFUKfiyJs0BEEQ0MNzVw3KP7adyosOuD9EFjTE3hlYZV3t6bzi7ReLsxvanL/Vhdfe/KNuTpznSHc7F4mIRtig0xWX1Jy5nLMtu82PqJu6JafZv/tMbWzgrGCZv6uTHBuqFNV7DmRvrXH5IKqDkrJqxZaDii2tG8LLq4PtTK6ReRAtdHAWAmDMGbS1RdlXU47sPZxW3n6CrC5v9yfv3Jw4c3JCpK+brwx0qsrs1EsnD+w/lV9v6YzHxtxdn7xTNOn+CSPCfV0cHECnKk5PTz6051BapcVvdJhaTqxJX//RR/nTpo2LCfaSSZ1oxBkbVWU3si4c2bkvtYyzYEuu/NjX79VNmz15RJi3f4Qzp60uyjz83bZ9JXFvTOigpGxt+t4f0ve2+oQJ6+iJS2+0fCu2IoQAGnWYDIsQBEEAAPLy9mv3kdTJubqq0iqlsSKeT+TPszxFlVlLN+UWk0vEPYOJfPqzV8YKCzav/GB3WV+90uIzzWHDHAbKGt/8XHOC/CANQRD3PPKj5QAAQAsTQmRihBtqNeR3U+8hjCwuIUyEcGN5mSW/dGipwjMNf9UALRf8999D9v7b8fdnBC7knRqCIO5h9+iPc9Hy4P9M82h5IYLH50t4CAx1uy9VNlq1YESvogMeevuFMS2v2PBEdmI+DbqCvw5d6csVZLg63XsfcRkzhDMjeD5S2r4O3aPHIUEQBADcs7EIonmOtoJbL+Vio15XWFix/9yNfRVk5anBDPHE9o6OzTEoxkadsjQ97eiOLUfzDV18s6cZlYZNvxk29XGuBEEQ/RKZL0IQBEEQhDWR+SIEQRAEQVgTiUUIgiAIgrAmEosQBEEQBGFNJBYhCIIgCMKaSCxCEARBEIQ13e2dXrncs0fyKCsr6pF0CIIgCIIYfMi4CEEQBEEQ1kRiEYIgCIIgrInEIgRBEARBWBOJRQiCIAiCsCYSixAEQRAEYU0kFiEIgiAIwppILEIQBEEQhDWRWIQgCIIgCGu621pnBDH40F7Cr58VuLQKwm8eVi07zHLWKxJBEMQ97p6ORZBA9tj9UTOdqaKrl94/UVVn7fIQfQDxKBcn2qNVLNIgQsh65SEIgiAGRiyCbBzGRzs7Q/2p82VFPXcDS7u6TZELBAgCwtyDT1elsD2WMtHXhF68uU/yo10AARTv1H6xn7trP+EqG55eqUkne5wgCKIfGBixCPAdxscHhkPZzQs9+ds2bHnpgVLZdGeqJKPkOrksDVQIeSbxH5vNyBjQ64FnY+3yEARBEOYZILFI78CNil//PPKrtYtBWA4JqcSFgplRFG3g0jbpMrwFjyaQBy4EQRADC3mPhhjIKA9eUiTFVRi3fNLw2wm2AVu7QARBEITZrDYuwtjKpo/wG+9t7ybm2VBg0OnKKxUnL+fsyNXomjexmfjAhCU+raMl+T/+PuP2X5xy7a9ntimbLj/INSbhmzGO+qwLL6TZ/G20z0i5WIKMCkXN6bQbm2/UN97+GgoZk/RRjLh1uuprqYsOVRraFZGyX/jo6IccdXu3nz4pDXos0iVAwmBdQ+7Noj/O5qXVt7/s0RKnBxMCJnrbO/NBraw5dTFrU73X57O9HRQ3Xv09+6a5V0nKd+77K2fIVUc++Veyx9y544f5SIVYW3Xz6sldW/dl1NzxSMnGKXzc1HHxEQFuUhFj0CiKr188snfv2UJtS8ZM6OOfLRuHj/+4Xjd6/lh/W3XOkfU/HDAkLn5scpiMK0/b+cPawwW61mnynCImzJyUEOXrai+AxrryvKtn9+85fFXRvqWsCOOKFN2ezYbSxq63JQiCIPol2t7Bsd1HIrG4QasBAInEvkfyUKtV7T5BQpe/zx8+x1PswMMajU7ZyHI8gcsQ+8hAt8DGypMVegwAQHn4uoeKuEYD22gEhkdRwGm0eq2BbWz6T6+9nFGa3XzxRLZyzxneQk4LntFeflrl1dK6SiPfRz4kKsBtqLHqVJnu1tUb2cvd44cgnYFtNLB6TNvQyFBVuj1P036yIxJERXqFCjkVPeTBUHFVSfU1RSOycwhxdxobICq6UVHU6pKMxK5LH457wEMkYbC6vkHN2EaHuHlyBqmzrUBbfSC9xuyXdJBj6PikIIm+nhcyNVFefSP9RlEtkvn6B0WMiHMuS7nQ+uKLRMFzXl/++NgQN0ch1tbWapCtk5t3cNyoaMnN1CuV+qatKKeoKaN8hBI7VHQ++Xqja/iwuKhQ/yHGzHPJhTz/mGFxoXTGsWu1t5qB7zf9tRWLk4KcRfrq4sJyFbZz8w+OHJUQbMxMvaHsJ9NrcB17+RKnMjb/KYu0ifFE9dcNyTm4k+CPGmLz8GieRGvcedRQSYZRCIIg+gGrjIsg5xC/JDtkUBR8vCPzgpoDAKBsQuJi30kYEjnMM/BqZhYHAIYT+4+caPqCxOeDJ8LCoeLrny6euetV0MbVtnrf8Y8LmqIZ5Bwc/dEUt7D4kKTrqYfUTVcenJt8+snk5pK4x436arTDXQvLC5NqP12fnKLBAIBsHP42e8R8V7eFMTeTT9beKgsVEhOSZIe4+rI1O68cVBgxIAf3gGVT/MTdnbxgG+xeseafqy4pOQBAQr9Zy96c5T9y7pS/0jbl3Mqd9p2xeLqv0Fh+esN3v5/KV7EANs7D/7bkuSSP8QumnVmxOed2myGm4szvW4/VYabcIeSNJEnxoXW7Mo3oEue/amFQZJT7ltybHAAA7TVt8YNBIn3Bvm++/CO91ggAtEP43KVLpwTNWTT1yns7Cs1+n4k/8qWvXozldfKvhvNrlnyZrOvkXzvFQj+JigiCIAhLWWe+iJO9kAJcdONmmvrWFY3TZ1248PIvx/++Pa+gO2/t1pTsuqm/dbuLK29k76/CyMYxxo22OMmcq9mpmuYksV6542JVAyAX9yHyljiDsh3mJaLAePFc+kGFEQMAYGVJznfpmu7HevlHt19WNrcIbsg7eOByI6ZkwSHOLbsOCWhF6v69O9d9+/PxfFXTpVlfmbp52wUtpmShoa3X9QLMadUaDABcvVrLgVat4QAAa9RqDJTY1rZ5W8o7Pt6dwdWnNv3ZFIgAAKtM37b5ZDVmPOJHeFnQcXBjXVVlp6rqGskoBUEQxD3JOvNFatU6DEJ3X3nAlZwbuluXIFZfWavvZsoGlVbR+pKGtcVKDjtTDmIeAqMlFztsKKnVtf6irr6hDoOLwMYWATRPVuE7igC4hrwqQ6stcVmFSo3tbS2pRwtNRbmqde76mup6DDKx5PaIC9ZkH/0z+45v6pU19RiEIlvTx2Zub8hInaQUcKWFxcbWGxiLb5ZxIJU5y2gwO2TUX1r/9iUzv0MQBEEMflaJRXDp9ZsXhtnHy4NWLfbMK1cWVKtvKupulFTfqDN2cyUzjmsXb+C8jGvflSJlqcXzLXH75cExxhgAtV6sE9EUAOD2pWc5I3QT1y53jDEH7XIHAGDsfMKjh3o52QkYqumfkH2wxOInRIimEAJKHv/QQu/WdWBc5RQgTNPkBSyCIAiih1hnXATXF3+6hX14VMBEHzt/L2GAV9PHbFlezjeHc69qe3CwHlcUFu4t7Ln0+iPaeeTipYsS3fgdhB7diu0op7CkiWF3fk6maBAEQRA9x2rv9DbWlP26u2w9beMqlXgNkfjIncYGO7n7Bb2JdEt3FVUPsKkDTWMniGk3WkBTfdC+yHn8okWJcrri3Lo1m8/kK/XN4QflN/+Dt2c4dydpw8XvX/78bENPlBIAbKIfXfFIWKdzV9M3fvDrle4+oyMIgiAGHiuvu4pZfVlldVlldXJWwbaMoI/nBfp5ukbziw4PrNUisK5aCyAS+jnxUFXLzFkkd7az7fVFQJFdaEyADRiu7NxwPFfdUzEcZjmMgWIYumVSTLchgYOr3LXTWKRESBZMJQiCuCdZJRaxCQxw9uJxJYVlWZrb1zl9tbLAgP15jJCHoN07Fbh5tQiqf16uOPWlQu08mThmRNjEiqt/VRsxIHv3gGfChDoM/F7OnC/gAwJOpzO0aTMkcnaxt7i5jIpKBQeubt6evJOZtwcrkF1gwgg/sa7w/MnMWnNDFN25b549Z2mBCIIgiEHLGlMQER0cHbFkcvSyMR5eLVMcEM8/0ieOj3CjuviO+SK4sVFhwEA5xHrz++WkSe76haxjKkzZub306MS1TyR98+SkH+f66Iqqe+r5RuewsrhYgxE/YtIkn5aRBSTyum/hzBDLU+UKU1NLjEg6ev7DkdLmgBXx3UY98vziRxbMinTs9pxcgiAIgmhmjXER3HAspXDq/T6ewZFfBgyt1Rj0GPEFfAc+hbDhcmr+1TunRhoVh65pxsTY3jdzfEKDoekVW05V+O8/bmSbOzmTcV3yeHjcrdVGKMaGAhAHRf/gc2sNj8bS1RuuXTZzeibWln/zR0rJqMCJPvYudkKkrD10JGujyvOLDmZ+9jD9tb070mMXRoTMXvFpQk5OaT0rGOLt78PP+euiwnWsu4WpsoX7fto59PXZQVNe/jixqrS8nhNI5XJ7PmKrz2/cnHzHCvhWQvvZLH2G1zL+wwgRAMgnC1eOAwAAjM//qN2dY63SEQRBEKawznwRdeG1N/+omxPnOdLdzkUiohE26HTFJTVnLudsy1Z3FAawGWdSPjaEPhIm8xHzm27/OSNjSekRJRbxHdqtfMbwHG6lhSmLkgVg1YotBxVbWqfq5WVRSmbiyo99/V7dtNmTR4R5+0c4c9rqoszD323bVxL3xoRuJKvL2/3JOzcnzpycEOnr5isDnaoyO/XSyQP7T+XXd/PN6x5EI7EESdoOltECJBEAAAAG/j39S9QEQRADAvLy9mv3kdTJubqqEgDkcs8eyaOsrKhH0hlweD6RP8/yFFVmLd2UW9xPBhLueYy/ePMbQjdFw9MrNenk5WSCIIh+gNw19hpamBAiEyOsrdUoSCDSz6Ahgg//ZdM0KbfgqOofR9ovaEcQBEH0GRKL9BhaHvyfaR6Ot6Yu8Ph8CQ+BoW73pcqB9YbyvQAxSO7a/KBOL26/iC1BEATRl0gs0mMQzXO0FUibL2vYqNcVFlbsP3djXwW55e5HjLmaOc9prF0KgiAI4jYSi/QYY3H64i/TrV0KgiAIghhg+uVqHQRBEARB3DNILEIQBEEQhDWRWIQgCIIgCGsisQhBEARBENZEYhGCIAiCIKypL96jkTo504IezqiyqLRnEyQIgiAIwnZzvAAAACAASURBVCrIuAhBEARBENZEYhGCIAiCIKyJxCIEQRAEQVgTiUUIgiAIgrAmEosQBEEQBGFNJBYhCIIgCMKaSCxCEARBEIQ1DfZYBCGPIH6sk7WLQRBWRTnxxgfRYmTtchAEQXSkL9Y6sxLkOUy4dI5wjAsc+p/+QhW2dnkIwmoYD8HKF/i4Qr95m2btRbbB2uUhCIJojbZ3cGz3kUgsbtBqAEAise+RPFiOpZgeHoDRqOrv9s80Ne4R+88f5gfaQkmWbuc5fba6Z/O/hyBx2NzXVyx9bGaMpDgto0Jv7fIQFsAIuciZQB9efJwg0Z47m8GqB0twPvj65+CrEUF0aTCOiyAq4W/2HyTRtFL/vx/V669zxu4kJvYaMWXGuNgQTyc7HqupKc2+fHr/vuPXlWyPlbdvMFHPrn45sc0oPaf46z+vb7jeRU1o/4SkAEc+Ap8xo/z/uHLJtNZkhj6x6vUJ9qU73lu5pZCzsMxI6DdqUpQMl6TuSSm1NBGrs7jlexBXpvv4M90PIaJ/PiUaOdb2C4yf26Cv7dtwpJf2pmX9sz/r4xr1h/5prq77EuU79/2VM+SqI/9dtj5zIPQJoRdv7pP8aBdAAMU7tV/s5wbsGc8yg3C+iOMw8YqxNKPRr15dv7abgYjj8EUrVj5zf0KgXII1ynqjwMk3dtJjb76zdJIHr8cK3EeMDfWqOlXzfxodZ+qFiM07ezy7pkFXV3DyTG4fn52E/qPvn/3A/fFuA7qfWtryPU6RpX19tSZFg3zG2r4STfX17JHe2ZvW7J+9o69r1G/6pxkGx5mhGUKe4wSvLOMPcwaDHgZC8/eGQTcuQjPzZ/FlCKds1/xZ1r29ihwTFi5OdOVpc/f+9N22S5U6jGykYTOfevaBkIj5T0xK/2hv2QCKXI0Zvy5/5dfmP+iAeR+umGralF6sztjy0Stbeq9kg53FLd8b9KUN/95hs2EBb9IDgg2XtdcHUA/uxODrn31co37VP+85SEglLhTMjKJoA5e2SZfhLXg04d6cYj4YosrWeH78aXLAdboN59hunmbRkLjECBHos7Z/uymtUocBAOur07d9/+dVHdj4xMfLB1vj9SR8z4b3/V7Z2YbDKmDk/Gl+1i4KQdzjKA9eUiTFVRi3fNLw2wm24d49bQ62cRGPIJ4TBZrr+ku6TragPGe9896Dnurjny0/6jBrzuT4QLmE1tUWXzuzd+uui+W3J4rRLnKZUd9QfDWzpnX/wHXZ18u4SG+Zi4yCEs68NE0min3u0xdHCoq3r3x3R1HboIr2mfvhipnyhnNfv7Em9fYLETZO4eOmjouPCHCTihiDRlF8/eKRvXvPFmot69y0//yP35rq0ircwppTq1/9seOH14xT9PQ5948K9x4iYOtLs5L3bNxdhzse6+2ynEgy5pUvnoxs3TPjX/z+l9t/sTmbl3+wv7JVq/CcIibMnJQQ5etqL4DGuvK8q2f37zl8VWGwqOqAnKf+84P5/oazX751UPLAQ1NiAlzEqLG2ODP1wNZdqSW6lnrRIQtWvTnRsXLfh2/9kXd7MJ3ym//B2zOcq/evemtDtmVj7CbXiHEMGz9r2qgIP1cHMY/ijI2qyoKMlL92HrhLt9MZTmbh+0fQMUE0ldOtkL3r3M3bmya3vOn9s2XewCf/SvaYO3f8MB+pEGurbl49uWvrvoya9ruHHhI+Zc4DiRE+MhFoK7JT9m/cWX3fu69PsCva+u6724vNaywm9PHPlo3Dx39crxs9f6y/rTrnyPofDhgSFz82OUzGlaft/GHt4YJbJ6reqlGvMKV/9njLW3BmAAAQeo2dM29KnL+zGPq4lUyCcUWKbs9mQ2mjtUtiZYMsFkFuzjQNUFLGdhaKtGzpkPDMa1EuxelXUm6K3YdG+g+f9WKw9y8ffnGisrmbGq/98sYLv3TwVT7fBgHoG3Xtr7Vdp2ky7bXUy5oRo9zjhrvvKmoTjFCeMTEuFFZfTU1vCUSQKHj2sldn+IkQZhtVNdVqGweXwPgZgdHRAd+s+vVqvSXhCNtYr1IJms6MlI2tWNDpKBAlTXxu+dMxDhRgfX1VTaM4aOJz/3A8mHlnrqaVk9Nr61QqBgAA2YhshQwYtPXa22dkVqPHrdLm+01/9fW5wWIw1JUX5ZSAxNUjPGleeGz0H5+t3l3QVT+4CySJf3xpmHNxxuWzuULX4PDguOnPh/pLP/psX6GFQY6JTK4RksQ8vnzJaBkNXGN9bZWSo/i2jm5DE2eHRAf99v7qw509Q8RFZSwLjLsLzQBr8WsapuVu5t5sTrnrlje9fzYlKUt6fkmoXUH6hbM5Es/QyMDRD78S4rHmgzXnlbdzRw7Dn3zrxQQZDVhfX1WlEfiOe/J16cns7o2ZC8OTYpNT9u1Xjp8+csbTrwTmFl45vKMketq0+EdeqCl4+49cY+/VqFeYd8T1YMtb0pfshj/5alIELi8tLdM7u7kG9VkrmYjN1/+UA/0nNLKeQRaLgFgACEDT9UiXKMRH/dPKL1KbAmQb94lLlj8SHjV7VlTqDxfvuvoC7RE9zJXCmuuZhe07kMVpdqDhWsoVdcIot+FxnjuKbra65/aMHeZKY/WVlGstSdK+MxZP9xUay09v+O73U/kqFsDGefjfljyX5DF+wbQzKzbnmN/V2YId7722ozlP1+kr33/Yt5MtBWGzHo5xQGzFmXVfrTtT0oCBtgu+/9lFE4TtT+GmlRNrkte8mgwAAGjIpNdXLQzBaWuXfX2+40nItNe0xQ8GifQF+7758o/0WiMA0A7hc5cunRI0Z9HUK+/tsPglHrAJ8Kj93/JvrqgwAAAtG/n8m8+MCJo1L+Hcpyd68RUU02uEpAnTR0opY9HBb1ZvvFJrBACgJP4zl772YPDQyeP8jv3e2Y7XNGAMwBegbjxmNC138/ZmMxNa3vT+2cQ22L1izT9XXVJyAICEfrOWvTnLf+TcKX+lbWppJCZg6ryRMgpXp/z6xU8nirQYaLvgWc89M0VkcSMBAGIqzvy+9VgdZsodQt5IkhQfWrcr04gucf6rFgZFRrlvyb3J9VaNeoO5R1zPtbwlfUk0NJy//6NX9+WoOQAb18RFrz01wsnSVuKPfOmrF2M7e2vBcH7Nki+Tzb75YUkg0mSwTXlATdc/E64UN49tPd8yUqcvObbztIJDdqHh3vTdvkW53DdvkgcyFh87mKbtoTQ71ngt9Uo9plzj4jxb7STaIzZWTuH6K8mZLUN6SEArUvfv3bnu25+P56uastdXpm7edkGLKVloqEuv7mTaOzzUHmF16uZ1p0uaYkBWdX3nb6drBe1ikd4oJ+UdH+/O4OpTm/5sOi0CAKtM37b5ZDVmPOJHeFled4RLTh9KV93qSqwiZduxQhbxgyKCBBYn2jUzakRJnaQU4kpSjrZsCVx97t4v31n+jxWf7SvqPAprvntE0I07fstz70qvtHz+0e2Xlc1lwg15Bw9cbsSULDjEuaU9KbewMBmFdVe3/3KiSHurJ+/47Xgl3Z2BEcxp1RoMAFy9WsuBVq3hAABr1GoMlNjW1uIe2nWNeoP5R5zVWh4AEKM4uaEpEAEAffnpjbszDBa3Em6sq6rsVFVdY/8YahmgBtu4iMkaKsrbDNKxVeVVHMhsHewZ6CxQRaLgOS/MHyo0Fu9buyf/zmjckjQ715iVckk1aqxLXLz39oL8pq9T7rHD5BRWXU7JvB1/Y0320T+z7/i+XllTj0Eosu3dlb9pOwc7BGxp/s3Wzzu5qoICDfaxbb1lb5STkTpJKeBKC4vb7A5j8c0yDqQyZxkNBRZeFLFRUVHT+rtcVVmFEfswEnsxgl6bY2ZGjXCdsg7DEHlUvM+R7XktE26M9Yryu64E2DN6L/feaHlNRbmq9Rf1NdX1GGRiye1eR9nZ21GAFYVFmlZbcpX5BRrsI7Yk065149A0oUa9wewjzqotj7WFBRWtioM1pSVKHGlhK+kvrX/7UneKQ9zFPRuLcO1XkuE4DgABRXUWL/O9p7y0dJq3jTr912+3ZXc0FGd+mnely0q5XDdmrHPccJ8t+bksAFDuccPcaFyXdj6rff6MnU949FAvJzsB07xuBLIPlvTBy2GIphACMBrbBVss22H01cPlbMqdksc/tNC79bmRcZVTgDBNd+MekWs/+Za9efK337LpumyN5Yl2yYwacRXnDl+d/HR0wIPLPxlTmJtfVFpcUnQz73pmXlVD77+r24u590LLc+3m6GKMOQBAqFXXo2kKALNGY9vcO+nJ1mZKjXqB2UecdVveaGh7z4ibTtK93UqE+QZbLNJrd6vysc+99tBQW13B7m++PVzWN+v46bNSLynHjHOOifPbmpttBNo9NtaNwspLKdfbTDiknUcuXroo0Y3fwfHVn9aP6LVyUk5hSRPD7vy8h68hnCLj2JGMnk2zE6bVCFefXLNKP3POzDGRXt7hMp/w4QAAWFd5edfan3dlqXp3yLgPc+/DlidM0UdHHHEPGWyxiN4IGIBv06NRLyUd/uSyx6IdjKVHvv38zxuaPnsqqL+RelE5doIsdrjvluxszi0mxo3iai+ltglFkPP4RYsS5XTFuXVrNp/JV+qbL+vNb5b2VVm71IvlNFz8/uXPzw6mH3wzuUa60uQtXydv5Umc3D3c3Tw8/SNGJES5Rs99abFy5RedTrHl2zSNZeFuXjssy72/YlkOANEM0/bsQdMWTPca5Hr4iBsgLW8T/eiKR8I6nbuavvGDX6+QXw+y1CCbu4qrazgM4OJEddWJGaZdGMbwGAB853MWZBexYNlTCU5Qdfan1euv1N3l/GpymiYzZKek1XKUNC7On6HcYoe50VztxdTs1q+UIrvQmAAbMGTs3HA8t+UC33cwy2EMwDDtWrz9eaR3ytmUO2KY7k5ys4zRaIQ79ztiGB4AsKzRgouxRTXChvrKgsy0M4d2/vrZu6t2FBpBNDQutPNH4nInigJQ1PTMT16Ym3s/xdUp6zhAMi/P1kWnnH18BlxVelFvHHEDpeWRwMFV7trpf453vDlImGGwjYvkFxi1mB4SyPOnDFl3OdEigY+/B325oOW+kO/t60YDrq2ta/38BYkCZ7/6/Hh3Rnlx3eofUqrvehtpYppmMWSnptWMmzgkMsr3pGaYO83VXEzJabu6BV/ABwScTmdoc+VDImcX+86ODcyyLAZEU93/TRJWpVRhkMp9vARQ3XKjRDl5e7c7j1hUzuYlsDp999SoqFRw4Orm7ck7mXn7lgTZBSaM8BPrCs+fzLzj7hzZBs947KEENyg9+8e6/Te68YO1nKJSwWJnB19fKbpReSsdSurnb48wq6iouTPpLlve9BohiW9slBvfUJGRktNqzrS+JLe4EbwFQiEfoMOfp6aY2ECKwvhGAdt5x+yqlSzIvcu9aV1cWXpG1f2eLhGzFibm/3iqpLHp7fQFY2V6DDYdf6fn+lI/0YP903QWtLxV+pLu3DfPnuvD/O4t/fOsYDlNlj65AWhXwYMhd73K4kbR8AVzI4c0xWJ814RHHh4pQbj+2tVWa3nYeE1ZsmSmv0CdsWn1/06WdxVQmJSmuYy5qRdqOEoWPmpsmAfFVaedz2k3GUtZXKzBiB8xaZJPS1yORF73LZwZ0nlRqysVLEZ24QlRjt0cBmULrmYoOSSJn7cwwa3pNV5aEjhzQZJz21EBS8qJNbU1Ogy0b2S4Q8c9lStMTS0xIuno+Q9HSpsDa8R3G/XI84sfWTAr0rGDfUZ5THh0bnyAp0fAiLmPTXLvzhGA6y6nZDYC4z/jyRnB9jQAAOMw9IFFM/wZaMhMvtzBlIkuW96MGvH9Jy5e/PQLz84f497SopTYZ/ykCDHC6tKyTmZsiEIEU12Ba9Afzer8otF1K5mde9d708qMefs2na3ikNOIRe9/tXrVRx/+9+tP3pioz8js9F3NHuxL/URP9k/Tmd3y/b4v9SrkeN+b3/30y08///zhw36DZjhh0FSkGVbrN5xgk6bQM+eJDq7SdLrEGNZdSy2PXfrp2LrKWr1Q5mzPp4BTXd626+rtb1Duw8eE2CLM8X1n/L9PZ7RLgVOd+Xbl5tY/q21KmuYz5qVcUEya7DF2rJHBigvn89of7Ppre3ekxy6MCJm94tOEnJzSelYwxNvfh5/z10WF61j3jqtff+HgyRlh453HLP3vCK268dY6AcV7Pvl0fxkHYBP75L8XRd16MkrZ2FIAovjnP4lsHpPB6nPfv/PbNSMA6DJ2bb4Q+Uyca+LT7w+fp1Bokb2T1JB2NL1h/IjWj1YtKac+48Sp8vjJ8lF//yxWo2l6sMMpjn714db85kEvtnDfTzuHvj47aMrLHydWlZbXcwKpXG7PR2z1+Y2bkztYchbxBS2TZ1v9r0Vw7elfN0a+9XhM2Jx/rJ6qrNEgyRB7IQ1Gxfn1G850dH/YZcubXiNcfXb30XG+E91GPvVe3IK6WrUeU3yJg52AQaC5tmd/ZkerwyIh75l5fFcEBScajnU4atK8XVetZEHuXe9Nk5nRP82AVRfWfvRp2dwHEiN9naROUJF9Yt2mHdXj3kvq5As92Jd6p0Zm68H+aVa25rZ8D/Yl66L9bJY+w2sZGWaECADkk4UrxwEAAMbnf9TuzmnzFSQKCvOjEWB9zrFjHawtMUANtlgEAKfvUW+KsFvgLly1BK/4Tpus7GgrhHSZv39aoJo3K3Gou4RqqM6/dmbv1p0XOlisHVE2Yrs7BwoxCNvNtDIjTXMY885frJw01dWGx1VcTLkjFAHgyo99/V7dtNmTR4R5+0c4c9rqoszD323bVxL3xoTOEsXajN/++2Xdww+MDfeSSuya33BjbQXN90KIJ7Kzt2s3S8tG1NIOmBK2dB1cfeb7f2uK58waHeEtlUqh9PrhHzbuVk58b3z3y6m78ed//69xwQNjwz0c7AQIAQCnE7RpeF3e7k/euTlx5uSESF83XxnoVJXZqZdOHth/Kr++o9MSm390++nQBQlyKE3efji/m7M32YqT//du5fhZ0xKj/OVSR2ioLbiYdmLPnhPZqo7PiV21vBk1wpr09R99lD9t2riYYC+Z1IlGnLFRVXYj68KRnftSO1gAnrbnPfWs5BF3ZChpWLXHeLdpdl23ktm5m7Q3TWRO/zQLW5u+94f0va0+YcI6L18P9qVeq5GZerB/mse8lu/BvmRlNBJLkKTt4A4tQJKmZf0w8O/Y7Tz/0EA+Aqy+9NdZxYB/KtgCeXm3/7FOqZNzdVUlAMjlnj2Sh96oowU9fBxVFpXe5V95TvwVr9hOdUZYyx4/2bDxr8a0lojk1u/YHfv01V8yeiimNDVN2mfKS/OG2XZ+vGB12u//O2Dp6lwE0QnKgTd7gmDuGL6/GAyVug8+r99fZe0yDRBM5NOfvTJWWLB55Qe7O/uBn35pwJ9tBmzL9y464JEP35rmDJWH/vPW79d796ex+tLgGxcBADBU6d79iLs2X/xsPHPfZLE+V5eWdsfcu17It6s0kcglIDjY4S5nh7pSMdW/FgUhBgPGV7BkCl+Ice457cebGq7c5ekM0Roji0sIEyHcUF5WM8AOywF+thnALd+rKNehQ6UUNuYdO5Y9eAIRGKyxCABwasOmH5V799lMG2XD9PKiTyYzXvtl6VMd/fQvQfQqTmU8eNB44kzjmVJMTux3QQc89PYLY1oe3/NEdmI+DbqCvw5d6cZPPlvFADvbDKKW703IIXioB4UbLh85WT64juRBG4s0qS/Vb/6TrD5D3OuMuQ3/zrV2IQYCxBPbOzo6Nv/EJjbqlKXpaUd3bDmaP6juQfsh0vKmQKLgUF8a1yYfPn+3pa4GosE5X4QgCIIgiIHi3ns3myAIgiCI/oTEIgRBEARBWBOJRQiCIAiCsCYSixAEQRAEYU0kFiEIgiAIwppILEIQBEEQhDWRWIQgCIIgCGsisQhBEARBENZEYhGCIAiCIKyJxCIEQRAEQVgTiUUIgiAIgrAmEosQBEEQBGFNJBYhCIIgCMKaBnssgpBHED/WydrFIAiropx444NoMbJ2OQiCIDrCWLsAvQd5DhMunSMc4wKH/qe/UIWtXR6CsBrGQ7DyBT6u0G/epll7kW2wdnkIgiBao+0dHNt9JBKLG7QaAJBI7HskD5ZjKaaHB2A0qvq7/TNNjXvE/vOH+YG2UJKl23lOn63u2fzvIUgcNvf1FUsfmxkjKU7LqNBbuzyEBTBCLnIm0IcXHydItOfOZrDqwRKck/5JEIPAYBwXQVTC3+w/SKJppf5/P6rXX+eM3UlM7DViyoxxsSGeTnY8VlNTmn359P59x68r2R4rb99gop5d/XJim1F6TvHXf17fcL2LmtD+CUkBjnwEPmNG+f9x5ZJprckMfWLV6xPsS3e8t3JLIWdhmZHQb9SkKBkuSd2TUmppIlZnccv3IK5M9/Fnuh9CRP98SjRyrO0XGD+3QV/bt+FIL+1Ny/on0aI/9E9zdd2XKN+576+cIVcd+e+y9ZkDoU8IvXhzn+RHuwACKN6p/WI/12G9bJyZMZN50SGUzA6BDisKjZeOG05e4QZ+DD4IYxHHYeIVY2lGo/9sdf3msm6dbpHj8EVvPJfoagPY2FCnrGckTr6xk3yj46M2fPr1oWJDTxW5Txgb6lV1bPMZh+HbivimfY/NO3s8O3y8N11+8kxuH5+dhP6j758dglNK9g3gWMTilu9xiizt66vxp6+LR4y1feWa8l9pXJ9GI72zN63ZPweHftM/zTA4zgzNEPJM4j82m5ExoNcDz6bTDUUh/Oee5XkIgNPj6koO2SJ5CM8thIk41PjdDlY7sIc6B10sQjPzZ/FlCKds1/zZvUAEkGPCwsWJrjxt7t6fvtt2qVKHkY00bOZTzz4QEjH/iUnpH+0tG0BHgTHj1+Wv/Nr8Bx0w78MVU02b0ovVGVs+emVL75VssLO45XuDvrTh3ztsNizgTXpAsOGy9voA6sGdIP2zm/pV/7znICGVuFAwM4qiDVzaJl2Gt+DRhE6mmAvoGY/xPPhQcaZx3Z/GikYAhFzj+U88ynhO5E/NbNh6fUAHI4PtPRqeH3+aHHCdbsM5tpunWTQkLjFCBPqs7d9uSqvUYQDA+ur0bd//eVUHNj7x8fLB1ng9CcOAPi4Gs7KzDYdVwMj50/ysXRSCuMdRHrykSIqrMG75pOG3E2xD56dNmyBepCNw5fqNG40VjQAAgHF5cuOmYxxHUVEjaF5flbl3DLZxEY8gnhMFmuv6S7pOtqA8Z73z3oOe6uOfLT/qMGvO5PhAuYTW1RZfO7N3666L5bcfu9EucplR31B8NbOmdf/AddnXy7hIb5mLjIISzrw0TSaKfe7TF0cKirevfHdHUdugivaZ++GKmfKGc1+/sSb19gsRNk7h46aOi48IcJOKGINGUXz94pG9e88WWjhwR/vP//itqS6twi2sObX61R87fhzPOEVPn3P/qHDvIQK2vjQrec/G3XW44wcAXZYTSca88sWTka17ZvyL3/9y+y82Z/PyD/ZXtmoVnlPEhJmTEqJ8Xe0F0FhXnnf17P49h68qLHyIhpyn/vOD+f6Gs1++dVDywENTYgJcxKixtjgz9cDWXaklupZ60SELVr050bFy34dv/ZF3+/EA5Tf/g7dnOFfvX/XWhmzLnhqYXCPGMWz8rGmjIvxcHcQ8ijM2qioLMlL+2nngLt1OZziZhe8fQccE0VROt0L2rnM3b2+a3PKm98+WeQOf/CvZY+7c8cN8pEKsrbp59eSurfsyatrvHnpI+JQ5DyRG+MhEoK3ITtm/cWf1fe++PsGuaOu7724vNq+xmNDHP1s2Dh//cb1u9Pyx/rbqnCPrfzhgSFz82OQwGVeetvOHtYcL2pyoTDiK+YF/W/HGNDeq4q//rvw9q/H2V/0efvutmR6o/PCn//o98y7XtJ5gSv/s8Za34MwAACD0Gjtn3pQ4f2cxdJ679WBckaLbs9lQ2tjFhhJnxEegzmFL2vbxoixWO4ESypAEQc0AvgMcZLEIcnOmaYCSMrazUKRlS4eEZ16LcilOv5JyU+w+NNJ/+KwXg71/+fCLE5XN3dR47Zc3Xvilg6/y+TYIQN+oa7/fu07TZNprqZc1I0a5xw1331XUJhihPGNiXCisvpqa3hKIIFHw7GWvzvATIcw2qmqq1TYOLoHxMwKjowO+WfXr1XpLOijbWK9SCZrO9ZSNrVjQ6SgQJU18bvnTMQ4UYH19VU2jOGjic/9wPJh5Z66mlZPTa+tUKgYAANmIbIUMGLT12tvHH6vR41Zp8/2mv/r63GAxGOrKi3JKQOLqEZ40Lzw2+o/PVu8u6Kof3AWSxD++NMy5OOPy2Vyha3B4cNz050P9pR99tq+wd2cKmVwjJIl5fPmS0TIauMb62iolR/FtHd2GJs4OiQ767f3Vhzt7hoiLylgWGHcXmgHW4klvpuVu5t5sTrnrlje9fzYlKUt6fkmoXUH6hbM5Es/QyMDRD78S4rHmgzXnlbdzRw7Dn3zrxQQZDVhfX1WlEfiOe/J16cns7i3LIgxPik1O2bdfOX76yBlPvxKYW3jl8I6S6GnT4h95oabg7T9ymxvDxKNYl71t3cGIN6Z53PfYrJT3Nuc27T/GZ9rCKR40V/7X2m1ZvRyImHfE9WDLW9KX7IY/+WpSBC4vLS3TO7u5BnWUuzWx+fqfcsCU6wNNIwAw3nnuMYABg5AGCsFAHo0eZLEIiAWAADRdH4yiEB/1Tyu/SG0KkG3cJy5Z/kh41OxZUak/XLzr6gu0R/QwVwprrmcWtu9AFqfZgYZrKVfUCaPchsd57ii62eqe2zN2mCuN1VdSrrUkSfvOWDzdV2gsP73hu99P5atYABvn4X9b8lySx/gF086s2Jxj/l0AW7Djvdd2NOfpOn3l+w/7drKlIGzWwzEOiK04s+6rdWdKGjDQdsH3P7to7h0wuAAAIABJREFUgrD9Kdy0cmJN8ppXkwEAAA2Z9PqqhSE4be2yr893PBee9pq2+MEgkb5g3zdf/pFeawQA2iF87tKlU4LmLJp65b0dFr/EAzYBHrX/W/7NFRUGAKBlI59/85kRQbPmJZz79EQvvoJieo2QNGH6SCllLDr4zeqNV2qNAACUxH/m0tceDB46eZzfsd872/GaBowB+ALUjceMpuVu3t5sZkLLm94/m9gGu1es+eeqS0oOAJDQb9ayN2f5j5w75a+0TS2NxARMnTdSRuHqlF+/+OlEkRYDbRc867lnpogsbiQAQEzFmd+3HqvDTLlDyBtJkuJD63ZlGtElzn/VwqDIKPctuTc5AHOOYl3Ojp8PRLw13WPKY9NT/r29wACM++THp3rz2LIDv2zt7SERc4+4nmt5S/qSaGg4f/9Hr+7LUXMANq6Ji157aoRTu9xNxh/50lcvxnb2KMRwfs2SL5PNvvlhTQpE7gGDbcoDarr+mXA03jy29XzLSJ2+5NjO0woO2YWGe9N3+xblct+8SR7IWHzsYJq2h9LsWOO11Cv1mHKNi/NstZNoj9hYOYXrryRntgzpIQGtSN2/d+e6b38+nq9qyl5fmbp52wUtpmShoS69upNp7/BQe4TVqZvXnS5pOg2yqus7fztdK2gXi/RGOSnv+Hh3Blef2vRn02kRAFhl+rbNJ6sx4xE/wsvyuiNccvpQuupWV2IVKduOFbKIHxQRJLA40a6ZUSNK6iSlEFeScrRlS+Dqc/d++c7yf6z4bF9R51FY890jgm7c8Vuee1d6peXzj26/rGwuE27IO3jgciOmZMEhzi3tSbmFhckorLu6/ZcTRdpbPXnHb8cr6e4MjGBOq9ZgAODq1VoOtGoNBwBYo1ZjoMS2ts35m3V06HN2rd1bZGS8pj0+2YOh5RMX3u9vw5YeXrf1elcj/d1l/hFntZYHAMQoTm5oCkQAQF9+euPuDEO73E2HG+uqKjtVVdfYZ6MSsgTBW5+K33qKkQ6eK/hgGxcxWUNFeZtBOraqvIoDma2DPQOdBapIFDznhflDhcbifWv35N8ZjVuSZucas1IuqUaNdYmL995ekN/0dco9dpicwqrLKZm342+syT76Z/Yd39cra+oxCEW2vbvyN23nYIeALc2/2fosyFUVFGiwj23rLXujnIzUSUoBV1pY3GZ3GItvlnEglTnLaCiw8KKIjYqKmtbf5arKKozYh5HYixH02s2nGTXCdco6DEPkUfE+R7bntUwpMNYryu+6EmDP6L3ce6PlNRXlqtZf1NdU12OQiSW3ex1lZ29HAVYUFmlabclV5hdosI/Ykky7drvLm3l06PN2rd0b9eYs/2nzZiB2aiCfLd3/8/YbvR2JWHDEWbXlsbawoKJVcbCmtESJI9vkbjr9pfVvX+pOcXoIQr7DGKkQIJLx4Rv7Q4l6wj0bi3DtV5LhOA4AAUV1Fmjyvae8tHSat406/ddvt2V3NBRnfpp3pctKuVw3Zqxz3HCfLfm5LABQ7nHD3Ghcl3Y+q33+jJ1PePRQLyc7AUM1HWXIPljSB78/gmgKIQCjsV2wxbIdRl89XM6m3Cl5/EMLvVufGxlXOQUI03Q3bhu49pNv2Zsnf/stm67L1lieaJfMqBFXce7w1clPRwc8uPyTMYW5+UWlxSVFN/OuZ+ZVNfT+u7q9mHsvtDzXbo4uxpgDAIRadT2apgAwazS2zb2TntwbzDk69AV7ftoXtWJW+JzZAGzJnnU7bnRjcpTJzD7irNvyRkPbe0bcdJJuk/uAg3HmEX2GiIZrhqzejz77ymCLRXrtblU+9rnXHhpqqyvY/c23h8v6Zh0/fVbqJeWYcc4xcX5bc7ONQLvHxrpRWHkp5XqbCYe088jFSxcluvE7OL760/oRvVZOyiksaWLYnZ/38DWEU2QcO5LRs2l2wrQa4eqTa1bpZ86ZOSbSyztc5hM+HAAA6yov71r7864sVe8OGfdh7n3Y8lZj/tFhKEo5XzzD249BbOn5s/l9EYnc0kdHHNEJdZb+56zm/7dgAkC/NNhiEb0RMADfpkejXko6/Mllj0U7GEuPfPv5nzc0ffZUUH8j9aJy7ARZ7HDfLdnZnFtMjBvF1V5KbROKIOfxixYlyumKc+vWbD6Tr9Q3n7ia3yztq7J2qRfLabj4/cufnx1MP/hmco10pclbvk7eypM4uXu4u3l4+keMSIhyjZ770mLlyi86nWLLt2kay8LdvHZYlnt/xbIcAKIZpu3Zg6b74GxvwdFBuY5/dLovbVCrsdhzymPjU/5zqKyvYoEePuKs2fJmsIl+dMUjYZ3OXU3f+MGvVwb+WuzWMnhmvgAAAK6u4TCAixPVVSdmmHZhGMNjAPCdz1mQXcSCZU8lOEHV2Z9Wr79Sd5fzq8lpmsyQnZJWy1HSuDh/hnKLHeZGc7UXU7Nbv9aF7EJjAmzAkLFzw/HcllNY38EshzEAw7Rr8fbnkd4pZ1PuiGG6O8nNMkajEe7c74hheADAskYLLsYW1Qgb6isLMtPOHNr562fvrtpRaATR0LjQzh+Jy50oCkBRY3HH7Fbu/RRXp6zjAMm8PFsXnXL28en9qph/dNDyCU/MHSpkS//66uuDxawg5MEnJrn1waW7N444a7a8OZDAwVXu2ul/jne8OdijWBYDAHNnKMQDHgJggR1gsX87g21cJL/AqMX0kECeP2XIussRjQQ+/h705YKW+wi+t68bDbi2tq718xckCpz96vPj3RnlxXWrf0ipvutth4lpmsWQnZpWM27ikMgo35OaYe40V3MxJaftG+Z8AR8QcDqdoU1XRCJnF/vOjg3MsiwGRFNUt48eVqVUYZDKfbwEUN1yo0Q5eXu3O49YVM7mJbA6fffUqKhUcODq5u3JO5l5+5YE2QUmjPAT6wrPn8y84+4c2QbPeOyhBDcoPfvHuv03uvGDtZyiUsFiZwdfXym6UXkrHUrq52+PMKuo6GDloS5b3vQaIYlvbJQb31CRkZLTas60viS3uBG8BUIhH6DDn6emmNhAisL4RgHbecfsqpUsyL3LvWldXFl6RtX9ni4RsxYm5v94qqSx6e30BWNlegyd/EZIj/UlM48O2u3/s3ffcVEc/ePAZ3b3CnccRerRkS5FBERRRGNv0aiJRhMTYxLTHn3Mk5/JYx4f88SYGL+J8Ul70ouxRE1ibzF2rKCidKUqHY52cHBtd35/gEg54O44PMDP+5U/4nE3Ozs7M/vZ2dnZiUsfC7DgSo9vP5hxG287M/zNCf5zn52c8tHRoh7dQDZh/dSfESVvlrqkuvzlsssPcHtt1ZUTFUGWvrQLwxa0OsjugbQIo4Zyzqh1pPqOvtkrGE+Rqb7SiGhn4WOBXZ5liVI0fNG8sEFNsZjAOWbhEyMlmNSlp7Ray4PvMWX58pk+wvq0XZu/ii/tro3rlaahtDmJ16o4yj5kVFywG8VVJl3NbjcZq6awUEGwIHTSJK+WuByLPB5ZPDOw86xWlstYgq1CYoba9vBais1PSavhsCR6/uIYl6bHeGmJ38xFYx3bjgoYk0+iqK5SEUR7h4XY6K6p3N3ExCItthu94Ikwu+bAGgtcRi18eenCRbPCbHUcM8ptwlPzon3d3XxHzHt6kmtPWgCpvZmQoUSMz4znZgRY0wghxNgEzV4yw4dBjRlXbuqYMtFtyRuwRwKfiUuXvvDKsgVjXFtKlBJ7jZ8UKsakvrikkxkbokDhVGfENapPZ3beeXVfSgZvvfujaWba3KO7LlVw2GHEkvc+37xxw/sfffHxmxPVaRmdPqtpsrpkWOtgXKc+O8dfSMrObN1zS4lQY+bebWcqiMB39tLJbj27vDRl/dSfwSXf5+tSL1Df1iRXI8qZ/+QCxrHp9YUYO0UL5o+lKI67majrffTY9pF/fvvjLz/+9NP7Twzu4wMPfTx7BiP16h3n2LFT6JnzRcc3KjpdYoyo0hNLI1dsiqstr1Zb2DtaCyjEyW/uPZhy/xeU6/AxgZaYcALvGf9v04x2KXDyi1+v3d36tdr6pGk4bW7CNdmkyW5xcVqGyK5dzW1f49TpR/anRi4ODZyzZlNMdnZxHSsc5OnjJcg+cV3mHOeqe/frrh2PnxE83nHMio9GNNQr760TUHj4403HSjiE+JHPfbBk6L3hQIpvSSEkin7547DmMRlSf/m7d7anaxFCqrSDu6+FvRjlHPvCe8Pny2QN2NrBTpN0OrVx/IjW44nG5FOddu58afRk6ai/fRKpUDQNXXOy05+/vyevedCLvXv0xwNBq+b4T/n7h7EVxaV1nNBOKrUWYLby6s7dV3RcKmCBsGV6YKv/NQqpvrB1Z9jqZyKC5761eWpNlQJLBllb0Egru7ptx0Vd14fdlrz+e0QqLx06Pc57osvI59dFLaqtrlcTSiCxsRIyGCnSDx/L0LU6LLbgvThf4IxR/rnGMzpHTZq/110pGbH17o+m3gyonwYg8ms/b9hUMm92bJi3g50DKss6t2XX/spx68Z28gPT1SUDWgfjPmXJY758ruLML/eWWCWN6b/vOD90xRjfR5dMT/nwQIHRYyMmrJ8GbdbQkjdhXTIvejB/xYu8lrEvxgIjhKSTLdaOQwghRMjVHxoOZSOEEFKyR7Zr3F7kuY0WrooiMhlBltjeClOIFJ5UHbuto+CxyD94MI0RUWefOaNjFYo+ZaDFIgiR1MP1u0KtFrlabFxO1nzbcKVG17cwVmX8uilfPn9WbJCrhGqszEu/eGTPgWs6FmvHFF9s1XGgkCCLdjOtDEjTENrcq9fLJ0115vO4susJHUIRhLjSM1+sq502Z/KIYE+fUEeuobIg4+S3e48WRb05obNESUPa9o8+q31idlyIh53EqvkJN9ZS2HwthHkiK2urdrcm+aKWciCURUvVIZUXv/tAUTh31uhQTzs7O1R86+T3Ow/VTFw3vuf5VN3+/aP/KRfNjgtxs7ESYowQ4lTCNgWvyj308Tt3Js6cHBPm7eJtj1Ty8qzEG/F/HjufV6erW2LzTu+7MGRRjBQVX9l3Mq+Hs/3Ysvj/vVs+fta02KE+Ujtb1Fidfz3p3OHD57LkuvvE7kregD0iitRtGzbkTZs2LiLAw97OgcacVikvuZ157dSBo4k6FoCnrXnPL5MsdMWaosaNh7VdTbPrvpQM3rpeR1NPhtRPg7DVqUe+Tz3S6hMmuPP8mbAu6ds6eB7Tnn/Uh09kZ7b/kXb/NTVEkfLbtkshK0YPnrVk+s0PD9wx9jUFJqyfhjGs5E1Yl8yMxmIJlrQd3KGFWNK0rB9BglYVWZGh+nIjGzeZFx5E2UsprCLlt7U3zqrP3eQ6vJEEIYR4PkP8BBiR+hsnLsn6+h0c7OHZ/mWddg6OlRXlCCGp1N0k21BrVbTQxEFPeUFxF3/lOQjWrLSc6ohJA3s2vnHnCWVSS0Ry7z12Zza9/kuaiSJFfdOkvaa8Nn+YZefthdQn/frVn8auzgVAJygb3pwJwnljBD5ipClXrf9v3bEKc+epn2DCXvhkZZxF/u616w919oKfPqnf9zb9tuT7Ctp34furpzmi8r/+b/Wvt3r3JVo9N/DGRRBCSFOhencDl75AvCyaeWSyWJ2jSkrqMPeuF7bbXZpY5OQbEGDTRe9QWyym+taiIGAgYLyFy6cILAjJudzw4a7G5C7uzoDWGPuomGARJo2lJVX9rFn2896mH5d8H0E5BwXZUUSbe+ZMVl8PRNBAjUUQQly9ZtcPNUeO8qeN4jO9vOiT3rTpv6x4XterfwHoVZxce/y49txF5cViAh17F2jfx//1ypiW2/c8kZVYQCNV/om/kh/kWmKm0M96mwFU8n0DtgkIcqNI481T8aX9oc0P2FikSV2xevfvsPoMeNhpcxo/yDF3JvoDzBNb29raNr9ik2hVNcWpSaf3/3E6rx9cWfZrUPKmhUUBQ7xpUn3l5NWuFsXqOwbmfBEAAAAA9BcPy7PZAAAAAOibIBYBAAAAgDlBLAIAAAAAc4JYBAAAAADmBLEIAAAAAMwJYhEAAAAAmBPEIgAAAAAwJ4hFAAAAAGBOEIsAAAAAwJwgFgEAAACAOUEsAgAAAABzglgEAAAAAOYEsQgAAAAAzGmgxyIYu/kLIh3MnQ0AzIpy4I33p8XY3PkAAABdGHNnoPdg92EWK+ZajHFCf32lvlZBzJ0fAMyGcROufUVAytS79yp+vs42mjs/AADQGm1tY9vuI5FY3NigQAhJJNYm2QbLsRRj4gEYhbyuqz/T1LiF1v99QuBniYoyVQcuq7PqTbv9hwgWB89btWbF0zMjJIVJaWVqc+cHGIFg7CRl/Lx40VHCWGvuUhpbP1CCc6ifAAwAA3FcBFMxT1qvH0vTNeqvfqjfdovT9iQxsceIKTPGRQa6O1jxWEVVcdbNC8eOnr1Vw5osvw8GM3TZ5r/Hthml52Qn/m/Vjlvd7AntEzPW11aAkdeYUT6/Jd/QrzSZoGc3rppgXbx/3do/7nJG5hlbDB41aag9KUo8nFBsbCJmZ3TJmxBXovrwE9X3gaJ/Py8aGWf5KSEv7VBXP9hwpJeOpnH1ExihL9Tk3oGtJj8yZrI1yU0+/VVOIxJ5vzIpeDCWHz8df7z2AbUSCxuvecODhlrSGJHC9LOf3arvURvpA3tkoAE4X8R2mHhNHM0o1Js31/3cw0DEdviSNWtffDTGTyohipo6rdDBO3LS0/98Z8UkN57JMvyAaBvr5LXy5v8UKk7fCsnmXjqbVdWoqs2Pv5jzgPscC5/Rj86Z/Wi0S7+up8aWvMnJMhtWbVYkKLBXnOXKcOpBzx7pnaNpzvr5sOkzNXmA4bn7RP49LiTcEmtY8rAW6oAbF6GZBbME9pgk7FP8XtKzo4ptYxYvjXXmNeQc+fHbvTfKVQTz7YJnPr9sdmDogmcnpW44UtKPrtW1aVvfXrm1+R+07/z310zVb0ovqU/7Y8PKP3ovZwOd0SXfG9TFjR/s5+9YxJs0W7jjZsOtflSDOwH184HpUzXZtDgthxBCLMchhBDHsQghQrS93zwwz2Z0RMRMFxHN1ifduJlmO/wpT5Nc55ptj4zVr683deANFkyTIlKr2nGZ7WGp40FRsaEipM7c9/WupHIVQQgRdWXq3u9+T1Ehvld0tHSgFZ4pEfSwhvd9XsmlxpNyxEgF0wabOysA9A1apZYghFRaliBEtFoVQQhpVb1/w4+ydhsnFXF1RXvOnt+RV6s0WcJm2yNjDbRxETd/ngOFFLfUN1SdfINyn/XOusfc689+8vZpm1lzJ0f7SSW0qrow/eKRPQevl96f+kY7Se216sbClIyq1qdVUpt1q4QL87R3sqdQEWdYmnoTRb606dWRwsJ9a9/dX9A2qKK95r2/Zqa08fIXb36TeP+BCL5DyLip46JDfV3sRIxGISu8df3UkSOX7jYYFxPQPgs+XD3VqVW4RRTnN7/+g+7b8YxD+PS5j44K8RwkZOuKM68c3nmolugewe02n1gyZuWnz4W1rpnRr373y/1/sdm7315/rLxVqfAcQifMnBQz1NvZWoiUtaW5KZeOHT6ZItMYtesIO0799/oFPppLn60+Lpn9+JQIXycxVlYXZiT+uedgYpGqZb/owEUb/znRtvzo+6t/y71/e4AavGD9v2Y4Vh7buHpHlnF3DfTeI8Y2ePysaaNCBzvbiHkUp1XKy/PTEk4c+LOLaqfSxGeSR0fQEf40ld2jkL37rRt2NPUuef3rJ+U97721M6TyUx//54rbvHnjh3nZWZCGijsp8Qf3HE2ran946EEhU+bOjg31shehhrKshGM7D1Q+8u6qCVYFe959d1+hcYWlx9EU+D255s1pLlTZiY/W/pp5/4zEH/zEv1bPdMOlJzf959eMxvsF0H17Z4Y888kb48jZH7apRi+I87Gszz617fs/NbFLn54cbM+VJh34/ueT+c3dpOl7MAP2vQ8gWqUWIcSqNE2jCBolhxDVfDpvi7J28Jrk5xZgK7bi0RTiVEpFYUXx+Vu5qfXtKxPP0mmMv1e4g42DkEZaVUWN7EZOdnypou2+a0sLko/cvFusRV2PDVC2gW+M9XVU5n97ttg5KHC01NqWQY0NtZl3so5lV9S0q5oG7FEfMcBiEeziSNMIFZWwnYUiLd+0iXnxH0OdClOTE+6IXYPCfIbPejXA85f3Pz1X3lyjtOm/vPnKLzp+KhDwMUJqpar9Ue0+Tb01pCfeVIwY5Ro13PVgQZtghHKPiHCiSH1KYmpLIIJFAXPeeH3GYBEmrFJeVVnPt3Hyi57hFx7u++XGrSl1xlQ/Vlknlwub2gbFtxQLO20mlF3sS2+/EGFDIaKuq6hSiv0nvvSW7fGMjlvVL5+cuqFWLmcQQgjzRZYWDNI01DXcP8ewCnXre6qCwdNfXzUvQIw0taUF2UVI4uwWMnZ+SGT4b59sPpTfXT3oApZEP7Mi2LEw7ealHAvngJCAqOkvD/Gx2/DJ0bu925HqvUdYEvHM28tH29OIU9ZVV9RwlMDS1iUodk5guP/29zaf7OweIikoYVnEuDrRDGKNPs/ot3UDj2Zzyt2XvP71sylJ+7EvLx9ilZ967VK2xH1ImN/oJ1YGun2z/purNfe3jm2GP7f61Rh7GhF1XUWFQug97rlVdvFZPZpYo9/RVGXt3XI89M1pbo88PSth3e6cpqPCeE1bPMWN5kpP/Lw3834gYkh7twgZG3kl4eixmvHTR854YaVfzt3kk/uLwqdNi174SlX+v37LaR28mbAHM2Df+wJOpeEIYe+dqrVKDSF8rarDXltKQ1+Ldh9EIU6rkjeoWEyLhRJfjwAf50H7ziVcaFX0wkH+L47y8+RhQrQKpQrxhFJHdxcH5+BbCd9lVLdEm2zV7Z9knAGli0UjIqP8BbW3iovyBVZ+joOigqN9rK5/fq1E3qYd6btHfcYAi0WQWIgwQorGbs++okCv+h/XfprYdGHEd524/O2FIUPnzBqa+P31LldfoN3ChzlTRHEr4277w2p0mjo0pick18eMchke5b6/4E6ra273yGHONKlPTkhvSZL2nrF0ureFtvTCjm9/PZ8nZxHiOw5/cvlLY93GL5p2cc3ubMMrIJu/f90/9jdv03n62vee8O7km8LgWU9E2GC27OKWz7dcLGokiLYKeHTZkgkW7btw/fJJFFe+ef0KQgghPGjSqo2LA0nSz298cVX34CLtMW3pY/4idf7RLz/7LbVaixCibULmrVgxxX/ukqnJ6/Yb/RAP4vu6VX/19pfJTU2cth/58j9fHOE/a37M5U3nevERFP33CNvFTB9pR2kLjn+5eWdytRYhhCiJz8wV/3gsIGjyuMFnfu3swCsaCUFIIMQ9uM2o39YNO5rN9Ch5/etnE8sA17Jv/r3xRg2HEMIWg2e98c9ZPiPnTTmRtKulkBjfqfNH2lOkMmHrpz+eK2ggiLYKmPXSi1NERheSAUdTlb3/pz9DV093m/L09IQP9uVrEOM6+Zmpnjy25M9f9rQeEjGkvWOm7OKve87UEqbUJvDNsZLCv7YczNDiG5zPxsX+YUNd/8i506qBmLIH65W2KRj52uevRnY2n0Jz9Zvln10xKsQhjWq1ltM2B8lE26DmtEjT/o4JFg3zc7WluOKcqz+kltdyCCFE8W0njBgx2d4+ztPmcmp1c9FT1uOG+XnwUFVR6rabd+6qCMJ8d+/QxaFSD/+wcaXxx6rv7TtnSCCCEOIPclYkfXyhrKlxCG39X4z193QLjMstPdR2AF+vPepDBtqUB9x0/tPjTHHnzJ6rLSO06qIzBy7IOGw1JMST7upXlNMj8ye5YW3hmeNJDSZKUzdlemJyHaGco6LcWx0k2i0yUkqRuuQrGS21CgtpWeKxIwe2fP3T2Tx50+bV5Ym7915rIJT9kCFOvXqQac+QIdaY1Cfu3nKhqKnDZOW3Dmy/UC1sF4v0Rj4pz+hoV4ZUnt/1e1NnhxBia1L37o6vJIxb9AgP4/cdk6ILf6W2XGuwsoS9Z+6yWOAf6i80OtHuGbBHlJ2DHYW5ooTTLd9EXF3Okc/eefutNZ8cLei8p28eicCoB1f8xm+9O71S8nmn9928N45NGnOP/3lTSSj7gEDHlvKkXIKD7SmiStn3y7mChns1ef/2s+W00cVkUP1UZx/8+UiBlvGY9sxkN4aWTlz8qA+fLT65Zc+t1qcQg9oR4RrqFQQhxNXVN3CooV7BIYSIor6eIEpsadmufZiyB+uNtkmUtRXlnaqoVRp7jUByU06tPnDuz6ZRMiI/fvro6j9Ts9tVYmxhZ4ExV3czr6K2JZZQV5++cu7/Tpz9Lruu5euUtTRUgpG6+FBS/t2mAXSiLshNPlSsRpRlqIukB31y7aXM8pbGoazOPVemJVjkYy9um6Z+e9SHDLRxEb01lpXWtK63bEVpBYfsLW2sGYQ6CVSxKGDuKwuCLLSFR38+nNfxys6YNDunzEy4IR8V5xQV7bkvP6/p55Rr5DApReQ3EzLuR/9EkXX696wOv1fXVNURZCGy7N2Vv2krGyuM2OK8O637S64iP19BvCxbf7M38snYOdhRiCu+W9jmcGgL75RwyM7e0Z5G+Ua2PqKVlVW1/i1XUVKmJV6MxFqMUfcjb0YyYI9IbU0tQYOkQ6O9Tu3LbZkooK2TlXa5EqBp9N7We6PkFWWlbYaw1VWVdQTZiyX3ax1lZW1FISK7W6Bo9U2uPC9fQbzExmzU4Pqpzj3485Gh/5zlM23+DMxO9ROwxcd+2ne77cWs6dpRhy+atAfrjbapvrHtXzcM/I0JEZVchZBIHORqffFWTUtN1KobKtre6qQsRDYYcXU17fe9qp5zG2QjsqBQrZH9klpR0WZ2AFvToCJIJOLz+vkbHh7aWITjOB0fYERRnUWsAs8pr62Y5smvT9369d4sXQOBhqfZJVVmws3aMXGOUcO8UTVaAAAgAElEQVS9/sjLYRFClGvUMBea1CZdzWy/fcbKKyQ8yMPBSsg0rxuBrQMkD6B2YprCGCGttl1XxbI6+y4T57Np65Q0+vHFnq1bPeMspRAmNN2D6w+u/eRb9k789u1ZdG2WwvhEu2XAHnFll0+mTH4h3Pextz8eczcnr6C4sKjgTu6tjNyKxt6//OnFrfdCyXPt5ugSQjiEEMatqh5NUwgRVttuel8nNVkvBtdPdf7hH48OXTMrZO4chNiiw1v239Z5z6F32rtJe7DebJtmQhTXc8vjIpy8gkb/y1N+t1peVldXXFOdW1FT2bbSUBRFI0Q4ru3HRMtxBCHayDNCUxrtj1HzGCfu56HIgItFeu1qVRr30j8eD7JU5R/68uuTJQ/mwSh1ZuKNmjHjHCOiBu/JydIi2jUy0oUiNTcSbrWJwmnHkUtXLIl1EeiojX1pSK7X8kk5BI+dGNzxcxPP0+JkaWdOpZk2zU7ot0ekMv6bjeqZc2eOCfPwDLH3ChmOEEJEVX7z4M8/HcyU91ZreOBbf4Al3xsMqp+agoSrhTM8BzOYLb56KU9HJNJf2jtC6IG1zQeE1Ny9/hXrN83fPdDG2l9k7d/0KavIuJW8+3blgHmxgjkMtFhErUUEIQHfpDEiZTf8uTeeDrfRFp/6+r+/31Y8sAqnvp14vSZugn3kcO8/srI4l4gIF4qrvpHYJhTBjuOXLImV0mWXt3yz+2Jejbq5O2p+svRB5bVbvZhPzfXv/v7fSwPphW9675Gq+MofX1zZw5M4uLq5uri5+4SOiBnqHD7vtaU1az/tdIqtgN80lkV6eEYwbut9FctyCGGaYdr2HjRtxGSJNgypn5Tz+Keme9Oa+noidp/y9PiE//urpM1R6i/tvZlp2yY//Kk1C4M7nbuaunP91uRefiMRW1aU+XNRJsMXO1tLnCRWnk4uEU6WQ4KiFijP/njH6AkroP8Nk3WJVFZxBCEnB6q77oNh2oVhDI9BiHQcpcRWoYveeD7GAVVc+nHztuSu1vLXO029abISkqo5yi4qyoehXCKHudBc9fXErNaPlGKrIRG+fKRJO7DjbE5Lx/TgEJYjBCGGaVfi7Xvw3sln09Yxwxg/vbAntFot6njcMcPwEEIsa8yz/EbtEdHUlednJF3868DWT97duP+uFomCooZ0PnFA6kBRCMmqjK6YPdp6H8XV1tRyCNt7uLfOOuXo5WX8rhh6NGnphGfnBVmwxSc+/+J4ISsMfOzZSS5tGlKvtneT9mC90Tax0MZZ6tzpf7Ydnt3rNVq1orCi9Fru7T2X4r+6Vctinq+Lg8W9v3IcxyKEKartvmOGojBCrPFnhAFsoI2L5OVrGwg9yI/nQ2kyuzjeWOjl40bfzG+54hB4ervQiFRX17Z53l7kN+f1l8e7MjXXt2z+PqGyy8tIPdM0iCYrMalq3MRBYUO94xXDXGmu6npCdtvVLQRCAcKIU6k0bc58WOToZN1ZyyQsyxKEaarn7yRh5TVyguykXh5CVNly+UM5eHq268GNymfzElidPnuqlZXLOOTs4unOi8+4f0GErfxiRgwWq+5ejc/ocHWOLQNmPP14jAsqvvTblmO3ezCuysnKZSxxtPH2tsO3y++lQ9kN9rHGhJWVVXVMutuS13+PsMQ7cqiLQFOWlpDdasahuiinUIk8hRYWAoR0vp6aYiL9KIqQ2/ls5xWzu1IyYuvdHk3z4kpS0yoedXcKnbU4Nu+H80XKpqfTF8XZqwni6/5Nd6VkWP2kXSYufSzAgis9vv1gxm287czwNyf4z312cspHR4tajpQx7UhPBvVgJqzJ+lNd/nLZZQN/YzpYYBPqJOFz9beLqlvdgmTLquQqYi1gGD5GTZO4uYaGGoIcJTZuDKq+318zrraWFCI1igcwn6vf6Zu9gvEUmeorjYh2Fj4W2GW7JErR8EXzwgY1xWIC55iFT4yUYFKXntJqLQ++x5Tly2f6COvTdm3+Kr60u4BCrzQNpc1JvFbFUfYho+KC3SiuMulqdtt8kJrCQgXBgtBJk7xargqwyOORxTMDO89qZbmMJdgqJGaobQ8HoNn8lLQaDkui5y+OcWl6jJeW+M1cNNax3bQtI/JJFNVVKoJo77AQG901lbubmFikxXajFzwRZtccWGOBy6iFLy9duGhWmK2OY0a5TXhqXrSvu5vviHlPT3LtSQsgtTcTMpSI8Znx3IwAaxohhBiboNlLZvgwqDHjyk0dUya6LXkD9kjgM3Hp0hdeWbZgjGtLiVJir/GTQsWY1BeXdDJjQxQonOqMuEb16czOTwXdl5LBW+/+aJqZNvforksVHHYYseS9zzdv3PD+R198/OZEdVpGpwPv3ZaSIfWTcZ367Bx/ISk7s3XPLSVCjZl7t52pIALf2Usnu7VcNBrV3vVkUA9myprcX9C2scOGPhk17FEPScuKBRTPepSPowUmirr6lliUk5ckywniu8wM93RvmjGA+W7eoTNd+YirSy6WQyzSwUAbFyH16h3n2LFT6JnzRcc3KjpdoIeo0hNLI1dsiqstr1Zb2DtaCyjEyW/uPZhy/xeU6/AxgZaYcALvGf9v04x2KXDyi1+v3d36Zdn6pGk4bW7CNdmkyW5xcVqGyK5dzW3fhNXpR/anRi4ODZyzZlNMdnZxHSsc5OnjJcg+cV3mHOeqe/frrh2PnxE83nHMio9GNNQr7z39X3j4403HSjiE+JHPfbBk6L37shTfkkJIFP3yx2HNMT6pv/zdO9vTtQghVdrB3dfCXoxyjn3hveHzZbIGbO1gp0k6ndo4fkTrG7vG5FOddu58afRk6ai/fRKpUDQNSHOy05+/vyevuTGzd4/+eCBo1Rz/KX//MLaiuLSOE9pJpdYCzFZe3bn7io4lZ7FA2DLpr9X/GoVUX9i6M2z1MxHBc9/aPLWmSoElg6wtaKSVXd2246Kuq75uS17/PSKVlw6dHuc90WXk8+uiFtVW16sJJZDYWAkZjBTph49l6FodFlvwXpwvcMYo/1zjGZ2jJs3f666UjNh690dTbwbUTwMQ+bWfN2wqmTc7Nszbwc4BlWWd27Jrf+W4dWM7+UH3dUnvo8m4T1nymC+fqzjzy70lVklj+u87zg9dMcb30SXTUz48UKBFyLh2pO/+G9KDmbAm9xekofBEnsdzPpJhEWNDQ5VyNUcwLRYKBBRCatmpHNn9+sbVnkm67Tfa38stdIVLUL1Sg/hCSwZjosnPTD7TaiCRHhSwfIRHy4gWw/AQwlL/Uf/2aaoDqqsJ8Ycr+11RGWGgxSIIkdTD9btCrRa5WmxcTtZ823ClRte3MFZl/LopXz5/VmyQq4RqrMxLv3hkz4FrOpY6xhRfbNVxiJYgi3Zz3AxI0xDa3KvXyydNdebzuLLrCR1CEYS40jNfrKudNmfyiGBPn1BHrqGyIOPkt3uPFkW9OaGzRElD2vaPPqt9YnZciIedxKr5eTDWUth8hYN5Iitrq3ZzxPiilnIglMX9K7XKi999oCicO2t0qKednR0qvnXy+52HaiauG9/zfKpu//7R/5SLZseFuNlYCTFGCHEqYZuCV+Ue+vidOxNnTo4J83bxtkcqeXlW4o34P4+dz6vTdYpj807vuzBkUYwUFV/ZdzKvh7M32bL4/71bPn7WtNihPlI7W9RYnX896dzhw+eyOrn06a7kDdgjokjdtmFD3rRp4yICPOztHGjMaZXyktuZ104dOJqoYwF42pr3/DLJQlesKWrceFjb1SS/7kvJ4K3rdTT1ZEj9NAhbnXrk+9QjrT5hgjvPnz51Sa+jyfOY9vyjPnwiO7P9j7T7r5QhipTftl0KWTF68Kwl029+eOCOBhnXjvRjWA9mwprcb2hup1z8ssbnES/nwdYiGzGFCadS1eVWlF68nZPcNrhSVWd9c1o+JsBrmKONvVCIWFVpeUVSx/fRUDxLgaDd09g0w5c01V+ChDTuvedD+xLs4dn+ZZ12Do6VFeUIIanU3STbUGtVtNDEQU95QXEXf+U5CNastJzqiEkDeza+cecJZVJLRHLvLVBnNr3+S5qJhgn1TZP2mvLa/GGWnfdtpD7p16/+NHZ1LgA6Qdnw5kwQzhsj8BEjTblq/X/rjlWYO0/9BBP2wicr4yzyd69df6izF/z0e73RKwJgiIE3LoIQQpoK1bsbuPQF4mXRzCOTxeocVVJSh7l3vbDd7tLEIiffgACbLmKR2mIx1QcXCQD9HOMtXD5FYEFIzuWGD3c1Jndxdwa0xthHxQSLMGksLal6CJplf3v2CQwcAzMWQQhx9ZpdP9QcOcqfNorP9PKiT3rTpv+y4nldr/4FoFdxcu3x49pzF5UXi8lDcEo1Hu37+L9eGdNy+54nshILaKTKP/FXcl96rSwAA82AjUWa1BWrd//ey2vfANDnaXMaP8gxdyb6A8wTW9va2ja/YpNoVTXFqUmn9/9xOk/XTGAAgIkMzPkiAAAAAOgv+uRz/gAAAAB4aEAsAgAAAABzglgEAAAAAOYEsQgAAAAAzAliEQAAAACY04N4prfpqRwAAAAAgI5gXAQAAAAA5gSxCAAAAADMCWIRAAAAAJgTxCIAAAAAMCeIRQAAAABgThCLAAAAAMCcIBYBAAAAgDlBLAIAAAAAc3oQa53p5DnB6uMJNN3yb4478G3tz3fNlR0AAAAAmIfZYhGeiHJzaB2LIBueufICAAAAALMxWyySfbAm5iBCCCGat3K99aJB5soIAAAAAMwJ5osAAAAAwJwgFgEAAACAOUEsAgAAAABzMtt8EQPx3ce/9PK8CEdUfuOPL787dVdt7gwBAAAAwCT6ybgIEzBhdpRURNMiacTsif79JYICAAAAQHf6SSzCVZZVaAhCCBFNRWklZ+78AAAAAMBE+skIA1f856fvy0YMsUeyjCuJJRCLAAAAAANFP4lFEOLq8hJP5Jk7FwAAAAAwsX5yjwYAAAAAAxTEIgAAAAAwJ4hFAAAAAGBOEIsAAAAAwJz6zdxVLBkcEeYqxIjIc6+lFKmIuTMEAAAAAFPoL7EIlgyb++KSMD5iC/avvZxs7uwAAAAAwET6yz0avm+gDw8jorl99nwhLC8CAAAADBj9JBahPQN8LTAiDcmnE6rg9gwAAAAwcPSPWIRyCvQbRCGuOvFMUj2EIgAAAMAAYrb5Ip7jrTY+QtMIIYRtbbr+Lpb4B7pSiCs5fy5T9SAyBwAAAIAHxWyxCE9MeTo3xSIIIYS6mgMi8A3wZpAm++y5O2zv5wwAAAAAD5DZYpHsgzUxB/X7Ku0Z4GeBlDfOXq6A+zMAAADAAIM9PAe3+8jOwbGyohwhJJW6m2QbJSUFJkkHAAAAAANP/5i7CgAAAICBCmIRAAAAAJgTxCIAAAAAMCeIRQAAAABgThCLAAAAAMCcIBYBAAAAgDlBLAIAAAAAc4JYBAAAAADmBLEIAAAAAMwJYhEAAAAAmBPEIgAAAAAwJ4hFAAAAAGBOEIsAAAAAwJwgFgEAAACAOTHmzgAAnaI9LL5YJnRqFTDfOSl/4yTLmS9LAAAATM7MsQgW2j/96NCZjlRByo33zlXUmjc3oI/BPMrJgXZrFYs0ijA2X34AAAD0BjPHIrSzyxSpUIiRb7BrwIWKBLanCWK+zfhwR0dUd/5qSYHuy2c6dvrkVX46b05xV/7864NMbZsEBVZxET5TfAd5Wwt4rEZWVXU1I29PalUVXJsbx8KNGTeZF+pH2VlitoEry2WvnlRfziadH3quvPGFtYrUHtcNAAAAfZOZYxG2tPjPYvvpjlRRWtEtk5xsBDbjo/1CUMmdayUFur9B1CpVTUO7WIQWixheh69iS+e/zQ2fYEsjxDUolHKa7+zs/KizU6x3+juH8u/A2dFQ1sMELy/hOfIQ0ZK6WkJLKPehlHsoE/R7489nOG33CQAAABh4zByLEKVs6++ntj7QbXIJJ08lnGz9CT88bsTbw6waSnP35bU6H2LhuEfCJthSitLcz/68nVDDEkQ7evqsmOIb6hX4Wrjsn9fqYXDEANiambuI58iQOydUOw5pZWqEedh/inDRNDpwjmBMZuPpUnNnEQAAgBnAczRM4Iiot8KtcOWdjw/eTlfd/wO2dJ7oyUPaqh1HM6/UsAQhhNjyO1mbL8qUiPYNcHaDmQsGsRnGCxQhdZZ6216tTI0QQkRDbh1WHskgiEcPG0ZBZQQAgIeSWcZFcOCYsRsixK1PPfXpiUv+Kte0+yJlvfip0Y/bqo7suxBv5/90mJOvhCGqxpw7Bb9dyk2qI/e+x584e8Jyr9bpSd/624z7/+Jqft56cW8NQe3RXuERb4+w5cuLNu9Pu9bQ5gu0raUjyzZUViTXtf6cVBdVFXIOPlZiJwrdNe42Dd8hZNzUcdGhvi52IkajkBXeun7qyJFLdxva55AeFDJl7uzYUC97EWooy0o4tvNA5SPvrppgVbDn3Xf3FbYeluE5hE6YOSlmqLeztRApa0tzUy4dO3wyRda+TM3HwQmzGlKSzrY5EITkZRFuCB7kSFGIg4EmAAB4+JjnHo1GralpUDXFDhTDl/C7HmHATsHhb3vws++UnS3hebk7DgkK/Leb5ONdNy8qms5qraaAYNrSgmEQp2jQ3D8Lc2qVjpMcJR0S/u8xDpKGsq/3J5+vax8HaO+mvvhVqo7c8GgBQkjDKjvGNnrAooA5b7w+Y7AIE1Ypr6qs59s4+UXP8AsP9/1y49aUVtnANsOfW/1qjD2NiLquokIh9B733Cq7+CwdhSUYPP31VfMCxEhTW1qQXYQkzm4hY+eHRIb/9snmQ/mqjj8wh9u7Gt7epeNzvgBhhNRKYlR5AgAA6O/MEouQnCsXnrvS9P/YNWrU56Ntuvo65gXbNWzadiVBQRBCmG/z5JwRC5xdFkfcuRJfzSKEkObcsVPnmr4r8Vr/bHAIKvvix+sXuxy0wBYuLzzibE+RBjUdFOIlzyi4LNPocTbEHoMdXShSXyTLNeYinvaesXS6t4W29MKOb389nydnEeI7Dn9y+Utj3cYvmnZxze7se7lmfKfOH2lPkcqErZ/+eK6ggSDaKmDWSy9OEXVI02Pa0sf8Rer8o19+9ltqtRYhRNuEzFuxYor/3CVTk9ftv2twTgUjX/v81ciOs3mbaK5+s/yzK6YJcWgqOJSiCMm9zcFcYAAAeCj1j1v02SlZic1DIIioa/Zfr2hE2Ml1kLQnMzYomocRQlhka/9IRNBbC+P+Pcxa2N2PaBuP58IlFFt/LKlcYcRGsZCWJR47cmDL1z+dzZM3nXzV5Ym7915rIJT9kCH31/WiXIKD7SmiStn3y7mCpps3rPzW/u1ny+l2e015Rke7MqTy/K7fmwIRhBBbk7p3d3wlYdyiR3gYcZCJsraivFMVtcaNCelgHysY44LYEs3ZFBgWAQCAh1N/WHeVaIqqVa1PVKq6xlqCnIR8S4yQsWcwori7/psiCiGBhTgo0P/5aMeI2GGLK85/V9jpo6VYMOipaUFhAnLnasrvZUZNbSCKrNO/Z3X4WF1TVUeQhchS3BJnUFbWVhQisrsFila7yJXn5SuIl7j1jxk7BzsKccV32+ZcW3inhEN29o72NMo3NLPqG9v+dcPA3xjOwpe/eA4t1HKnf9UUwBO9AADwkOoPsQgi7Rf9JoQQhHAPl+Akao0WIaTU1F5OuF7Dj/0g0nJ8mMP2wpIGnV/nWT02I3KuIyW/k/bR5WplDzbMWHmFhAd5OFgJGappF7B1gKT9ztA0hRBhtdq20RbLtr+VgWkKY0RJox9f7Nn6hM44SymECU33zcEvvjvv2WV8Nx65tVt5LAcGRQAA4KHVL2KRB4DNvlNZE2FpM8jKmSrRMRGEFk+aOvwZd76yLHvj0TuFxs9soB1HLl2xJNZFoCOO6tFDJJRD8NiJwR0/75uTMGgn3lOvCHzFpOC4cus5mCkCAAAPM4hFmhG1VkUQZmhBx79hi9iJ0S8PFmor73x04HZaD+ZsYsfxS5bESumyy1u+2X0xr0bdHH5Qgxes/9cMxzbfZVkOIUwzTNuohaZpnUlrrn/39/9eajQ+b23ww59aszC407mrqTvXb01WG5s4NYhZ8Kog2BqVxSt/OMA2wpgIAAA81B66WITnEbQxzoEqz3n3r6Lq1idBhmIwIlyHhcgxP2Ls8L8HilBt0acd1iAxELYaEuHLR5rkAzvO5tR3nRJXW1PLIYm9h7sY35Hf+y7l6OUlbjekQliOEEQxDN2D6TPtcyq0cZY6dxqLFFkYfXsMS+jZrwoj7FFVovL73WyHR6kBAAA8bAZcLEKaV6mgOjlZcipOYCtxFTkOERRduD/pA0tdBtlhpK1VVLS5U8IbMnL4qqESur70K11rkBhKIBQgjDiVqu3Tw1jk6GTdLsNcSWpaxaPuTqGzFsfm/XC+SEkQbRXw6KI4ezVB/Nbf1MrKZRxydvF058Vn3B+swFZ+MSMGi1V3r8ZnVBuacdXlL5ddNvA3esAW9JRXhKOlSJ6s+m6bthqWNgMAANBPnunVH1EqZRqCKJtIT4HOfWMrSs7JOGQhXTrJO0jU9BXGxSdoZZQVTdRXM8pq73+X9o6IWD3cxqJR9vP+G3+Z4MRJagoLFQQLQidN8moZWcAij0cWzwzs8GVt7tFdlyo47DBiyXufb9644f2Pvvj4zYnqtIz2z9NydxMTi7TYbvSCJ8LsmoNLLHAZtfDlpQsXzQqz7TMPqPCpscuEE72wIlP1/U+aij6TLwAAAGZljnERxnn5MyFR92Y9UAyfQkjsH/69V/PJniiLN+9Iv2ncfEat7K90xZgIy0dmjo9p1DQ9CszJ737w2+2spuQ5+b4TmcGPBYUNHrLBy1+u0Gj5gkECCiO2IDXl+yz1/RM9ZRkbbGeFEceznjfnkXntNkTUp4/G/1xk2ICDOv3I/tTIxaGBc9ZsisnOLq5jhYM8fbwE2Seuy5zjXNttQX7t5w2bSubNjg3zdrBzQGVZ57bs2l85bt3Ydqmyd4/+eCBo1Rz/KX//MLaiuLSOE9pJpdYCzFZe3bn7Sl+5DUJJmWg/jAnie/KXreO3+yup12zdoM6FWawAAPDQMUcsgimxSGDTbgYmw7O5lxdCMT3IFpt2MeFDzZCFwfZeYkHT4AOnbZOgqiJv3a/yqVGDx3vbukuElEZdWCi7kJyzP6tO59O8VKu83UeQyIj5GVzpmS/W1U6bM3lEsKdPqCPXUFmQcfLbvUeLot6coGtnqlOPfJ96pNUnTLCum0+q3EMfv3Nn4szJMWHeLt72SCUvz0q8Ef/nsfN5dX3tPghGfBFuH4kgRBBm4GWDAADwMMIenoPbfWTn4FhZUY4QkkrdTbKNkpICk6QDEEJM2AufrIyzyN+9dv2hkr4WZpga4yPe/aaFi6zxhbWKVBgxAQCAAWrAzV0d2Bj7qJhgESaNpSVVAz0QaYEHCd//D79pUm7+aflbp9ovfQcAAKBfg1ikT6N9H//XK2NaHrHhiazEAhqp8k/8ldxHXr77AGAGS52bb+mpxT1cbBcAAECfA7FIn4Z5YmtbW9um0y8hWlVNcWrS6f1/nM7TmDlnD4Q2RzH3JWNeQQgAAKAfgfkiAAAAADCngba+CAAAAAD6F4hFAAAAAGBOEIsAAAAAwJwgFgEAAACAOUEsAgAAAABzehDP9No5ONJCE2+ovKDYtAkCAAAAwCxgXAQAAAAA5gSxCAAAAADMCWIRAAAAAJgTxCIAAAAAMCeIRQAAAABgThCLAAAAAMCcIBYBAAAAgDkN9FgEYzd/QaSDubMBgFlRDrzx/rQYmzsfAACgy4NY68xMsPswixVzLcY4ob++Ul+rIObODwBmw7gJ174iIGXq3XsVP19nG82dHwAAaI22trFt95FILG5sUCCEJBJrk2yD5ViKMfEAjEJe19WfaWrcQuv/PiHws0RFmaoDl9VZ9abd/kMEi4PnrVqz4umZEZLCpLQytbnzA4xAMHaSMn5evOgoYaw1dymNrTddcA41BADQQwNxXARTMU9arx9L0zXqr36o33aL0/YkMbHHiCkzxkUGujtY8VhFVXHWzQvHjp69VcOaLL8PBjN02ea/x7YZpedkJ/5v1Y5b3ewJ7RMz1tdWgJHXmFE+vyXf0K80maBnN66aYF28f93aP+5yRuYZWwweNWmoPSlKPJxQbGwiZmd0yZsQV6L68BPV94Gifz8vGhln+SkhL+1QV5soHDGuhnRBj+POH/7aV69E8XT9SZP07WufX1K2SXCgtOLexXdkxkzmhQdS9lYYqYjsrvbGWU18MgfRJeh9AzAWsR0mXhNHMwr1J5vrdpf0qLvFtsOXvPlSrDMfEW1jbU0dI3HwjpzkHR49dMemL/4q1Jgqyw+EtrFOXss2nxEZgaVIoN/v2NxLZ7NCxnvSpfEXcx5w323hM/rROYEkoehoP45FjC55k5NlNqzaTDatEo+Is1yZXvOfJM4k0Yjpa0j3x51oGmrl8naxCE8kETEd5sQMqFbce0SBgpeW8dyEiFOTynIOW2JpIM8lkAn9S/ntfrYB7nGD3jXgYhGaWTBLYI9Jwj7F7z0LRBC2jVm8NNaZ15Bz5Mdv994oVxHMtwue+fyy2YGhC56dlLrhSEk/Oj9q07a+vXJr8z9o3/nvr5mq35ReUp/2x4aVf/RezgY6o0u+N6iLGz/Yz9+xiDdptnDHzYZbpqjB5qghmhs//WNl6w+wJPjJt5ZPcm/MPXrspqrV5wOqFfcaIT3jaZ6bAJVdVG75XVumRAhj52jBs08x7hMFUzMa99yCYAT0qoH2HA1vsGCaFJFa1Y7LbA+7GDwoKjZUhNSZ+77elVSuIgghoq5M3fvd7ykqxPeKjpYOtMIzJYKg7+qjSi41npQjRiqYNtjcWTEVbOEza+Wrk9xR8cmvP/0jq9VFPLRivfD9eWG2iCtV79ypLWu6vUVI6RXlrjMcR+gTU7kAABjsSURBVFFDR9A674YBYDoDbVzEzZ/nQCHFLfUNVSffoNxnvbPuMff6s5+8fdpm1tzJ0X5SCa2qLky/eGTPweul92+N0k5Se626sTAlo6r1aZXUZt0q4cI87Z3sKVTEGZam3kSRL216daSwcN/ad/cXtA2qaK9576+ZKW28/MWb3yTefyCC7xAybuq46FBfFzsRo1HICm9dP3XkyKW7Rg6u0j4LPlw91alVR00U5ze//oPuyQCMQ/j0uY+OCvEcJGTrijOvHN55qJbovgHQbT6xZMzKT58La10zo1/97pf7/2Kzd7+9/lh5q1LhOYROmDkpZqi3s7UQKWtLc1MuHTt8MkVm5PA7dpz67/ULfDSXPlt9XDL78SkRvk5irKwuzEj8c8/BxCJVy37RgYs2/nOibfnR91f/lnv/5gQ1eMH6f81wrDy2cfWOLOPuWei9R4xt8PhZ00aFDna2EfMoTquUl+enJZw48GcX1U6lic8kj46gI/xpKtvokF3vGkJ5z3tv7Qyp/NTH/7niNm/e+GFedhakoeJOSvzBPUfTqu4VkBHHvRnfbeLy5bN9ebJL32/eniJvU+0MaMWG7v+gkClzZ8eGetmLUENZVsKxnQcqH3l31QSrgj3vvruvsHWaJq6fvUDiiAUY1WezRW2PXkEm2zCBsrDHEoyq4OoC9KIBFotgF0eaRqiohO0sFGn5pk3Mi/8Y6lSYmpxwR+waFOYzfNarAZ6/vP/pufLmzlGb/subr/yi46cCAR8jpFaq2rfN7tPUW0N64k3FiFGuUcNdDxa0CUYo94gIJ4rUpySmtgQiWBQw543XZwwWYcIq5VWV9XwbJ7/oGX7h4b5fbtyaUmdMJ8Iq6+RyYdOZhuJbioWdXj9SdrEvvf1ChA2FiLquokop9p/40lu2xzM6blW/fHLqhlq5nEEIIcwXWVowSNNQ13C/j2QVatIqbcHg6a+vmhcgRpra0oLsIiRxdgsZOz8kMvy3TzYfyu+uHnQBS6KfWRHsWJh281KOhXNASEDU9JeH+Nht+OTo3d49iei9R1gS8czby0fb04hT1lVX1HCUwNLWJSh2TmC4//b3Np/s7O4DKShhWcS4OtEMYo2emKh/DWnKrP3Yl5cPscpPvXYpW+I+JMxv9BMrA92+Wf/N1RqjjnszxjH2pZVPBlvW3ti6+fuEyvYNzfBWrBdsM/y51a/G2NOIqOsqKhRC73HPrbKLz9KxgEuv1U9TommMENJ2rNcapCHIgkYURjDSCXrTAItFkFiIMEKKxm6bjSjQq/7HtZ8mNl2W8V0nLn97YcjQObOGJn5/vcvVF2i38GHOFFHcyrjbvt8zOk0dGtMTkutjRrkMj3LfX3Cn1TW3e+QwZ5rUJyektyRJe89YOt3bQlt6Yce3v57Pk7MI8R2HP7n8pbFu4xdNu7hmd7bhF+ds/v51/9jfvE3n6Wvfe8K7k28Kg2c9EWGD2bKLWz7fcrGokSDaKuDRZUsmWLTvmPXLJ1Fc+eb1KwghhPCgSas2Lg4kST+/8cVV3U9n0B7Tlj7mL1LnH/3ys99Sq7UIIdomZN6KFVP85y6Zmrxuv9EP8SC+r1v1V29/mdx0oU3bj3z5ny+O8J81P+bypnOmegRFB/33CNvFTB9pR2kLjn+5eWdytRYhhCiJz8wV/3gsIGjyuMFnfu3swCsaCUFIIMQ9uEGhfw1pYhngWvbNvzfeqOEQQthi8Kw3/jnLZ+S8KSeSdhlx3JthScyixVGDKNTYyPMbO6n+wrnrBQo9jk0XrVgfjO/U+SPtKVKZsPXTH88VNBBEWwXMeunFKaIOGzJ9/RSMfO3zVyM7u2miufrN8s+u9JEQBwC9DbSbpbjp/KdHb3TnzJ6rLePD6qIzBy7IOGw1JMST7upXlNMj8ye5YW3hmeNJDSZKUzdlemJyHaGco6LcWx0k2i0yUkqRuuQrGS0PLWIhLUs8duTAlq9/Opsnb9q8ujxx995rDYSyHzLEqVcPMu0ZMsQak/rE3VsuFDXFgKz81oHtF6qF7WKR3sgn5Rkd7cqQyvO7fm/q6BFCbE3q3t3xlYRxix7hYfy+Y1J04a/UlhF/Vpaw98xdFgv8Q/2FRifaPQP2iLJzsKMwV5RwuuWbiKvLOfLZO2+/teaTowWdn+WaxxcwepALsead3nezpjlPpDH3+J83lYSyDwh07En9pHkMhRHCFtKQUVMWvvrOBysne3X7mFLXrbh7lEtwsD1FVCn7fjlX0HCvzu/ffracblegvVE/ibK2orxTFbXKHsbJ9jHC1ZvEq59n7Aba2QH0ZQNtXERvjWWlNa3bLFtRWsEhe0sbawahTi6VsChg7isLgiy0hUd/PpzX8XrNmDQ7p8xMuCEfFecUFe25Lz+v6eeUa+QwKUXkNxMy7l/5EEXW6d+zOvxeXVNVR5CFyLJ3V/6mrWysMGKL8+60XtGBq8jPVxAvy9bf7I18MnYOdhTiiu8Wtjkc2sI7JRyys3e0p1G+kQMjRCsrq2r9W66ipExLvBiJtRij7kfejGTAHpHamlqCBkmHRnud2pfbMuFGWycr7XIlQPNQlJW2mcqhrqqsI8heLOlJ/SQ1Zz/920UKUXwrJ7+RcxbOGhqy4LV5Bf/ekaHs7CfdtWI9UFbWVhQisrttxmC48rx8BfESt/5mb9RP9Y1t/7phTLb1grH3MMbOAqEwxkug7b3tANDWQxuLcByn4wOMKKqziwGB55TXVkzz5Nenbv16b5auQVDD0+ySKjPhZu2YOMeo4V5/5OWwCCHKNWqYC01qk65mtt8+Y+UVEh7k4WAlZKimvh1bB0gewGUvpimMEdJq2wVbLKsz+jJxPpu2TkmjH1/s2bq3Z5ylFMKEpntwace1n3zL3onfvj2Lrs1SGJ9otwzYI67s8smUyS+E+z729sdj7ubkFRQXFhXcyb2VkVvR2PeeU+XazZIlhHAIIYx7VklZjYpFCKkq8q4f/KLWYt3qadLR48L2ZiTovivafSvWB01TCBFWq21bQzrW+d6sn72DkIxT6jQRjdI1mZ3GcwCY3ECLRXrtalUa99I/Hg+yVOUf+vLrkyU9XllSL+rMxBs1Y8Y5RkQN3pOTpUW0a2SkC0VqbiTcajPhkHYcuXTFklgXgY5evS+dk3otn5RD8NiJwR0/N/HKbJws7cypNNOm2Qn99ohUxn+zUT1z7swxYR6eIfZeIcMRQoioym8e/Pmng5nyh22yofpOSkbtVBdrV3cHKkHHRAyztGL0wOqnidRnqn/KbP5/I24uA2CUgRaLqLWIICTgm3RAgLIb/twbT4fbaItPff3f32/rMzfONNS3E6/XxE2wjxzu/UdWFucSEeFCcdU3EtuEIthx/JIlsVK67PKWb3ZfzKtRN/fBzU+WPqi8dqsX86m5/t3f/3tpIL3wTe89UhVf+eOLK3t4EgdXN1cXN3ef0BExQ53D5722tGbtp51OsRXwm8aySN88GxqNUylVBCG+QEe4a8pWzLIcQphm2i3yStO6z92mrZ/88KfWLAzudO5q6s71W5Nh1XbQ3wywWIRUVnEE0U4OFI26XjiBYdrtOsNjECId77Ngq9BFbzwf44AqLv24eVtybRddmN5p6k2TlZBU/ch4u6gon905ishhLjRXfT0xq/Wjd9hqSIQvH2mSD+w4m2PCF57pi7AcIQgzTLtuuH2/3Dv5bNo6xTC0WZ451Gq1qONxxwzDQwixrNaIHBm1R0RTV56fUZ6fkXTxr2Pn5q5eM9sjKGqIOP5CJwUtdaAohGRVRldMM2NCFr39ZCiVf3DzDxdbt8hOS96AVqwHrramlkMSew93Mb7TMvpEOXp5tZ/70hv1EwttnKXOncYiRR2eX9MDyxKEENMxUR7iYYRYxD5sY2zgQRtgsQjKy9c2EHqQH8+H0mR20dFioZePG30zv+W6UODp7UIjUl1d23rkFov85rz+8nhXpub6Fl2rFxiTpkE0WYlJVeMmDgob6h2vGOZKc1XXE7LbrgIgEAoQRpxKpWnTXWCRo5N1Z70SYVmWIExTVI8HkFh5jZwgO6mXhxBVtlz6UQ6enu36ZaPy2XQIcafPnmpl5TIOObt4uvPiM+5fDGIrv5gRg8Wqu1fjMzqMDWDLgBlPPx7jgoov/bbl2O0exEWcrFzGEkcbb287fLu85ZxkN9jHGhNWVqZjdahuS17/PcIS78ihLgJNWVpCdqs50+qinEIl8hRaWAgQ0vl6aoqJ9KMoQm7ns51XTNOVkhG6O+5cvUYgdXW2DvcXXUq8P8JBO/r722CiLS+tbJ1dg1oxQt3vO1eSmlbxqLtT6KzFsXk/nC9SNj3HvijOXk0Qv/U3jamf3VFd/nLZZQN/0526cqIiyNKXdmHYglaVwj2QFmHUUM4ZtUYRAPrrc1OnekiRqb7SiGhn4WOBXZ5liVI0fNG8sEFNsZjAOWbhEyMlmNSlp7Ray4PvMWX58pk+wvq0XZu/ii/tLqDQK01DaXMSr1VxlH3IqLhgN4qrTLqa3TYfpKawUEGwIHTSJK+WKyIs8nhk8czAzrNaWS5jCbYKiRlq28Nbwmx+SloNhyXR8xfHuDQ9xktL/GYuGuvY9trUmHwSRXWViiDaOyzERndN5e4mJhZpsd3oBU+E2TUH1ljgMmrhy0sXLpoVZqvjmFFuE56aF+3r7uY7Yt7Tk1x70gJI7c2EDCVifGY8NyPAmkYIIcYmaPaSGT4Masy4clPHhI1uS96APRL4TFy69IVXli0Y49pSopTYa/ykUDEm9cUlncwXEQUKpzojrlF9OrPzE4wJS8lw3R537u7lywVaJB6+4PnJftZNy6MJnSIWvDDdi0b1Ny8mtTp1GtiKkT77rs09uutSBYcdRix57/PNGze8/9EXH785UZ2W0f55WiPqp1mob2uSqxHlzH9yAePY9Ew0xk7RgvljKYrjbib26F3nAOhhoI2LkHr1jnPs2Cn0zPmi4xsVnS4xRlTpiaWRKzbF1ZZXqy3sHa0FFOLkN/ceTLn/C8p1+JhAS0w4gfeM/7dpRrsUOPnFr9fubv3ad33SNJw2N+GabNJkt7g4LUNk167mtu8V1OlH9qdGLg4NnLNmU0x2dnEdKxzk6eMlyD5xXeYc56p79+uuHY+fETzeccyKj0Y01CvvrXxQePjjTcdKOIT4kc99sGTovSFbim9JISSKfvnjsOYxGVJ/+bt3tqdrEUKqtIO7r4W9GOUc+8J7w+fLZA3Y2sFOk3Q6tXH8iNZjvsbkU5127nxp9GTpqL99EqlQNM0w4WSnP39/T17zoBd79+iPB4JWzfGf8vcPYyuKS+s4oZ1Uai3AbOXVnbuv6LicwwJhy2yCVv9rFFJ9YevOsNXPRATPfWvz1JoqBZYMsragkVZ2dduOi7queLstef33iFReOnR6nPdEl5HPr4taVFtdryaUQGJjJWQwUqQfPpaha3VYbMF7cb7AGaP8c41ndI6aNH+vu1IyoIYYrtvjzhX8+ePugDeeDBr21D+HzqurrmctbGwsGIzUxWd//DWhVRRmaCvWZ98RIvJrP2/YVDJvdmyYt4OdAyrLOrdl1/7KcevGtvui4fXTPJTske0atxd5bqOFq6KITEaQJba3whQihSdVx273lWyCgWugxSIIkdTD9btCrRa5WmxcTtZ823ClRte3MFZl/LopXz5/VmyQq4RqrMxLv3hkz4FrOhZrxxRfbMXv8DFBFu1mrhmQpiG0uVevl0+a6szncWXXEzqEIghxpWe+WFc7bc7kEcGePqGOXENlQcbJb/ceLYp6c0JniZKGtO0ffVb7xOy4EA87iVXzc5WspbD5Wh3zRFbWVu1uH/NFLeVAKIuWqkMqL373gaJw7qzRoZ52dnao+NbJ73ceqpm4bnzP86m6/ftH/1Mumh0X4mZjJcQYIcSphG0KXpV76ON37kycOTkmzNvF2x6p5OVZiTfi/zx2Pq9O1106Nu/0vgtDFsVIUfGVfSfzejh7ky2L/9+75eNnTYsd6iO1s0WN1fnXk84dPnwuS97Jy+67KXkD9ogoUrdt2JA3bdq4iAAPezsHGnNapbzkdua1UweOJupYAJ625j2/TLLQFWuKGjce1nY1wbHbUjKkhhiu++Ouvnvsv/+5M27GtFFD/VwHDcJqecmt9MTTh44nFupa+0XvVoz0rSFsdeqR71OPtPqECdYVthhaP81FkaH6ciMbN5kXHkTZSymsIuW3tTfOqs/d5IxbJx8AQ2APz/Yv67RzcKysKEcISaXuJtmGWquihSYOesoLirv4K89BsGal5VRHTBrYs/GNO08ok1oiknvvsTuz6fVf0kw08qhvmrTXlNfmD7Ps/FKc1Cf9+tWfxq7OBUAnKBvenAnCeWMEPmKkKVet/2/dsQpz52nAYcJe+GRlnEX+7rXrD3X2KiAAgE4Db1wEIYQ0Fap3N3DpC8TLoplHJovVOaqkpA4zGHthu92liUVOvgEBNl3EIrXFYqpvLQoCBgLGW7h8isCCkJzLDR/uakzu4u4MMA7z/9u7l9i4rjKA49+dazutHb/zqJUmVtO0iQIqEIqaILGgYYOEUglYsUCReG8QjyUSK0CqBAsWbCiRECAhHlkU01aUQkhoo7ahSpS0pUVpAm2xS1w/YieZOLbvZRGIUIjssRj7MDO/325GI/vbWP7r3HPObLh/3zs6s7L61tikP2BYoeZskYgoLs3/7ND04090fPj9HW3/L5c+Lbz8oy9+6lZfGgqrqphZePLJhWPHrx4fLf2jrIt8x8e/9oUP3DgC1t7Z07Uuj7m/PvXb076ZDlaqaVvkutnRaz//pXt/aHULr1W/9VrqIZpL1t7V29/f/68v4ywX5qZHXzx55NHDR87fas8wsKTm3C8CADSKZrtfBABoLFoEAEhJiwAAKWkRACAlLQIApLQWZ3qvn8oBAPhv1kUAgJS0CACQkhYBAFLSIgBASloEAEhJiwAAKWkRACAlLQIApLQWd53d0vD+nm/vz/Mbr4viV9+/+MPXU40DAKSRrEXaOyt3bvzPFom+9lSzAADJJGuRsyPT+0YiIiJv/9I3ej8xkGoQACAl+0UAgJS0CACQkhYBAFJKtl9khTq2Pvi5z39sz6a4cOrw9x75/evXUg8EANRFg6yLtO3c/9D9Q5153jm056EP3dsoBQUALKdBWqSY+Mf4fBkRUc6PvzVRpJ4HAKiTBllhKEZ/891vvv3A7g3x9p+fOzGmRQCgWTRIi0QUs+dPPHU+9RQAQJ01yDMaAKBJaREAICUtAgCkpEUAgJQaZu9q1r19z31bbsuinDn3wpm/z5WpBwIA6qFRWiTrfs9HP3Pwvo5YfOPRrz97OvU4AECdNMozmo4du+5uz6Kc/8vRp990vQgANI0GaZF8eOeO27Mor5w+8vykxzMA0Dwao0Uqm3fdM1CJYurEH05ekiIA0ESS7RcZfrDn4Q/meURE1t+39Gez7nt3balEMfb0sVfm1mI4AGCtJGuR9q7K8B3XWyQiIpbaA7Jux8672mL+7NFjf1tc/ckAgDWUrEXOjkzvG6nto/nwzntuj6unjj477vkMADSZbNvw9pveGty4aWL8QkQMDW2ty+8YG3ujLj8HAGg+jbF3FQBoVloEAEhJiwAAKWkRACAlLQIApLTUmV7nXwCA1WZdBABISYsAAClpEQAgJS0CAKSkRQCAlLQIAJCSFgEAUtIiAEBKS911FhGRVQ58tveTW8qZqcUzZ+Z+cfTam/NrMhcA0BqWa5HI1vfl24YihtreuXvdgb3Vr3zn8snqWkwGALSCvLev/6a3Oru6qlcu//tVeeaZKz94vPrYq+XW3R13b27bOnvtsXNlucZjAgBNqqb9IuViOfpK9dBzi0WWbdlcyVd7KACgZaxg72pbW0TE5WpZrNYwAEDLqb1FsoGeShYxPeMBDQBQNzW3SJYNdGdZWU7PFNZFAIB6qb1FKoPdEVFOzloWAQDqZgX7RfJKRBkLVkUAgPqpuUWKxROvFkWl8sD7OjY4SAMA1Mmyd53dUP7p8MzDbV0H9/aM7C3GZ8qFiCiLJw5dfOTc6o0HADS52lskIqL9tsr69sgrlTs2RkREmfV3rMZUAECrqL1Fsncd6P7ye/PJ05e/+tOrL02W8/awAgD/s5pbpJLv3Z3nUfzxd9VTE6s5EQDQSlZwjibLIiLcdAYA1FHNLVIWk5ciIutbn63iOABAi6m9RcqJ2bLMsv6ebAVrKQAAS6q9K8qpi2UZ0d9TsTACANTLCtY4qnNlGbG+y7oIAFA3tXZFx0DHgXfnlYiJqWJxVScCAFrJcmd6s8pHPt178K5scKDSlcfi5NyPjy/6RhoAoF6WvV8k6xnI7xwsL00tPPPi3E9+XX1hei3GAgBaRLZtePtNbw1u3DQxfiHJNABAq7EPFQBISYsAAClpEQAgJS0CAKSkRQCAlLQIAJCSFgEAUtIiAEBKWgQASEmLAAApaREAICUtAgCkpEUAgJS0CACQkhYBAFLSIgBASloEAEhJiwAAKWkRACClfwIAkuv/L2saIQAAAABJRU5ErkJggg==;" vertex="1" parent="1">
          <mxGeometry y="270" width="302.6" height="163.13" as="geometry" />
        </mxCell>
        <mxCell id="R1Sj7afmYKt7WFE0D8gf-10" style="edgeStyle=orthogonalEdgeStyle;rounded=0;orthogonalLoop=1;jettySize=auto;html=1;entryX=0;entryY=0.5;entryDx=0;entryDy=0;" edge="1" parent="1" source="R1Sj7afmYKt7WFE0D8gf-12" target="R1Sj7afmYKt7WFE0D8gf-6">
          <mxGeometry relative="1" as="geometry">
            <Array as="points">
              <mxPoint x="360" y="550" />
              <mxPoint x="360" y="330" />
            </Array>
          </mxGeometry>
        </mxCell>
        <mxCell id="R1Sj7afmYKt7WFE0D8gf-12" value="" style="shape=image;verticalLabelPosition=bottom;labelBackgroundColor=default;verticalAlign=top;aspect=fixed;imageAspect=0;image=data:image/png,iVBORw0KGgoAAAANSUhEUgAAAj0AAAFTCAIAAABd5SrhAAAACXBIWXMAAA7EAAAOxAGVKw4bAAAgAElEQVR4nOzdd1wU194w8N+ZmWUbS3GXsvQmIE0ERLFh7N2oiSYmJsb0mxuT3LzmpnjNE1O9Kd605z6mamKMmth7r1EBFQsISpVelrbsLttmzvsHiIAgu8susHq+n/wRl9k5Zc6c35w5Z2bRkIThNdVVQBAEQRD2gOrrDBAEQRCEGUjcIgiCIOwJiVsEQRCEPSFxiyAIgrAnTF9ngCDuAzx6+BjBzBhegCvilTa9/J22Evd1lgjCbpG4RRC2hQS8F153ejIANd/cMKgROesIoifIGWRLVOC891dM96Kb/4Uxa1DXledfTTmy5+iVKn3f5q0NOuzxT96YJKWwNn3NG1+fUTUPBZB4+EtfPBsvRFzVgY//uSmX7eNc2i3PEaLH/BHU67/+Ub0th1WRiiSIniHzW7aH2ab6qqqqqmpFg57n6hfzwPxXV745P9IR9XXG2tEqlTp++NAo8a1sCaOGDOJrGxp0fZqte4C3nGYQlKZofs8mQYsgrICMt3qB8ux3b67PMgIA0JKAkY8++9jIgMnPLch5+6d0db+Z5mAq8q/RgyMSosQp51QYQBA+ZJBAk5NdERHr2td5s2+aJowBaLp/XacQhP0i463exTYWnvxpzf5ijnJJSI6T9KOuDAkq8rI0gkEJ0SIEAPywIVEiTWZepaAf5dE+1Sk5DsDFCZGTjSCsou14ixo8btx7UfjAoWvaiPBJng7K8pvfHSzQR0Q/Hytzx+qU1CvfXm7Qtv02LYobHDwr3G2gq0AIxrq6+gvZBVsuV1fecTOEcZRNGxY0zt/ZS8xzoMCg01VUKU5dzt2Rp9ZZuiUwoiHRgVNC3cIHCB1prlGpzMwr+vN8acEdN7ZoiduDSSET/J3d+aCqrz19MXtTo99/5vi7KG689nvOzbZDHpNL1APG0quZihl+Mi8/DwqUbffMc4seP2Ni0uBAT2cBaBsq8q+e3b/nyFWF4XaZI5744vWx+MSP63UjF4wJdlTlHl3/wwHDqCWPT4qUcRXpO39Ye6SwXQU4eMROnDl+WGSAhzMfdA2VBddSDu09lF7ZcXqNchGV7c/UxEcnRInOpRhCY6McmzIulAkfo+COCu0+n7ey6xo5btbUEdFBni5iHsUZtcqqwszUwzsPXKzQW7olOLhFjZ0yNjE6xEsqYgxqRcn1i0f37j1bpOk4dqUHRE2eO3tUdIBMBJrKnNT9G3fWPPDesvFOxVvfe297CWdJiSzQoMQcBkZCOSFQ9JvxNUHYL1ru5dOkUQMAAPIMDHzAnXESQWFOeYZeHBfskeDr6sbWnrihdPD0HDZQShcVX1bdOvN4LvMeTFoaNcBTwFUrlGUacJa6RgV6jfXmruTU1bbpFJDQ4+8Lhs71FbvwsFqtq9eyHE/gMcA5ZqDXQG3VqUo9tmBL/oDH5w7/W6TU15GHddoaHTg5S4K8PccF8vNyqsqNbVIXey59OGG2j0jCYFVjk4pxjA338uUMUndHgabmQEZtQ+umJpfIVMg1YlxyqERXcObgFcXt7yNh8MixEc5cSerB9OrWj/lB0/6xfElyqLtIX1NSVKHETl7BYTEjksKMWWk36lvCG+U2ePKIAKHECRWfT7mu9YwakjA4IniAMetcShEvOG5IQgSdefxaHXcroYGz/9/bT4wKcXfiY41SZeS7unkFRA4fMQjdOH+99lYtUbKYCSNDHOsu/pFGjxwexSs6dkk8buEDntk7N1cFT4+Xa/NOH86sxebkEwAASeIWL39taoTcWcBp6uuUah12cJHJAwYlJgWqLqYUqLAFW4rC5i57+4kx4V6uQqypq1MjRzcv/7CEEbGSm2nt1rogl6FL3n5lUribowOnrlGoHeSRSUlerNrV34uvzDpxIlvZulOTS2QhJ968JEaoNe47ZaglcYsgeuyO+S1ElWdlrc/Q4Qz1AJ/EycLGnUdzr7AoFbt898CAhEDH9RXNIwQUFB+90Junq8z/ZPf1dBUHALTYbdHMuAe9Q/8eV/16SutAArmHByU7IYOi8JMdWRdUHAAA5RCeEP9u0oCYIb4Dr2Zlc2ZvOTAhZq4nz1BX+v2Ba0cq9SwA39lzyYzYyTK/Z+NL/n66tbehwuPCk50Q11i+ZueVgwojBuTiHfL65CBxx/tfppfIFmi/qUseDBXpC/d9+9UfGXVGAKBdouYtXTo5dO7iKVdW7ihqE/eYyjO/bz3egJkKl/A3kiUlh9btyjKiS1zwqkWhMYO9t+Td5AAAaP+pT80IFnKKtN//u/Z4fiMHtGPg2EUvPp4QPOvJqZfe21rQJr4DEorh2vlrTYkRsZEhdZHOTRkXs5BkHEIW5hNJk6YNl1LG4oPfrt54pc4IAEBJgmcs/ceDYYMmjQ06/vutJYqmb0kHTl8yLVBorPhrw3e/ny5QsgAO7kMfefn5ZJ9xC6eeWb65ddUjEzJl/nAZhWtSf/3yp5PFGgy0U9is55+dLOpJzVsEs9iAAdFkMpkgrOPOW+5YpTVgAMB6pQ6wTt+IWz7kABwFDi29GOU8KlTC4KYjp1u6eABg1dUbTpdUY8ovVB7YZsduzkIKcPGNm61bAqfPvnDhlV9O/H17fiFnwZYMoyzffj7nf/dfPVipb+6qdA0Va89VqjHy8JV5tfa1lOMQPxEFxovnMg4qjBgAANeX5n6Xoe7YiZhTIuuj/BMTvRlcc3rTn81dJwCw9RnbNp+qwYxP4jC/tqljTqNSYwDgGlUaDjQqNQcAWK1SYaDEjo4t21J+8fFyGlTnN/14LL+RAwBgVQVH121OVQMtj0/waV8i5MBjNBkXrzUJw8dMjnTTZZ2/1sRz4LcPW2bkk5K6SSnElaYea90SuMa8vV+9+/Y/l3+xr5gzf0skoBVp+/fuXPd/P58oaLmM0Felbd52QYMpWUSER2vqlFdkpIzCuqvbfzlZ3HwDkVVe3/HbiaqOyyPMqnkL0FTiUAc3ChQ5hps9DIAEQQCAuesJb197U0IPCQJOlV/T7lw01CiLOXBzErsjyL31YZ1Kh0HoHSgPuZJ7Q3frRgmrr6rrOHNh8paGa1evX7sje3p1kxKDiM9zRAAtDyHxXUUAXFN+taHNHRpcXqlUYWfHtl82p0TWx0jdpBRwZUUlbYdAYCy5Wc6BVOYuo6HQtF7vdrdMS2VSCtiy/MKmtmVvKswvY5MGSt2kHfZJMzRoMs5f08XHR7s0XdyXoQEXhrY4n7ihvgHDAPngxICj2/NbJ5+MjYqKxvY7NXlLrM459mfOHUXW19c2YhCKHG+PoSknZycKsKKouO2KTa6qoFCNA8QWlshUTJDov0/zpQgAkNiJcqa46+fU/95qaDJvNwRBdM7SWxcI0QgAiUePiApue/uMFvsgQIBoCqDlc1x2/eaFIc6J8tBVS3zzK+oLa1Q3FQ03SmtuNBjbdwimbwkAwIichwRJg5wchHRLPKVEA5xQ2+gK0JwTwB2/z3LG9h+YUyIbQDSFEFDyxIcW+bfNGeMppwBhmrbgqp9iGAoBGA0dimo0GAEQxTAd9okoCrDm6oGtB2rcofL8VQ2GAVSH0YkZ+eQqzx25OumZ2JAH3/5sdFFeQXFZSWnxzfzrWfnVTe2PhulbAgAwTgFRsYP83JwETEvukHPYHSszaZoCwKzR2H5CiWU7HkMb1DxyoLzcaLdbWcJGAA7ryJNbBGElPbvlTolio/xj7/y8/SmKG0s+38I+PCJkQoBTsJ8wxK9lo/L83G+P5F1tswzM5C2RZ1jM8vE+vrxOMtWjmzGmlchWKLfI5AmRfZU6AABgzfUjm67fyk8XG5mWT1xzas0q/Yy5M0bH+PlHyQKihgIAYF3V5V1rf97VZl2E6VvS7sOXLF08yovfyeL8nh13a9a8IVs1/TkVAAACsSsz/RGnfyQ5ftzIPvanof+8JIUg7FfP4hZbufr788dNeKGCtrb8193l62kHT6nEb4AkQO42JszNOyj0TaRbuqu4Bpu3JXL2f3m8jw+lPnnk0s/ZDbW3rqlpj/Bv5gd7tksZsxwAoI5jC5rqvOQml8gmDBe/f+U/Z/v/7SST86krS9nyTcpWnsTN28fby8c3OHpY0mDP2HkvLalf8eXJOmzelsh93OLFo+R05bl1azafKajXt4QqKmjBB+9Md2+XMstyAIhmmA7LSugONz7NLZF5MKhrjduO6p+MFfhE8vy3GnLIFBdB9Jilk84YsxgAqI7x4O5fYvXlVTUp2YWbjqW9tjU3n0ViX89Yvtlbuvh5hPFAX5T7XUZ9bdsbQXdehWNdjQaAEga58dr8EcndnTq+ZsmiElkGCUUCBFinu72uH7McxoAYxopvVeCMRg4DMLyOc1Q8BgBzxk7uvXbLonxiQ2NVYVb6mUM7f/3ivVU7iowgGpQQcceCzu62RE4RcSEOYMjcueFEXmvQ6hzXUN/AAZL5+bZNhnIPCOiYrC1qvlPk+W2CsBJLO2lOU6HEQDkGy9p1ikjk+kBs4MxIqfT2WeowMMRn/CCv8PYdhr6mvtCAEWKEtwOKiVsiAY9GAJyR7fBUqMhZ7NKhQJzqUpGGBSZuWOQEafO1N3L2Dnk2Uqjr8CSNGSXqIcY7KlJGYUNZUUVr32tUVCk4oLz829/6RE4DR0ycPHHMIFcLUmcV1TUc0F6BAcK2MVvoH+RFA66pUlhwE8z0fCJJYMKokSOHhbi0P5qleSVaQJRQyDd7S76ADwg4nc7Q7tghkbuHc4f64cozMqs5xI+etWiUd/MrP2insFkLx8j0HY67LWq+PcYRSQC4Rq6ePLxFENZgcdxS/pXTaETCcaPCEiQtO0E8x3FjYl9OHvRIoOD2KAjRYbHRL0+KfX20j1/rtATiBccEJPAR1qpKWmetTN0S19Q0NmIQ+PnP9Gi9DYTEbv4vDh0AHbsG7vqF7ONKTDl5vfTYhLVPJn/71MQf5wXoims63hMyvUQ9QUsCxix5fqovhevPn7h4+3larigtrdSIpCMXPBwjbbmFifheIx59YcmjC2fFuHZcRWIKrvj8+TIWHIcueCo5oLlItGPA2CfmJ4qBLU1LK7FgvGVGPvnBE5YseebF5xaM9m6Nm5Q4YNzEaDHCqrLyNs/9mrYlri8pUWPEj5448XYkRiK/BxbNCL8jo8b8fZvOVnPIbdji979everjDz/95rM3Jugzs7Qdr1dsUPPtOTtRNAKjCitJ3CIIa7B4fgvnX7i60SfxMe/A5U/6VNaqGzjGbYDYlYfYxvKfTpfdfgkFbjqeWjRlZoBvWMxXIYPq1AY9RnwB34VPIWy4nFZwlTV7S31x/sYizxf8pY/Nf2BseX2RhhNKnMPd6ezLlVWuvn4dMqqp+PaP1NIRAycEOHs4CVF93aGj2RuVvl92nIU3uURmc0p67pMoPQCiBU4uEj6NsLbo4PebL7Vdos0W7ftp56Blc0Inv/LJqOqyikZOIJXLnfmIrTm/cXNKoyVdXss+Hxw47IkVCfOV9WokdpEIaIQ1OVvX7b9p0ZoDk/OJa87uPjY2cILX8KdXJixsqFPpMcWXuDgJGATqa3v2ZxnM3lJ/be+OjPhF0eFzln+elJtb1sgKBvgHB/BzD19UeI7xbp9RrLyw9uPPy+fNHhUT6CZ1g8qck+s27agZuzLZ0hJZysWZogAalBxZUUgQVtGDdRmG+j+2nc6PDZkZLgsd4OwObH1D3V/5JdsvluQ0tTvXVUXX3vyjYW6C73BvJw+JiEbYoNOVlNaeuZy7LafdDzuYuiWn3r/7TF38wFlhsmBPNzk2VCtq9hzI2Vrr8cHgTnLKqhRbDiq2tC22n18n25lcIvMgWujiLgTAmDNo6opzrqYe3XskvaLj4g9d/u7P3r05YcakpJhAr0AZ6JRVOWmXTh3Yf7qg0dLZfG3ers/eLZ44c/ywqEAPFxfQKUsyMlIO7TmUbvnPf5maT6zOWP/xxwVTp46NC/OTSd1oxBm1yvIb2ReO7tyXVs5ZsCVXcfyblQ1T50waFukfHO3OaWqKs458t21facIb4zvJKVuXsfeHjL1tPmEiO7vrZ4uab8NRhBCAVofJcIsgrAINSRheU13V19nobbyAmJ9n+Yqqspduyish3cl9g4l55otXxwgLN6/4YHd5by3tC5jqsmEuA+XaN/+jPkleUEgQPXZf/rQCLUwKl4kRbqpTk/dz30cYWUJSpAhhbUW5JW9JtlTRmabDtUDLBZ9+NGDvR66/PyvwIGsLCaIH7otXfdLysH9P9WldGMbj8yU8BIaG3ZeqtHf9ImHX6JCH3nlxdOtSQ57IScynQVd4+NCV3nxCj2vQrfyYy5wunBHNC5DSzg3ovjjrCMJm7oszCNE8V0fBrYXs2KjXFRVV7j93Y18leQr0XoZ4YmdX15brFYyNuvqyjPRjO7YcK7DGz2qZw1hv2PSbYVMvp0oQ96j7dH6LIAiCsFP35fwWQRAEYbdI3CIIgiDsCYlbBEEQhD0hcYsgCIKwJyRuEQRBEPbk9jp4udzXKnssLy+2yn4IgiAI4k5kvEUQBEHYExK3CIIgCHtC4hZBEARhT0jcIgiCIOwJiVsEQRCEPSFxiyAIgrAnJG4RBEEQ9oTELYIgCMKe3Be/v0Xct2g/4TfPCTzaXJ7dPKJ8/QhLfniNIOzXfRS3kED2+MzBM9yp4quX3j9Z3dDX+SF6AeJRHm60T5u41SRCqOvtCYLo//pj3EIOLuNi3d2h8fT58mLrXRjTnl6T5QIBgpBI77C/qlNZq+2Z6G1CP968p/ixHoAASnZqvtzP3bWdcFVNz6xQZ5AjThD3hP4Yt4DvMi5xYBSU37xgzXcdshVlB8pk09yp0szS66QLs1cI+SbzH5/DyBjQ64Hn0Nf5IQiit/XLuGUbWKv49c+jv/Z1NgjLISE1apFgxmCKNnDpm3SZ/oLHkshNP4K435D1hIT9oHx4yTEUV2nc8lnTbyfZJtzXGSIIog/00niLcZRNGxY0zt/ZS8xzoMCg01VUKU5dzt2Rp9a1bOIwYfb4lwPaxlH5P/8+/fa/uPq1v57ZVt/cVSHPuKRvR7vqsy+8mO7wyMiA4XKxBBkVitq/0m9svtGovf01FD46+eM4cdv9qq6lLT5UZeiQRcp50WMjH3LV7d3+1ylp6OMxHiESBuua8m4W/3E2P72xYxdJS9weTAqZ4O/szgdVfe3pi9mbGv3+M8ffRXHjtd9zbprbo1KB895fMV2uPPrZ/6T4zJs3bkiAVIg11Tevntq1dV9m7R23NR3cosZOGZsYHeIlFTEGtaLk+sWje/eeLdK0JsxEPPHF62PxiR/X60YuGBPsqMo9uv6HA4ZRSx6fFCnjKtJ3/rD2SKGu7T55btHjZ0xMGhzo6SwAbUNF/tWz+/ccuaroWFN9COPKVN2ezYYybffbEgRxj6LlXj5NGjUASCTOVtmjSqXs8AkSevx9wdC5vmIXHlardfValuMJPAY4xwz0GqitOlWpxwAAlE+gd4SI0xpYrREYHkUBp9boNQZW2/yfXnM5syynpaNFjnLf6f5CTgO+sX5BmvqrZQ1VRn6AfMDgEK9BxurT5bpbPT1ylnsnDkA6A6s1sHpMO9DIUF22PV/dcSIfCQbH+EUIOSU94MEIcXVpzTWFFjm5hHu7jQkRFd+oLG7TfSOx59KHE2b7iCQMVjU2qRjH2HAvX84gdXcUaGoOZNSavVgRuUaMSw6V6Bt54VNGyWtuZNworkOywODQ6GEJ7uWpF9p21EgUNnfZ20+MCfdyFWJNXZ0aObp5+YcljIiV3Ey7UqVv3opyGzx5RIBQ4oSKz6dc13pGDUkYHBE8wJh1LqWIFxw3JCGCzjx+re5WNfCDpv1j+ZLkUHeRvqakqEKJnbyCw2JGJIUZs9Ju1PeT6UDcwF6+xCmNLf+UxTjE+aLG64aUXNzFhQI1wOHhkTyJxrjzmKGKDM8I4p7QC+Mt5B4elOyEDIrCT3ZkXVBxAACUQ3hC/LtJA2KG+A68mpXNAYDh5P6jJ5u/IAn44MnIKKj85qeLZ+7aYzp4OtbsO/FJYXPkQ+5hsR9P9opMDE++nnZI1dxL4byUv55KacmJd8KIr0e63DWzvEip5vP1KalqDADIweWROcMWeHotiruZcqruVl6o8LjwZCfENZav2XnloMKIAbl4h7w+OUjc08kWxzDvyjX/WnWpngMAJAya9fqbs4KHz5t8OH1T7q3U6cDpS6YFCo0Vf2347vfTBUoWwMF96CMvP5/sM27h1DPLN+ferjPEVJ75fevxBsxUuIS/kSwpObRuV5YRXeKCVy0KjRnsvSXvJgcAQPtNXfJgqEhfuO/br/7IqDMCAO0SNW/p0smhcxdPubJyR5HZ6zr5w1/6+m/xvC7+aji/5uWvUnRd/LVLLPSTCEoQRN/pjfktN2chBbj4xs101a3ej9NnX7jwyi8n/r49v7AnK91rS3fd1N+6jMZVN3L2V2Pk4BrnRVu8y9yrOWnqll1iff2Oi9VNgDy8B8hbYxLlOMRPRIHx4rmMgwojBgDA9aW532Woe34VUHBs++X6lhrBTfkHD1zWYkoWFu7eeqCQgFak7d+7c93//XyiQNncjeur0jZvu6DBlCwiou0ztoA5jUqNAYBrVGk40KjUHABgtUqFgRI7OrZsS/knJnozuOb0pj+bgxYAsPUZ2zafqsGMT+IwPwuaCdY2VFd1qbpBS0Y/BEFYpDfmt+pUOgxC70B5yJXcG7pb3RWrr6rT93DPBqVG0bb7w5qSeg67Uy5iHgKjJR0jNpTW6dp+UdfY1IDBQ+DgiABaJtf4riIArim/2tBmS1xeqVRhZ0dLytFKXVmhbJu6vramEYNMLLk9ksPqnGN/5tzxTX19bSMGocjR9DHf7Q0ZqZuUAq6sqMTYdgNjyc1yDqQydxkNZl9e6C+tf+eSmd8hCILoXi/ELVx2/eaFIc6J8tBVS3zzK+oLa1Q3FQ03SmtuNBh7+FQxx3WITTg/89p3Zai+zOK1BLjjK4AwxhgAtX3JAqIpAMAdc89yRughrkPqGGMOOqQOAMA4BUTFDvJzcxIwVPOfkHOYxOK7lIimEAJKnvjQIv+2ZWA85RQgTNNk2SlBEP1Gb4y3cGPJ51vYh0eETAhwCvYThvg1f8yW5+d+eyTvqsaKN4xwZVHR3iLr7a8/ot2HL1m6eJQXv5Mw1aPrAMotMnlC5J2fkyklgiD6k15aB6+tLf91d/l62sFTKvEbIAmQu40Jc/MOCn0T6ZbuKq6xs6mO5jEZYjqMQmiqV1a5jFu8eJScrjy3bs3mMwX1+pZQRQUt+OCd6e492bXh4vev/OdskzVyCQAOsY8tfzSyy3UZGRs/+PVKT+8TEwRxP+rV92VgVl9eVVNeVZOSXbgtM/ST+QODfD1j+cVH7OtpHKyr0QCIhEFuPFTduioEyd2dHG3+8gbkFBEX4gCGKzs3nMhTWSveY5bDGCiGoVsn8XoMCVw85Z5dxq1SIXnRBUEQFumFuOUwMMTdj8eVFpVnq2/3ifqa+kIDDuYxQh6CDmvLcMvTOFT/7No41aUizXyZOG5Y5ITKq4drjBiQs3fIs5FCHQa+jRPnC/iAgNPpDO3qDIncPZwtri6jokrBgaeXvy/vVNbtQRByGpg0LEisKzp/KqvO3HCmO/ftc+cszRBBEESXbD/hjuiw2OiXJ8W+PtrHr3VKBvGCYwIS+AhrVSV3zG9hrVZhwEC5xPvz++WCAO76hezjSkw5eb302IS1TyZ/+9TEH+cF6IprrHWPrWu4vqREjRE/euLEgNYRCxL5PbBoRrjle+WK0tJKjUg6csHDMdKWSxnE9xrx6AtLHl04K8a1x+tNCIIgrMb24y3cdDy1aMrMAN+wmK9CBtWpDXqM+AK+C59C2HA5reDqndP+RsWha+rRcY4PzBiX1GRoXpbOKYs++uNGjrkLDxjPl5+ISrj1NBfFOFAA4tDYHwJuPSOlLVu94dplM5ceYE3Ft3+klo4YOCHA2cNJiOrrDh3N3qj0/bKTVQ1Wpr+2d0dG/KLo8DnLP0/KzS1rZAUD/IMD+LmHLyo8x3hbuFe2aN9POwctmxM6+ZVPRlWXVTRyAqlc7sxHbM35jZtT7njLVR+hgxyWPstrHVcyQgQA8knCFWMBAADj8z9qduf2Ve4IgugdvTG/pSq69uYfDXMTfId7O3lIRDTCBp2upLT2zOXcbTmqzkIGm3km9RNDxKORsgAxv3lYwRkZS/KKKLGI79LhKWSG53JrX5iyaLcArEqx5aBiS9u9+vlZtCczcRXHv1nZMHXOpGGR/sHR7pympjjryHfb9pUmvDG+B7vV5e/+7N2bE2ZMSooJ9AqUgU5ZlZN26dSB/acLGvvPjwPTSCxBkvaDcFqAJAIAAMDAv49+34Ag7ltoSMLwmuoqAJDLfa2yx3Jr/maWPeEFxPw8y1dUlb10U15JPxmg3PeYYPHmN4ReCvK7kQRx7yDXp1ZCC5PCZWKENXVqBQla/QwaIPjwfxyaF5wUHlP+82jHh8sJgrAjJG5ZiJaH/Xuqj+utqRYeny/hITA07L5UZV+r+u8HiEFyz5abxXpxx5ePEARhX0jcshCiea6OAmlLF4iNel1RUeX+czf2VZJL+X7EmKee+7y6r3NBEIQ1kbhlIWNJxpKvMvo6FwRBEPedfvl8FEEQBEF0gcQtgiAIwp6QuEUQBEHYExK3CIIgCHtC4hZBEARhT6y/nnBUjMONOpl191lVXGbdHRIEQRB2ioy3CIIgCHtC4hZBEARhT0jcIgiCIOwJiVsEQRCEPSFxiyAIgrAnJG4RBEEQ9oTELYIgCMKe3FtxCyGfUH68W19ng7hHUW68caG0mPx+F0H0qXvmd0yQ7xDh0rnC0R5w6L/6C9XkJ4cJ62N8BCte5ONK/eZt6rUX2aa+zg9B3J9ouZdPk0YNABKJs1X2OECsrtGKrLKrVmpl493+TFNjH3X+z8P8gY5QmpYxtioAACAASURBVK3beU6fo7Ju+laAxJHzli1f+viMOElJemalvq/zQ1gAI+QhZwYG8BITBKOcubOZrOpeuUC699rnvVciopX9j7cQlfSI8wfJNF2v/++PqvXXOaMtU2MGP7f6lVHt7hRxisP/XrbhOnv3L9LBSckhrnwEAaNHBP9x5ZJpuWQGPblq2Xjnsh0rV2wpsvSHlJEwaMTEwTJcmrYntcxuf43Z4pq3Iq5c98kXuh/CRf96WjR8jOOXGD+/QV/Xu6HLRkfTsvbZn/VyifpD+7QhoR9v3lP8WA9AACU7NV/u5/q0J7H7+S3XIeLlY2hGrV+9unGtjYMWAICxqVHZoGz5T63jTO202PyzJ3Jqm3QNhafO5PVySxYGj5w5Z/bMRC+7PtqW1rzVKbI1y1arU9UoYIzjq7FUb8922eZo9mX7tI3eLlG/aZ/WhpDvWMGrr/OHuINBD/2jWHY+3qKZBbP4MoRTt6v/LO+NGjVm/vr2q7/eSj1k/ofLp5i2DASrMrd8/OoW2+XsXmdxzduCvqzpox0OGxbyJs4WbLisuW63o9hW91777OUS9av2aTVISI1aJJgxmKINXPomXaa/4LGk/rAsya6vwIEXxJ8qB9yg23COtf+uoxO4n1zeEHcoP9t0RAmMnD81qK+zQhA2QvnwkmMortK45bOm306yTf2lO7Lv8ZZPKM+NAvV1/SVdp38XxT//+d+GC0q2r3hvR3H7wEYHzPtw+Qx507lv3liTdnthmINb1NgpYxOjQ7ykIsagVpRcv3h0796zRRrLDhgdvOCTt6Z4tLk6wOrTq1/7sfOb7Yxb7LS5M0dE+Q8QsI1l2Sl7Nu5uwJ3fb+g2n0gy+tUvn4ppe3wT//b9L7f/xeZufvuD/VVtaoXnFj1+xsSkwYGezgLQNlTkXz27f8+RqwqDRUUH5D7lXx8sCDac/eqtg5LZD02OC/EQI21dSVbaga270kp1reWiwxeuenOCa9W+D9/6I//2DR0qaMEH70x3r9m/6q0NOZbd5zG5RIxr5LhZU0dEB3m6iHkUZ9QqqwozUw/vPHCxosv5fJ3hVDaeOYyOC6Wp3B5dNnWfunlH0+SaN719UoHz3l8xXa48+tn/pPjMmzduSIBUiDXVN6+e2rV1X2Ztx8NDD4iaPHf2qOgAmQg0lTmp+zfurHngvWXjnYq3vvfe9hLzKouJeOKL18fiEz+u141cMCbYUZV7dP0PBwyjljw+KVLGVaTv/GHtkcJbHYCtSmQTprTPPs4nxpWpuj2bDWVaGydkHruOW8jLnaYBSsvZzsMWaK6lXVYPG+GdMNR7V3G7wEX5xsV5UFh1NS2jNWghUdic11+bHiRCmNUqa2tUDi4eAxOnD4yNDfl21a9XGy0JXay2UakUNJ9FlIOjWNDlAJeSjnr+7WfiXCjA+sbqWq04dMLz/3Q9mHVnqqblk9NrGpRKBgAAOYgchQwYNI2a22cvq9bjNvvmB017bdm8MDEYGiqKc0tB4ukTlTw/Kj72jy9W7y7son5NgSSJTyyNdC/JvHw2T+gZFhWWMO2FiGDpx1/sK7IwIJrI5BIhSdwTb788UkYDp22sq67nKL6jq9egUXPCY0N/e3/1kfIuullcXM6ywHh70AywFi9XMy11M49my567r3nT22fzLmXJL7wc4VSYceFsrsQ3ImbgyIdfDfdZ88Ga8/W3U0cuQ596629JMhqwvrG6Wi0IHPvUMumpnJ7dXxJGJcenpO7bXz9u2vDpz7w6MK/oypEdpbFTpyY++mJt4Tt/5BltVyKbMO+M66N8sgX6n3Kh/8132nXcArEAEIC669Fr07XUK6qkEV5DE3x3FN9scy3vGz/Ek8aqK6nXWsMWHTh9ybRAobHirw3f/X66QMkCOLgPfeTl55N9xi2cemb55lzzDx9buGPlP3a0pOk5bcX7Dwd2saUgctbDcS6IrTyz7ut1Z0qbMNBOYTOfWzxe2PF0Ny2fWJ2y5rUUAABAAyYuW7UoHKevff2b850vXKH9pi55MFSkL9z37Vd/ZNQZAYB2iZq3dOnk0LmLp1xZucPixYzgEOJT99+3v72ixAAAtGz4C28+Oyx01vykc5+ftOFSPNNLhKRJ04ZLKWPxwW9Xb7xSZwQAoCTBM5b+48GwQZPGBh3/vasDr27CGIAvQD24225a6uYdzRYm1Lzp7bOZY5h35Zp/rbpUzwEAEgbNev3NWcHD500+nL6ptZKYkCnzh8soXJP665c/nSzWYKCdwmY9/+zkHj0cg5jKM79vPd6AmQqX8DeSJSWH1u3KMqJLXPCqRaExg7235N3kbFUiWzD3jDMhn/zhL339t3heFwkazq95+asUsy9A2X4YtMDe57dQc59+l95Pey3tSiOmPBMSfNsUlfaJj5dTuPFKSlbr8BcJaEXa/r071/3fzycKlM0HS1+VtnnbBQ2mZBERHjatKto/KsIZYVXa5nV/lTbHYVZ5fedvf9UJOsQtW+ST8k9M9GZwzelNfzafQgDA1mds23yqBjM+icP8LC87wqV/HcpQ3jpErCJ12/EiFvFDo0MFFu+0e2aUiJK6SSnElaYea90SuMa8vV+9+/Y/l3+xr7jriN0ywkHQg5GE5al3xyY1X3Bs++X6ljzhpvyDBy5rMSULC3dvrU/KKzJSRmHd1e2/nCzW3GrJO347UUX3ZMCFOY1KjQGAa1RpONCo1BwAYLVKhYESOzpa3EK7L5EtmH/GdZ9PrG2orupSdYO2v0xOWYF9j7dMoM1OvaQcMcYjIdF/e2FBczdPeccPkVNYeTk16/b1B1bnHPsz547v6+trGzEIRY62fbsP7eTihIAtK7jZ9j4yV11YqMYBjm23tEU+GamblAKurKik3QW8seRmOQdSmbuMhkILO1BsVFTWtv0uV11eacQBjMRZjMBm87xmlAg31DdgGCAfnBhwdHt+6wShsVFRcden3a3DdqnboubVlRXKtl/U19Y0YpCJJbdbHeXk7EQBVhQVq9tsyVUVFKpxgNiSRLvXg1PThBLZgtlnnAn51F9a/84lW2a6H7nn4xboslMvN4we454wNGBLQR4LAJR3whAvGjekn8/uOGxmnAKiYgf5uTkJmJbncpBzmKQXFn4imkIIwGjsMCpn2U6H6VbOZ3PqlDzxoUX+bc8jxlNOAcI03YNrT67jwhL25qnffsuhG3LUlu+0W2aUiKs8d+TqpGdiQx58+7PRRXkFxWUlpcU3869n5Vc32X6Rqg1Tt0HNcx3Wn2CMOQBAqE3To2kKALNGY/vUu2jJfc2UEtmA2WdcH+Wzv7LvuGXSNaM+O+1S/eix7nEJQVvzcoxAe8fHe1G4/lLq9XaT6bT78CVLF4/y4nfSEvrTInub5ZNyi0yeEHnn51bubzhF5vGjmdbdZxdMKxGuObVmlX7G3BmjY/z8o2QBUUMBALCu6vKutT/vylba9vZKL6beizVPmKKXzrh7kH3HLb0RMADf4e7XHPobaRfrx4yXxQ8N3JKTw3nFxXlRXN2ltHZhC7mPW7x4lJyuPLduzeYzBfX6lhDQshrbdmUwkw3zabj4/Sv/OXsvvSzW5BLpylK2fJOylSdx8/bx9vLxDY4eljTYM3beS0vqV3zZ5fIRvkPzGBn3sJ+xLPX+imU5AEQzTPuzkqbpPspQ/2XdM84h9rHlj0Z2uS4jY+MHv165V97SaNdxC9fUchhoDzeKhrs9QGPISU2ve2CcNCEheHOeOn6IF83VXUzLabsMGzlFxIU4gOHKzg0n8vrgZamY5TAGxDAdTu6OZ7tt8tmcOsUwNDJxEGtVRqMRABimfWNEDMMDAJY1WpAji0qEDY1VhVlVhVnpZw7tPzn3reWz/QYlRIhP/dVFRcvdKApAUWudV7WZm3o/xTXUN3Agkfn5itHN1tEi5R4QQH7/5TZbnHFI4OIp9+wybpXesTLZjtl13IKCQqMG0wMG8oIpQ/ZdA1daeu3YCQNiBgeeUg/xprnai6m57Z8e4gv4gIDT6QztWhESuXs4d3W8McuyGBBN9fwddayyXolBKg/wE0BN6wUY5ebv3+FstyifLY+jdrle26ioUnDg6eXvyzuVdfuSDDkNTBoWJNYVnT+VdcdVP3IMm/74Q0leUHb2j3X7b/Sgc+UUVQoWu7sEBkrRjarWnk4aFOyMMKuorL1z193WvOklQpLA+MFefENlZmpum0dh9KV5JVrwFwiFfIBOf16AYuIHUhTGNwrZrpejd1dLFqTe7dHsW1x5Rmb1TF+P6FmLRhX8eLpU2/xEx8IxMj0Gh86/Y7221E9YsX2aTnfu2+fOWZ5nu9I/276p1Nn6lCagPQUPht89chjz0i7UcpQsasSYSB+Kq0k/n9u+r8H1JSVqjPjREycGtF6XIJHfA4tmhHe5V1xTpWAxcopKGuzaw5sgbOHVzHoOSRLnL0ryal76TksGzliY7N5+tGFJPrG6rlaHgQ6MiXLp/HhzRWlppUYkHbng4Rhpy6UM4nuNePSFJY8unBXj2km/TPmMf2xeYoivT8iweY9P9O5JO8INl1OztMAET39qepgzDQDAuAyavXh6MANNWSmXO5ni6bbmzSgRP3jCkiXPvPjcgtHerTVKiQPGTYwWI6wqK+9ihkkULpjiCVyT/lh21x1M97VkdurdH80+Zszft+lsNYfchi1+/+vVqz7+8NNvPntjgj4zq8t12FZsS/2ENdun3UGuD7z53U+//PTzzx8+HGSjgZF9j7ewSr/hJJs8mZ4xX3Rwlfpi13eKjfmpFxQTJ/mMGWNksOLC+fyODUN/be+OjPhF0eFzln+elJtb1sgKBvgHB/BzD19UeI7x7jz5xgsHT02PHOc+eumnwzQq7a3nMEr2fPb5/nIOwCH+qY8WD741cqccHCkAUeILn8UYbuX/3Pfv/nbNCAC6zF2bL8Q8m+A56pn3h85XKDTI2U1qSD+W0TRuWNuhvyX51GeePF2ROEk+4u9fxKvVzTNinOLY1x9uLWgZpLJF+37aOWjZnNDJr3wyqrqsopETSOVyZz5ia85v3JzSyatCEF/QujCkzf9aBNf99evGmLeeiIuc+8/VU+pr1UgywFlIg1Fxfv2GM51dd3Zb86aXCNec3X1sbOAEr+FPr0xY2FCn0mOKL3FxEjAI1Nf27M/q7K0eSMh7dj7fE0Hhyabjd/mxt25ryYLUuz+aJjOjfZoBKy+s/fjz8nmzR8UEukndoDLn5LpNO2rGrkzu4gtWbEu2KZHZrNg++xYd5LD0WV7rnRxGiABAPkm4YiwAAGB8/kfN7tx2X0Gi0MggGgHW5x4/XmCjmrbvuAWAM/aoNkU7LfQWrnoZL/9Ok1LfxYbG/PMXqyZO8XTgcZUXU+8IWwBcxfFvVjZMnTNpWKR/cLQ7p6kpzjry3bZ9pQlvjO8ydU3mb59+1fDw7DFRflKJU8uaVNZR0HKNhXgiJ2enDnecHUROt26XYErYegBwzZnvP1KXzJ01MtpfKpVC2fUjP2zcXT9h5bie51N3489P/1e7cPaYKB8XJwFCAMDpBO0mznX5uz979+aEGZOSYgK9AmWgU1blpF06dWD/6YLGzrpDtuDY9r8iFibJoSxl+5GCHq5MYCtP/e97VeNmTR01OFgudYWmusKL6Sf37DmZo+y8L+6u5s0oEVZnrP/444KpU8fGhfnJpG404oxaZfmN7AtHd+5L6+QlT7Qz7+nnJI96I0Np06o9xrtNdXdfS2anbtLRNJE57dMsbF3G3h8y9rb5hInsOn9WbEs2K5GZrNg++xaNxBIkaT8EpgVI0vzoOgb+HdXJC44YyEeAVZcOn1XYKvyiIQnDa6qrAEAu97XKHoPdKm/Uyayyq1ZVxWV3+SvPjb/8Vccp7ghr2BOnmjYe1qZ3Fb0IogcoF96c8YJ5o/nBYjBU6T74T+P+6r7Ok51gYp754tUxwsLNKz7Y3dULH/slOmDyS/OHOHYddbEq/ff/HrD0ufx7Dh3y6IdvTXWHqkP/fuv367Z6Bam9j7cAAAzVuvc+5q4tED+XyDwwSazP06Wn95NhNnFPYQIFL0/mCzHOO6f5ZFPTlbvcISTaYmQJSZEihJsqymvtrINHIo+QsDCXu8SthjIx1b8e8exDlOegQVIKG/OPH8+x4Xuz74W4BQCcyrDpx/q9+xymjnBgbPygKHHf4pTGgweNJ89oz5Rh0k/dBR3y0Dsvjm6dFuGJnMR8GnSFhw9d6cFPC/QJ47Vflj79S/fbEQAAyCVskA+Fmy4fPVVhyzPkHolbzRrL9Jv/vFeerCP6H2Ne00d5fZ0Je4B4YmdXV9eW115jo66+LCP92I4txwps+9s1RN9CorCIQBrXpRw532DT0cO9ML9FEARB3D/ugWclCIIgiPsIiVsEQRCEPSFxiyAIgrAnJG4RBEEQ9oTELYIgCMKekLhFEARB2BMStwiCIAh7QuIWQRAEYU9I3CIIgiDsCYlbBEEQhD0hcYsgCIKwJyRuEQRBEPaExC2CIAjCntxbcQshn1B+vFtfZ4O4R1FuvHGhtLjr3xAkCKIX3DO/v4V8hwiXzhWO9oBD/9VfqCY/HUlYH+MjWPEiH1fqN29Tr73INvV1fgji/kTLvXyaNGoAkEicrbLHAWJ1jVZklV21Uisb7/Znmhr7qPN/HuYPdITSbN3Oc/qc/vcD6kgcOW/Z8qWPz4iTlKRnVpJft7RHGCEPOTMwgJeYIBjlzJ3NZFX3ygUSaZ+EHbH/8Raikh5x/iCZpuv1//1Rtf46Z7Rlaszg51a/MqrdnSJOcfjfyzZcZ+/+RTo4KTnElY8gYPSI4D+uXDItl8ygJ1ctG+9ctmPlii1Flv7uNRIGjZg4WIZL0/akltntz8tbXPNWxJXrPvlC90O46F9Pi4aPcfwS4+c36Ot6N3TZ6Gha1j6JVv2hfdqQ0I837yl+rAcggJKdmi/3c522PQd3ZvQkXmw4JXNCoMOKIuOlE4ZTVzhrXwfZ/fyW6xDx8jE0o9avXt241sZBCwDA2NSobFC2/KfWcaZ2Wmz+2RM5tU26hsJTZ/J6uSULg0fOnDN7ZqKXXR9tS2ve6hTZmmWr1alqFDDG8dVYqrdnu2xzNPuyfd4b+k37tDaEfMcKXn2dP8QdDHq4S7FE4fyX3hRMG0F7OkJDFadkQR7Om/a88G8P0iIrnyV2Pt6imQWz+DKEU7er/yzvjYZizPz17Vd/vZV6yPwPl08xbRkIVmVu+fjVLbbL2b3O4pq3BX1Z00c7HDYs5E2cLdhwWXPdbkexrUj77KF+1T6tBgmpUYsEMwZTtIFL36TL9Bc8ltRFCBLQ0x/n+fCh8ox23Z/GSi0AQp6J/CcfY3wn8KdkNW29bsUO2q6vwIEXxJ8qB9yg23COtf+uoxP4bpc3RF8qP9t0RAmMnD81qK+zQhA2QvnwkmMortK45bOm306yTV13Rw6hvBhX4Cr0GzcaK7UAAIBxRYp203GOo6jBw2ieNfNl3+Mtn1CeGwXq6/pLuk7/Lop//vO/DReUbF/x3o7i9oGNDpj34fIZ8qZz37yxJu32wjAHt6ixU8YmRod4SUWMQa0ouX7x6N69Z4s0lsUPOnjBJ29N8WhzdYDVp1e/9mPn0weMW+y0uTNHRPkPELCNZdkpezbubsCd32/oNp9IMvrVL5+KaXt8E//2/S+3/8Xmbn77g/1VbWqF5xY9fsbEpMGBns4C0DZU5F89u3/PkasKg0VFB+Q+5V8fLAg2nP3qrYOS2Q9NjgvxECNtXUlW2oGtu9JKda3losMXrnpzgmvVvg/f+iP/9i0qKmjBB+9Md6/Zv+qtDTmW3bkyuUSMa+S4WVNHRAd5uoh5FGfUKqsKM1MP7zxwsaLLO/M6w6lsPHMYHRdKU7k9umzqPnXzjqbJNW96+6QC572/YrpcefSz/0nxmTdv3JAAqRBrqm9ePbVr677M2o6Hhx4QNXnu7FHRATIRaCpzUvdv3FnzwHvLxjsVb33vve0l5lUWE/HEF6+PxSd+XK8buWBMsKMq9+j6Hw4YRi15fFKkjKtI3/nD2iOF7ToAE85i/sBHlr8x1YuqPPzpit+ztbe/GvTwO2/N8EEVRz7/n9+z7tJPW4Mp7dPMmrc2jCtTdXs2G8q03WwocUd8BKpctrR92ynOZjXjKaEMSRDUWq067TpuIS93mgYoLWc7D1uguZZ2WT1shHfCUO9dxe0CF+UbF+dBYdXVtIzWoIVEYXNef216kAhhVqusrVE5uHgMTJw+MDY25NtVv15ttKTSWW2jUilo7hcoB0exoMsBLiUd9fzbz8S5UID1jdW1WnHohOf/6Xow685UTcsnp9c0KJUMAAByEDkKGTBoGjW32xSr1uM2++YHTXtt2bwwMRgaKopzS0Hi6ROVPD8qPvaPL1bvLuyifk2BJIlPLI10L8m8fDZP6BkWFZYw7YWIYOnHX+wrsjAgmsjkEiFJ3BNvvzxSRgOnbayrrucovqOr16BRc8JjQ397f/WR8i66WVxczrLAeHvQDLAWTzyblrqZR7Nlz93XvOnts3mXsuQXXo5wKsy4cDZX4hsRM3Dkw6+G+6z5YM35+tupI5ehT731tyQZDVjfWF2tFgSOfWqZ9FROz6Y4hFHJ8Smp+/bXj5s2fPozrw7MK7pyZEdp7NSpiY++WFv4zh95LZVh4lmsy9m27mD0G1N9Hnh8VurKzXnNx48JmLposg/NVRxeuy3bxkHLvDPOpJq3PrZA/1MumBIcaRoBgPHOc9oABgxCGigE1rt7ZNdxC8QCQADqrhtY07XUK6qkEV5DE3x3FN9scy3vGz/Ek8aqK6nXWsMWHTh9ybRAobHirw3f/X66QMkCOLgPfeTl55N9xi2cemb55lzzr23Ywh0r/7GjJU3PaSvefziwiy0FkbMejnNBbOWZdV+vO1PahIF2Cpv53OLxwo6nu2n5xOqUNa+lAAAAGjBx2apF4Th97evfnO984QrtN3XJg6EifeG+b7/6I6POCAC0S9S8pUsnh85dPOXKyh0WL2YEhxCfuv++/e0VJQYAoGXDX3jz2WGhs+Ynnfv8pA2X4pleIiRNmjZcShmLD367euOVOiMAACUJnrH0Hw+GDZo0Nuj4710deHUTxgB8AerB3XbTUjfvaLYwoeZNb5/NHMO8K9f8a9Wleg4AkDBo1utvzgoePm/y4fRNrZXEhEyZP1xG4ZrUX7/86WSxBgPtFDbr+Wcn9+jhGMRUnvl96/EGzFS4hL+RLCk5tG5XlhFd4oJXLQqNGey9Je8mB2DOWazL3fHzgei3pvlMfnxa6kfbCw3AeE96Yoo/jy0/8MtWWw+1zD3jTKh5/vCXvv5bfFe34wzn17z8VYrZF6CsSUGr19n3/BZq7tPv0sK019KuNGLKMyHBt01RaZ/4eDmFG6+kZLUOf5GAVqTt37tz3f/9fKJA2Xyw9FVpm7dd0GBKFhHhYdOqov2jIpwRVqVtXvdXafMpwyqv7/ztrzpBh7hli3xS/omJ3gyuOb3pz+ZTCADY+oxtm0/VYMYncZif5WVHuPSvQxnKW4eIVaRuO17EIn5odKjA4p12z4wSUVI3KYW40tRjrVsC15i396t33/7n8i/2FXcdsVtGOAh6MJKwPPXu2KTmC45tv1zfkifclH/wwGUtpmRh4e6t9Ul5RUbKKKy7uv2Xk8WaWy15x28nquieDLgwp1GpMQBwjSoNBxqVmgMArFapMFBiR8eW9M06O/S5u9buLTYyflOfmOTD0PIJi2YGO7BlR9Ztvd7dXbGeMv+M677msbahuqpL1Q3aXpsrlyUJ3vpc/NbTjNRWnaZ9j7dMoM1OvaQcMcYjIdF/e2FBc0OmvOOHyCmsvJyadfv6A6tzjv2Zc8f39fW1jRiEIkfbvt2HdnJxQsCWFdxse8Zw1YWFahzg2HZLW+STkbpJKeDKikraXcAbS26WcyCVuctoKLSwA8VGRWVt2+9y1eWVRhzASJzFCGx2UWtGiXBDfQOGAfLBiQFHt+e3ToEYGxUVd33a3Tpsl7otal5dWaFs+0V9bU0jBplYcrvVUU7OThRgRVGxus2WXFVBoRoHiC1JtHu3m7yZZ4c+f9favYPfnBU8df50xE4ZyGfL9v+8/Yato5YFZ5wJNa+/tP6dSzbOtykQChzCSIUAMUwA32ibHN3zcQt02amXG0aPcU8YGrClII8FAMo7YYgXjRvSz2d3HDYzTgFRsYP83JwETMtzOcg5TNILT+ggmkIIwGjsMCpn2U6H6VbOZ3PqlDzxoUX+bc8jxlNOAcI03YPLJq7jwhL25qnffsuhG3LUlu+0W2aUiKs8d+TqpGdiQx58+7PRRXkFxWUlpcU3869n5Vc32X6Rqg1Tt0HNcx3Wn2CMOQBAqE3To2kKALNGY/vUu2jJtmDO2aEv3PPTvsHLZ0XNnQPAlu5Zt+NGDyZzTWb2GWdKzfcTGGcd1WeKaLhmyLbVFYB9xy2Trhn12WmX6kePdY9LCNqal2ME2js+3ovC9ZdSr7ebTKfdhy9ZuniUF7+TltCfFtnbLJ+UW2TyhMg7P7dyf8MpMo8fzbTuPrtgWolwzak1q/Qz5s4YHePnHyULiBoKAIB1VZd3rf15V7bStrdXejH1Xqz5PmP+2WEoTj1fMt0/iEFs2fmzBb0RtW7ppTOu16my9T9nt/w/bZMU7Dtu6Y2AAfgOd7/m0N9Iu1g/Zrwsfmjglpwczisuzovi6i6ltQtbyH3c4sWj5HTluXVrNp8pqNe3NPKW1di2K4OZbJhPw8XvX/nP2XvpZbEml0hXlrLlm5StPImbt4+3l49vcPSwpMGesfNeWlK/4ssul4/wHZrHyLiH/YxlqfdXLMsBIJph2p+VNG2bHqwdC84OynPcY9MCaYNKhcW+kx8fl/rvQ+W9FTese8Y5xD62/NHILtdlZGz84Ncr98p7J+16XQauqeUwgIcbdfdTwpCTml7HDCDpYgAAIABJREFUUdKEhGCG8oof4kVzdRfTctou2UROEXEhDmDI3LnhRF5rc+89mOUwBmCYDiXpeLbbJp/NqSOG6dHUucWMRiMAMEz7iyjEMDwAYFmjBR23RSXChsaqwqz0M4d2/vrFe6t2FBlBNCghousJQ7kbRQEoajt/VZvZWTYz9X6Ka6hv4ADJ/HzbZp1yDwiwfVHMPzto+fgn5w0SsmWHv/7mYAkrCH/wyYlevRBgbXHGIYGLp9yzy/9c71iZbFUsiwGAuTNs8oCHAFhgrXn9Zd/jrYJCowbTAwbygilD9l1aqSEnLb127IQBMYMDT6mHeNNc7cXU3PZPGvAFfEDA6XSGdtWLRO4ezl0db8yyLAZEUz1/Rx2rrFdikMoD/ARQ03oBRrn5+3c42y3KZ8vjqF2u1zYqqhQceHr5+/JOZd2+JENOA5OGBYl1RedPZd1x1Y8cw6Y//lCSF5Sd/WPd/hs9eDE6p6hSsNjdJTBQim5U3doPJQ0KdkaYVVR28rRitzVveomQJDB+sBffUJmZmtvmURh9aV6JFvwFQiEfoNOfF6CY+IEUhfGNQrbr5ejd1ZIFqXd7NPsWV56RWT3T1yN61qJRBT+eLtU2P9GxcIxMj8Gh8+9YrS2ZeXbQXhOWPBgm5CoO/rYr6wZaf3zoG+ND5z456eqn+0p79KZTK7ZP0+nOffvcOcvz3EONVViHwTGE9mLY4jaV5xtOixBoqjiLnn/tSv9s+6ZSZ+tTmoD2FDwYfvfIYcxLu1DLUbKoEWMifSiuJv18bvt2ietLStQY8aMnTgxovS5BIr8HFs0I73KvuKZKwWLkFJU02LWH12hs4dXMeg5JEucvSvJqXvpOSwbOWJjs3n60YUk+sbquVoeBDoyJcun8eHNFaWmlRiQdueDhGGnLpQzie4149IUljy6cFePayTlM+Yx/bF5iiK9PyLB5j0/07kk7wg2XU7O0wARPf2p6mDMNAMC4DJq9eHowA01ZKZc7meLptubNKBE/eMKSJc+8+NyC0d6tNUqJA8ZNjBYjrCor72KGSRQumOIJXJP+WHbXJ2T3tWR26t0fzT5mzN+36Ww1h9yGLX7/69WrPv7w028+e2OCPjOry3XYVmtL5p0djPeUJ+eECnDl8V+3XtcCNGVvW3+8GvNDZi+Z5NOzC3prtk87ob9huFIHlKfDIwsYdz4AACDkkcifn0xRHHc5zbqvPLfv8RZW6TecZJMn0zPmiw6uUl/s+k6xMT/1gmLiJJ8xY4wMVlw4n9+xFvXX9u7IiF8UHT5n+edJublljaxggH9wAD/38EWF5xjvzpNvvHDw1PTIce6jl346TKPS3noOo2TPZ5/vL+cAHOKf+mjx4FtDZ8rBkQIQJb7wWYzhVv7Pff/ub9eMAKDL3LX5QsyzCZ6jnnl/6HyFQoOc3aSG9GMZTeOGtR17W5JPfebJ0xWJk+Qj/v5FvFrdfPuEUxz7+sOtBS2DVLZo3087By2bEzr5lU9GVZdVNHICqVzuzEdszfmNm1M6uVRCfEHr1Heb/7UIrvvr140xbz0RFzn3n6un1NeqkWSAs5AGo+L8+g1nOrvu7LbmTS8Rrjm7+9jYwAlew59embCwoU6lxxRf4uIkYBCor+3Zn9XZWz2QkPfsfL4ngsKTTcfv8mNv3daSBal3fzRNZkb7NANWXlj78efl82aPigl0k7pBZc7JdZt21IxdmdzFF6zXlsw4OxjfyYsfDHHgqo//cuvVGLjp2p8bTg9eOjpk5uJpVz/ZWWxxV2vF9tm36CCHpc/yWseqjBABgHyScMVYAADA+PyPmt25AACgZff+ZvB5luczUrAsASsUGByRzAlRgEuO6PbfsG6B7DtuAeCMPapN0U4LvYWrXsbLv9Ok1HexoTH//MWqiVM8HXhc5cXUO8IWAFdx/JuVDVPnTBoW6R8c7c5paoqzjny3bV9pwhvju0xdk/nbp181PDx7TJSfVOLUsiaVdRS0XGMhnsjJ2anDLV8HkdOt2yWYErYeAFxz5vuP1CVzZ42M9pdKpVB2/cgPG3fXT1g5ruf51N3489P/1S6cPSbKx8VJgBAAcDpBu4lzXf7uz969OWHGpKSYQK9AGeiUVTlpl04d2H+6oLGz7pAtOLb9r4iFSXIoS9l+pKCHM9ls5an/fa9q3KypowYHy6Wu0FRXeDH95J49J3OUnffF3dW8GSXC6oz1H39cMHXq2LgwP5nUjUacUassv5F94ejOfWmdvOSJduY9/ZzkUW9kKG1atcd4t6nu7mvJ7NRNOpomMqd9moWty9j7Q8beNp8wkV3nz4ptydSzg+c39emZwQ5Ycfy3LZm3X1uI1Vf/WH82aunIoFmLp13+ZOdNS19FZsX22bdoJJYgSfshMC1AkuZH1zHw2zQQdZbu21XsmEm82EGUTE4hHa66Ybx0Qn/yMqezchxGQxKG11RXAYBc7muVPQa7Vd6ok1llV62qisvu8leeG3/5q45T3BHWsCdONW08rE3vKnoRRA9QLrw54wXzRvODxWCo0n3wn8b91X2dJzvBxDzzxatjhIWbV3ywu6sXPvZLdMDkl+YPcew66mJV+u//PWDpc/mERex9vAUAYKjWvfcxd22B+LlE5oFJYn2eLj29nwyziXsKEyh4eTJfiHHeOc0nm5qu3OUOIdEWI0tIihQh3FRRXmtnHTwSeYSEhbncJW41lImp/vWI573vXohbAMCpDJt+rN+7z2HqCAfGxg+KEvctTmk8eNB48oz2TBkm/dRd0CEPvfPi6NZpEZ7IScynQVd4+NCV3nyu1xqM135Z+vQv3W9H9KZ7JG41ayzTb/7zXnmyjuh/jHlNH+X1dSbsAeKJnV1dXVtee42NuvqyjPRjO7YcK7Dtb9cQ94l7Km4RBNEfGLPWvb5kXV/ngrhn9csnQAiCIAiiCyRuEQRBEPaExC2CIAjCnpC4RRAEQdgTErcIgiAIe2L99YSnr+gB7vZ6C4IgCIKwGBlvEQRBEPaExC2CIAjCnpC4RRAEQdgTErcIgiAIe0LiFkEQBGFPSNwiCIIg7AmJWwRBEIQ9IXGLIAiCsCe99Dsm/uOdPhtP063/5rid3zWsLeqdxAmCIIh7Ry/FLZ6I8nFrG7fg/7d333FR3In/+N/vmdnCLiy9LEVAEFAQERHFYNdootGouZiYmDOmmHLmzOVncsnlcp8kJjl/l8RLe6QXz8RYE0uipqhRbIAFAUUFpYPA0llgy8z7+wcW2iqslF19PR/5Iy67M++Zfe+85l1mxkXWN2sGAICbSh/lVs72moTthBBCeNmyFc4L3PpmtQAAcLPB+BYAANgT5BYAANgT5BYAANiTPhrf6iZ5wKQlT8yL9SLlaZs/+nxPgbG/CwQAADbCJttbQvjk2XFaFc+rtLGzp4TZZrYCAEB/sMnckirLKkyMEEKYqeJipdTf5QEAAJthk20ZqeSX997QjRriQXRZyamlyC0AALjMJnOLEKk+N/X33P4uBQAA2Byb7CcEAACwALkFAAD2BLkFAAD2BLkFAAD2xEbnZVCngbHRfkpKWN2FYxnFBtbfBQIAANtgm7lFnYbPfWxRtJyIhVtfOZLe38UBAACbYZv9hPLQiBAZJcx0bt+BIly+BQAAV9hkbvGB4aEOlLDG9L0pVegiBACAq2wxtzjviEFuHJGqU/840YDYAgCAVvpofCtwkmblRJ4nhBDq6nLt91KnsAg/jkilB/afMfRF4QAAwH70UW7J1FygT0tuEUIIudaYlSI0PFggppx9+/PF3i8ZAADYlT7KrZztNQnbu/ZWPjB8kANpTtt3pAJ9hAAA0A4dHje6sqKcEKLVBvTIEktLC3tkOQAAAB3Z4rwMAAAAS5BbAABgT5BbAABgT5BbAABgT5BbAABgT5BbAABgT5BbAABgT5BbAABgT5BbAABgT5BbAABgT5BbAABgT5BbAABgT5BbAABgT5BbAABgT/ro+VsA18UPcPjwcaV3q1Op/N11z+0Wr/WQUQC49fRpblGlx4N3DZvpxRVmpL2+v6K2L9cNNo/KOG9P3r9VbjWpKO2/8gCAberT3OJ9fKdplUpKQiP9wg9WpIg3ukAqd5kU4+VF6g8cLS3s/LScT7zz9uWDOu0OlZJ/+e3NM+Y2C1RoxsWGTAt1C3ZWyESTrqrqaFbuD5lVVTjnt46DvzDhdtnQQZy7IxUbpbIL4tHdxiM5zPJXL5U3PfqKPvOG6wYA3Kz6NLfEiyW/lHjc6cUVnyo+2yMHJoXLpPhBUaQ0/5ilpywzo8FQ09gut3i1SpB1eCt19PnL3JjJrjwhUqO+uY6X+/j43OXjnRh8+l8/5eXjSNpdzsMVTyySeckIM7P6WsY7cQHDuIChwuBNTd/8IZmvvwAAgI76NLdYs27Npj1r+nKVRErZvSdld+tX5DHjRr00XNN48cKW3FbHTqqcMDF6siunv3jh/V/OpdSIjPBegSHPTAsdGhTxdIzu78ca0OjqBuoszF0g8xJY/u+GtT+ZdUZCZTRsmnLBHXzEHMXYM017L/Z3EQHALt1q8wmFiFFxL8RoaGX+29vPnTZc/QN19JkSKCPmqrU7zyTXiIwQQsTy/OxVh3TNhA8N9/HHSEu3uAyXRaiIMdv47Y9mnZEQQpiJnf25eUcWIzJ++HDuVqt6ANBD+qC9RSPGjn8rVt36MNVwOnXRb+Wmdm/knBc+cNs9roYdWw4muYc9GO0d6iQwQ9P5/MKNhy+cqGeX3yefMnvy0qDWy9O+8JcZV/8l1Xyz5tCPNYy0xwfFxL40ylVeV7xq66ljjW3ewLs6eoliY2VFen3r11l1cVWR5BmiUXtzpMC6rkK5Z9SE6RPih4b6uqsEk15XdPb4nh07Dhc0ti8h7xY1be7sxKFBHirSWJadsmvdtsqJry6frCn84dVXtxS1bu7JPIdOnjk1YViwj7OSNNdevJBxeNfPuzN07fdp//H0pqKJlZ4W23wRjOVmM2kIdfPiOCKhAQsA3dcX/YQmo6mm0dCSM5wgd5Jfu+VCvSNjXhogz8kv21cqCwrwGjI44p/+Tm+vP3lI33IEbDVkRXlHB0Egkr7RdPWILRkNnRwQOe2QmH+O9XRqLPtka/qB+vaZYS7IfOzjzE5KI+MVhBCT2NwxB7uAqsLnPPfsjIEqysTmuqrKBrmL96D4GYNiYkI/Wrkmo1UxqMvIh198KsGDJ8xYX1GhVwZPeHi5e1J2JztLMfDOZ5fPC1cTU+3Fwpxi4uTjHzX+3qgRMRvfXfVTnqHjB/rDufWNL63v5HW5glBCjM3Mqv0JANAHucXOJx98OLnl/6lf3JgPbnO51tupLNK98Z1vk1P0jBBC5S73zRk138d3YWx+clK1SAghpv279uxvea9T0Io/R0aRsg+/On7omo0h6uD76EQfD441GvnBUUF1WYVHdKYuHDnpgIFevhxrKNZdsKZxwAfPWHxnsIP54sG1n31/ILdOJETuNfK+pUvG+09acMehlzfkXC61EDr93tEeHKtMWfPeV/sLGxnhNeGzljw2TdVhmQPuWHx3mMqYt/Oj9zdmVpsJIbxL1LxnnpkWNnfR9PTXthZ0u6SK0U9/8NSIjjNVWpiOfrr0/eSeiUOeixzKcYxdOCdhngsAWMUWBxlyMrJTLzWtCDPWbD1e0USot5+b9kZGmDheRgkhVOXqMTF28Av3j/vncGfl9T7Euwx4OMaJExt2nSjXW7FSquR1qbt2bFv9ydf7cutaDtTG8tQNPx5rZJzHkCFXr7HlfCMjPThmyNjyv/2FLR2IYt3Zrd/tK+fbbTUXGB/vJ7DKA+s3tYQWIUSsyfxxQ1IlE/zjRw2w4itlzbUV5RZV1FrX1uyER6JirC8RS037MtDcAgDr2N79MpipuNrQ+qBmqG+qZcRbKXekhFh7tGP6ghWfFnOEKBzUgyPCHon3ik0cvrDiwOdFFqdjU4XbA3cMjlaw/KMZm8qsGoph+uy9m7I7vGysqapnxEHlqL6SSZzGWcMRpiso1LfaRKk8N0/PgtStPyy4e7pzRCopaFtyc1F+qUTcPbw8eJLX3cIa0779R1o3P9N9DqHyhXN4pVna+72pELPgAcBKtpdbhLW/sQ9jjBFCb/DWCcxoMhNCmk21R1KO18gT3xzhOCna87ui0sZO3y7T3D1jxFwvri7/1H+OVDffwIoFTVBUzOABnhqlwLVsAnUOd2q/MTzPEcJEs7ltMoti++40ynOUEk4bf8/CwNYHf8FHyxHKeN4Wm9CEyANkf35c7i9jZzc07zqPxhYAWM0Gc6sPiDn5lTWxji5uGh+utJOBK149dfrIhwLkzWU5K3fmF1k/EsN7jV78zKJEX0UnmXtDk+k4z8jxUyI7vm6bg0a8t+yBJxWhalb4a/Oa/RjZAoAbcWvmFmFGs4ERKvCKjn+jDolT4p8YqDRX5v9n27lTNzAfgXpNWrQoUcuXHVn96YZDuTXGS1HFDZy/4h8zvNq8VxQlQigvCG0Tjuf5ThdtOv75X/97uMn6srUhj3ng5fsjLc7LyFy3Yk260dqFc27C/KcUkc6kLKn5y21iE9paAHBDbvLckg0YvHKcJ1d+/tXfiqtbHzAFTqCESR1uNkTlseNH/jVCRWqL3+twjVc3Uc2Q2FA5MaVvW7vvfMO1lyTV1tRKxMljQICa5tddfi/nFRSkbtdUY6LEGOEEgb+B4b72JVW6+Gh9LOZWsYPVXbTUiZ/9lDLWg1SlNn+xQexw+QEAQHfZeW6xS1cBcRYOrJJBUrg6+am8hiiKD14dpKJaXzd3Ssy1+oo2vXWyIaNHLh/mxDdc/Liza7y6S6FUEEokg6HtjHuq8vJ2bldgqTTzVMVdAd5DZy1MzP3yQHEzI7wm/K4F4zyMjMhbv9OsK9dJxMc3MECWlHW1EUQ1gxJGDVQbCo4mZVV3t+CGIx89fqSbn+kC6sBPe1J5m5bUpRs+/9ZcjcuMAaAH2OYgflex5madiRHOZUSgotMtEStK9+sk4qBdPDV4sKrlLYJvyOBlcRqeGY9mlbV6lgofHBv74kgXhybdN1vTfuuBgyyrKSrSM6oYOnVq0JUWC1UNmLhwZkSHN5sv7Fx/uEKinqMWvf7BqpVvvfGfD99+forxVFb7OehSQWpqsZm63zb/T9Hul047qMJ3zP1PLL5/waxoV5uZqCfnxj+unBJE9WcMX3xtqrCZcgGAnev99pbgs/ShqLjLozScIOcIUYfFfBF0KRhYc8mqtadPWjdWb9b9dlo/NtZx4sxJCU2mlunzUl3BmxvPZbcsXqrb8vuZyLsHRw8c8lZQWJ3eZJYr3BQcJWJhZsYX2carocA5Jka6ayiRZM7z5kyc125FzLh3Z9I3xd1ryBhP79iaOWLh0Ig5L7+TkJNTUi8q3QJDghQ5vx/X+Yzza7eGumPfvPVO6bzZidHBnu6epCx7/+r1WysnvDa+3VLFgp1fbRu8fE7YtL/+O7Gi5GK9pHTXap0VVKw8um5Dsq10xXFaIX4QpYzIA+WPvyZv91fWYFrzlvECZmgAQLf1fm5RTq1SuLSbXSDIXC6vmXHCDRRCPHUo5d+mIfdHegSpFS2NGsncZoGGitzXvq+bHjdwUrBrgJOSMxmLinQH089vza7vdAY816psVzGismI8Sbr4x4ev1d4x5/ZRkYEhQ72kxsrCrN2f/bizOO75yZ1tTHXmji8yd7R6RYjsrAPUcOGnt/+VP2Xm7QnRwb7BHsRQV56dmpb0y64DufW21hdHiVxF26cWIYxQATcqBgBr0OFxoysrygkhWm1Ajyyx1NKTsKD7hOhH3102ziFvwysrfiq1tUjqaUKIesPzDr46PDcSAK7Fzudl3NwEj7iESBVlTRdLb50HLlM35Rv/J2+ZcJK3t+6FPe0vQweAWxxyy4bwoff848mxV6YaylQatYInhrzff0u3kZu89wEqUK3PpW5lo/oGb5ICADch5JYNoTK1s6ura8uhmjGzoaYk88TerZv35trOY7V6kfm8fu4Sa25fDAC3FIxvAQCAPbHv67cAAOBWg9wCAAB7gtwCAAB7gtwCAAB7gtwCAAB70vPz4BOj5eeqPXp2meWFJT27QAAAsFNobwEAgD1BbgEAgD1BbgEAgD1BbgEAgD1BbgEAgD1BbgEAgD1BbgEAgD25uXKLUv8wxQjP/i4G3KQ4T9mkMF6NZ4IB9Kub5vlbNGC4wzNzHcZ6k98+Nh6rYP1dHrgJCf7KV55UsDLjhh/13xwXm/q7PAC3Jl7r69/UqCeEODk598gS3dT6ymZVjyzqCn1d/bX+zHMT7nf+758UgxxJ8RnDtiPG7IaeXX8PoOrIectffubBmbFORSdOlRn7uzxgBUapt1YYFCSLj1MmOkuHT4kNPXeChBoC0EX2396iXMJ9zivG83yN8eMvG749K5l7c23CsMdX/TWxTU+RpPv9/1++9qx47Q/yIQnjQ10VlASNHROyMT2ta6UUBv955fLJziVbX3tlc4FkZZmpw8AxU4d5sOLUn1NKrF1Iv7N6z/cgqdTw73cNX0So/vmIavQ4x/cYW7LWWN1D0WVdDbmGLnzv8pFPf/xknKyzP5lOfPb0B4eb2yxQPWDUtBkTRkQEeGpkor6qJPvkwV07952t6atv4OaoyVfJvYSxt8tiIjgPDSUGpiswp+0zJaVLOGe5HrvPLdfh6pfH8YLe+O6q+g2lvd89aG6qr6sVLx09BYWjStG1z4kXDu/LjpoUyF9MOnS+7460hBBCHEJuu2tOBEsp3mnPv3Zr93yP051pXL6KvbNcPWqc47LTNf93QuqRatfzNeT63zszNdbW1bXLLZnKSSV0GMOjriMXPb8k0UdOmLmptqZecPIMHjE1OCZ+2Np3PvytyNQTBb6um6Mmt1BFKJY8LvNXEsnIKssl6ki1ETLfCGHob82fbRUbMdJxLXaeW7wwf5bCg7KULfpNfRBahJhPrXlp2ZrLaw+9942Xp3dtGghrOLX5rWWbe69kNzur93xvMJY0vblVvnaBbOps5dqTjWd74hjaHzXElPb135a1foE6Rd73wtKpAU0Xdu46aWj1umvCwsWJPrLG8zu++uzHtHIDo3L3yJmPPD47Yuj8P0/NfGtHqb3nSN9S8jMelPkrSNmh5tWbzGXNhFDqE6/48wNCwBTF9KymH84iuK7BvucTygYq7tASVmtYe0S8KX82jKD22qjSw02764igVdwxsL+L0lOoQ8isZU9NDSAluz95b3N2q1N+6haXOFRFjGe2fLL+RLmBEUKYsTLzx883ZRiIPCg+XmvfB5I+Jw+TRbsS6aJx3TpzWUtnLGMXk5vX/yFJHDdsFN9p3y1cZt/tLf8wmSdH9GeNaYZO/64aseSdp0Yri7a88urWwrbBxgfNe+PlmdqmIx8+/2nq1Ylhcs+oCdMnxA8N9XVXCSa9rujs8T07dhwusLLZzofM//eL071b/aiZ/sCqZ7/sfPBC8Iy5c+5dY6IC3ZRifcmZ5J/X/VTLOu+Eum45qdPYZe89HN36+41/6vP/Xf2XmLPhpRW7ylvtFZnn0MkzpyYMC/ZxVpLm2osXMg7v+nl3hs7KLiDqNf2fK+aHmA6//+KvTrPvmRYb6q2mzdVFWam//LA9tdhwZbv4iAUr/z7FtXznGy9uvHC1g4wbOH/FP2Z4Ve5a+eLabOv6zbq8RYJr5KRZd4wZOtDHRS3jJHNzXXneqZTft/1y/KLFsQaDKekMu2sUHxvGczlWnzZ1uYZwwfNef2WGtm7P2/+X7D9v3qThQe4OrLEiPyNp+w87T1Vd3kFWfO+XyP2nLF06O1SmO/zFqu8y6tpUO95b62E2NhVlZFW1fp3VZp8tlaIDPbw9OFJs1S7g3aKmzZ2dODTIQ0Uay7JTdq3bVjnx1eWTNYU/vPrqliLJFmpyL3DyogpKGnLE4rbfc+EZsXEy5+BBnSipwjmrRXadW9TXi+cJKS4VO48t0ng69aR+1Bi/uJF+2wvbBBcXEBvrzbGGjNTMK6FFVeFznnt2xkAVZWJzXVVlg9zFe1D8jEExMaEfrVyTUW9NNRKb6+vqlC1HJU7uqFZaPC/l3BOXvPRorAtHmLG+oqpZHTZlyQuuv2Z1XGvXyikZG2vr6gRCCKFylaODQEyN9Y1XfyWi3shaLVsx8M5nl88LVxNT7cXCnGLi5OMfNf7eqBExG99d9VOehf3bFdQp/qFnIr2KTp08fN7BJzwqPO7OJ4aEuL/17s6C3j2MdHmLqFPsQy8tvc2DJ1JzfXVFjcQpHF19ByfOiYgJ++71Vbst9YCxwlJRJIKfNy8Q0eqh9K7XkJbCeox/YukQTV7mscM5TgFDogfd9qdlEf6frvj0aI1V3/slglfikmX3RTrWpq1Z9UVKZfvTBPPp/z3/5P86fIoQhUJOCTE2G6w6xlKXkQ+/+FSCB0+Ysb6iQq8MnvDwcvek7LaDa7ZSk3sSz1NCiLnjL8BETIw48ISjBH0tltl1bhG1klBC9E0Wv+Cm0ynpDQljfEfGBWwtzG91Lh8wYrgPzxrSU05fiS0+eMbiO4MdzBcPrv3s+wO5dSIhcq+R9y1dMt5/0oI7Dr28Iaf7J/1i3tbX/rb10jp97nzl9T8FW3inMnLWn2JdqFh2aPUHqw8VNzHCa8LvenzRZIf2I+RdKyfTJ3/6bDIhhBDqNnX5yoUR7MQ3z314tPNZavyAOxbfHaYy5u386P2NmdVmQgjvEjXvmWemhc1dND39ta1WT2Yk8lD/6o9f+ii95QSe9xj9xN8fGxU2696EI+/s76mpeJ3o+hZR94Q7R7tz5sJfP1q1Lr3aTAghnFPIzGf+dnf44NsnDPzje0tfvL6JMUIUSnoDnWRdryEtHMP9yj7958q0GokQQh0Gznru77NCRs+b9vuJ9VZ875dQp4QFC+PcONLUJBs0fmrDwf3HC/Vd+G54/5jhPhzTn83gtZxHAAASgElEQVQqsKZBLIROv3e0B8cqU9a899X+wkZGeE34rCWPTWtzGU2/12TF6Kc/eGqEpY4709FPl76fbCNxeMuw725p2nJMv8YvrPl0ano943zi4gJabSrvP2KElmP16clZVyb6UiWvS921Y9vqT77el1vX8jM0lqdu+PFYI+M8hgzx7tVdxQdGDXGmrCF1w+qDxS05LNad3fbdwWplu9zqjXJygfHxfgKrPLB+U8tPnRAi1mT+uCGpkgn+8aMGWL/tlBUf/C3zSq+TqEv58Y8CkSrChoYprV7o9XVjizh3T3eOSsUpe6+8k0j153e8/6+XXnj53Z2Flo9zl87yKenLG2jk7t1ysuZSmVjThV9/OdnMOI/wCK8bqZ+8TOAoIdRBGzVm2v1P/evNZbcHXXe6Juc98d6p/tRc9MevJxqtWCnnGxnpwTFDxpb/7S9svFznt363r5y3eof2Rk1mzbUV5RZV1Dbf4NmXR4LyxXfULz4iuNv30bgv2Xd7qwuaz6Sk1Y0Z5x0XH7glL7flMM/5jRiu5VjdyZSsq+dJTJ+9d1N2h88ba6rqGXFQOfbu3X14jYuGErEkN7/1FTNSRV6engU5tn5nb5RTcPd054hUUlDU5iTWXJRfKhF3Dy8PnuRZ2eBiZl1ZVevPShWlZWYWJDg5qymx3FK+Qd3YIlZbU8uIm3ZYfNCeLReuDBCa63UXr3m1e//Ql11sM/RkrKqsZ8RD7XQj9ZPV7HvvL4c4wsk13oNGz7l/1rCo+U/PK/zn2qxmSx+hqvC5T84f7GAu2vnNz7lWXWvGaZw1HGG6gjZtO6k8N0/PgtTWLLF3arIx7dt/pFlXnC6gNHi44O5ASLQQpDD33npuLjd9bhHDmZSTtWPHecWNDNqce14khHB+ccN9eVZ74uiZ9s17QRMUFTN4gKdGKXAtxwHqHO7UB6fTlOcoJcRsbtffIoqddsD0cDlb1s5p4+9ZGNj69y74aDlCGc/fwImg1H5iiZif9N132Xxttt76hV5XN7ZIKjuyO+P2R2NC737p7bEF53MLS4qKC/MvnM26UNFke5NUpXYzQBhjEiGE0hurpKLJIBJCDBW5x7d/WOvw2ot3aG+bEP1jVkrn97JSBE57+pk7AuUNmWs++THb2k4ynucIYaLZ3LaGWKjzXdKbNbl3MJa1x3hKxZPTpjMWzxKgHfvOrS6drRvPpKbVjJ3gFRs38Ifz2WbC+40Y4cuxmrSUs20G03mv0YufWZToq+jkCGBLx69eKyfnGTl+SmTH13v4KmlJd+qPPad6dpkWdG2LWGXSpyuNM+fOHBs9IDDKIyhqJCGEMEP5ye3ffL39TN2tNjxuzM/Iqp3u6+wX4MmldDIcJGjHLfnbPYMdDXk/ffTJ7tJevT+NdfqoJveQhjPGr89c+n++X0tiP+w7t4xmwghRyK99rmk8l3q8ZtxkjxEjgzdnZ0u+sbG+nFSdltomtqjXpEWLErV82ZHVn244lFtjvPR7vTQbu/e2oZt6sZym45//9b+Hb6abxXZ5iwwlyZs/TP5B5uTp5+/n6x8QMnRUwjCfmHlPL6555T2L00cU8pY2MrPN46HVJEOzgREiV3RyasS5j3z4uQdjXMwlez7576ZzXZm9YZEoSoRQXmh3cw6ev9Gjd8/WZHnMAy/fH2lxXkbmuhVr0nFnpr5l17nFKqskRnhvT44n17qAxpSdcqJ64iT3uLiQDef1I4b78lL18dTs1pNQqWZIbKicmNK3rd13vgdvltpVTJQYI1QQ2v1k2/+Ge6ecLWvnBIHvl9m3ZrOZECIIbSsjFQQZIUQUzVaUyKotYqb68rys8rysE4d+27V/7osvzx4wOG6IOumghR2t9eQ4QnRVki01x7tBiFrw0n1Dubztq748VNtqEy3ueaoZuuC5RxI8ScXhr1Z9m157Y1VFqq2plYiTx4AANc2/0qrlvIKCrB+r642aTJUuPlofi7lV3GHGbxeIIiOECB0XKiMySohIxFutld89dp1bJDfP3Mh4t0GyEM505prBlXqiasIUt+hhwUn64X68VHU8JafttRMKpYJQIhkMpjYVhqq8vJ0t1UsmiiIjlOe4Gx4BE+tq6hhx1wYNUJLKKyeKnGdgYLvfsFXlbNk11OJ8bbOuXCcRH9/AAFlS1tVTR6oZlDBqoNpQcDQpq0ObgzqGz3jwngRfUnJ44+pd524gQyVduU5kXi7Bwe70XPmV45f7wBBnykRdWSfXX153z3d9i6hT8IhhvgpT2amUnJqrazIWny9qJoFKBwcFIZ0+XoATRgziOMbO5YmWu8p6bi9Z4Xrfu9RgUmj9fJxjwlSHU6+2nHivsDAXyszlFytbF5eqBs159olJfkLN8dWdXePVwfW2XSrNPFVxV4D30FkLE3O/PFDc3HLtx4JxHkZG5FZtkVU1+XoMRz56/Eg3P3M99eXMwIhjKO8riIWtqk9ABK+ipLFcsupq0VuHzQ1Tdov+jDG5ifA+yrsjrp0c5vOpx6okziNqzLhIf06qPHE0p+2xhtUUFekZVQydOjXoyvkTVQ2YuHBmhMWlsspyncioJiphmOsNdm2IeRmnaiTqFH/vwgTflqnvvNOgmQvGe7U957WmnExfXWVghA+OjnLp/PuWClJTi83U/bb5f4p2v3QqQxW+Y+5/YvH9C2ZFu3ZyXOb8Jz8wLz40wD901LwHp/rdSD1itSdTspqJEDLj4RnhzjwhhAgug2cvmhEikKas5JOdDDBdd893Y4sUIVMWL370ycfnj/W7skc5ddCkqUPVlDWUlFoY31JFKKf7EKnJuPeM5UNMD+6l7rvu9y4VHDlSaCbqkfMfuX2Qc8uFvUrv2PmP3hnEk4aTh060OnjKB0xbunRmiLLh1PpVHydd7MKg1vW33Xxh5/rDFRL1HLXo9Q9WrXzrjf98+PbzU4ynsizNLO+VmtwvjOdM6dWE85HfN1/warnigFLveMW94zlOkk6m9u5TLeyffbe3WINx7X5x/DR+5r2qX1fqj1vu0TZfSDmmm3q7/7hxZoHpjh290L5eGE/v2Jo5YuHQiDkvv5OQk1NSLyrdAkOCFDm/H9f5jPPrfPX1x35NmhE5yWvsM/8Z1djQfPl6kaKf335nV6lEiHzEw28uGna5M4CTO3KEqOKfeDvadLn8Rz7/13enzYQQw6ntG45FPxbnk/jo6yPv1ekaqbOnu+nE3symSaNa9yZYU07jqf0HLsbfrh3zl3dH6PUtI2KSbu8Hb/yQe6mRKhbs/Grb4OVzwqb99d+JFSUX6yWlu1brrKBi5dF1G5I7OfmjCuWV0Y9W/2sVVn1wzbroFx+KjZz7wqrpNVV66uTm7MATs+7ot2sPdXZ+fN093/UtYpWHf9o7IXiK7+hHXotbUFvdYGScwslFoxQo0Z/+eVdWZ3f1oA6yx+5V+FCSt7/pj2s87O26e6kbNaT7rvu9S4W/fLUh/Ln7Bg9/4O/D5tVXN4gOLi4OAiXGkn1ffZ/SKrE5v5FjIxwpkxTBM/6/d2a0W5FUd+iTVza0e6BMF2oIqzv2zVvvlM6bnRgd7OnuScqy969ev7Vywmvjrd0iK2py/2gWd3xn8n9M5n+bcnkc0+kYcaQeGsoRVrTbsOucrRTTVtn9cyMrckXHYYoYP9m4UHLulKnY0lRSqbbZPSFxkLPAs/Kk7zdndOh8Yg15x44Vio4urh4+/gF+Xhpam31g4+frMl1umzBE05RzcHfHzxBTxakTeZKLt5ebi7PaQalUKBUKpbwpe/++M3WMECHwtjljg1VKRcvrAkcJpbys5Z8KhVJBS1J/OV7W8pNrKkw7lic6ebq7ubhoHFh1dtKGTzfm+k+8baCy/uy+vVmXRhOsKadYeSatkLlrvT1cNWoHpVKhUMrNeYdbv1OsPpecmtsk17h4ePtqPTVygy43I2nLN19uTq/urAeW1VboPcLD/dTGoiMb1+0t6DhAT9Wh4ydFuUlFybuOXe9m4UxfcDT5XINc4+zi6ubmKDPWFGYe3PbVl5vTqix88jp7vjtbZCrPSM6sICqNRuPi4qJxVCt5c33ZhbQ/Nn6+9kBJx9jinWWPPun0UDBnLml6+WtD0TVC5bp7qes1hLoOmTQ+zMmQe+jXdN3V8lPXqEnjwtTWfu9ibU5K8tkGwUnj7OrmplFI9WXnj+/Z9Nk3O8+26de7tHaO8vKrZbv6HylO/uVkRbsZ+tetIYQQwprLs48n7d65bfu2bbv2HEzPr5G8ht8+Jlhel7VvX8e5nL1Qk/uLSSceT5NMCurkQt09OBUhFRfEAz8YNv0h3eiVzDc/OjxudGVFOSFEqw3okSWGeJadq/bokUVdUV5Yco2/yjwVLy9znO5FWaO4L6lp3e/NJ2p6dv0AhBDCucjmTFbOG6sIURNTuWHFf+t3VfR3mW46QvSj7y4b55C34ZUVP+HhKNAp+x7famGqMLz6Vt27R8x6JT/xdvXc4L687Q7cQoRg5dJpihAHdv6I/qm3EFq9QPCIS4hUUdZ8sdRSUxvAvse3rpAaTOu/rNmxU37HGLlwy10oCn1EqjP/+qt5/6HmQyUMB9UewYfe848nx16ZCitTadQKnhjyfv8tHfeqBUtuktxqUV9i3LAJVwBCbzGfb3rzfH8X4uZCZWpnV1fXSzfIZmZDTUnmib1bN+/NtZ2HZYHNualyCwDsizlr9XOLV/d3KcDO3AzjWwAAcOtAbgEAgD1BbgEAgD1BbgEAgD1BbgEAgD3p+fmEB9KNhFzr9hYAAABWQ3sLAADsCXILAADsCXILAADsCXILAADsCXILAADsCXILAADsCXILAADsCXILAADsSR89xyRwsubtyTx/5d+StO2z2m8K+mblAABw8+ij3JKpOH/P1rlFXGR9s2YAALip9FFu5WyvSdhOCCGEly1b4bzArW9WCwAANxuMbwEAgD1BbgEAgD1BbgEAgD3po/GtbpIHTFryxLxYL1Ketvmjz/cUGPu7QAAAYCNssr0lhE+eHadV8bxKGzt7SphtZisAAPQHm8wtqbKswsQIIYSZKi5WSv1dHgAAsBk22ZaRSn557w3dqCEeRJeVnFqK3AIAgMtsMrcIkepzU3/P7e9SAACAzbHJfkIAAAALkFsAAGBPkFsAAGBPkFsAAGBPbHReBnUaGBvtp6SE1V04llFsYP1dIAAAsA22mVvUafjcxxZFy4lYuPWVI+n9XRwAALAZttlPKA+NCJFRwkzn9h0owuVbAABwhU3mFh8YHupACWtM35tShS5CAAC4yhZzi/OOGOTGEak69Y8TDYgtAABopY/GtwInaVZO5HlCCKGuLtd+L3UKi/DjiFR6YP8ZQ18UDgAA7Ecf5ZZMzQX6tOQWIYSQa41ZKULDgwViytm3P1/s/ZIBAIBd6aPcytlek7C9a2/lA8MHOZDmtH1HKtBHCAAA7dDhcaMrK8oJIVptQI8ssbS0sEeWAwAA0JEtzssAAACwBLkFAAD2BLkFAAD2BLkFAAD2BLkFAAD25Oo8eMwDBAAA24f2FgAA2BPkFgAA2BPkFgAA2BPkFgAA2BPkFgAA2BPkFgAA2BPkFgAA2BPkFgAA2JO2z9+i3KzHnR/yY3XVYkaGYeM+Y5Gpn8oFAADQmXbPjaSOLvwALSFaIWqIYtbopr+9oz/R1D8lAwAA6IjX+vo3Neov/5NlHGz8YkfTz2dZwBB5iLcQUG/8+QLDc4cBAMBGdDK+xURWcqbpy2RRotTPm+P7vlAAAAAWWJyXIQiEEKJvYlLfFQYAAOA6LOUWddNwlJCaOnQSAgCADbGQW5S6OVHKWE2dhPYWAADYDku5xbk7EUJYVT2aWwAAYEMsjm/xHCGMmNHaAgAAW2IhtyQx9awkcdyokXIPTCgEAACbIVh4nR3dXLdSUC8ardk+WqqoY2ZCCJN2fln7+YW+LB4AAEAblnKLEEJkSs5RRniO8/EkhBDCqKu8b0oFAADQOUu5RYfNcnp2BF+Vrn/u++ZTVcyE+RkAAGADLOQWx48ewvNEStrdlFbZtyUCAACwzOJ8QkoJIQRXHQMAgE2xkFtMqmoghFAXR9qnxQEAALgmS7nFKusZo9RVQ/FkSQAAsB2WUolV1zJGiKuGQ4MLAABsh8XWVJOBMUIc1WhvAQCADek8leRu8lkxPEdIZbUk9nGJAAAALGs7D55yMx91XhRM3d04NU/EKsOaQyLuUAgAALaj3fVbVOPG+7uzhmrzwUzDtz81Havpn2IBAAB0ig6PG11ZUd7fxQAAAOgSzLoAAAB7gtwCAAB7gtwCAAB7gtwCAAB7gtwCAAB7gtwCAAB7gtwCAAB78v8AxEMiOt97YfgAAAAASUVORK5CYII=;" vertex="1" parent="1">
          <mxGeometry y="454" width="297.49" height="176" as="geometry" />
        </mxCell>
        <mxCell id="R1Sj7afmYKt7WFE0D8gf-13" style="edgeStyle=orthogonalEdgeStyle;rounded=0;orthogonalLoop=1;jettySize=auto;html=1;exitX=1;exitY=0.5;exitDx=0;exitDy=0;entryX=0;entryY=0.5;entryDx=0;entryDy=0;" edge="1" parent="1" source="R1Sj7afmYKt7WFE0D8gf-16" target="R1Sj7afmYKt7WFE0D8gf-26">
          <mxGeometry relative="1" as="geometry">
            <Array as="points">
              <mxPoint x="820" y="330" />
              <mxPoint x="820" y="410" />
            </Array>
          </mxGeometry>
        </mxCell>
        <mxCell id="R1Sj7afmYKt7WFE0D8gf-15" style="edgeStyle=orthogonalEdgeStyle;rounded=0;orthogonalLoop=1;jettySize=auto;html=1;exitX=1;exitY=0.25;exitDx=0;exitDy=0;entryX=0;entryY=0.5;entryDx=0;entryDy=0;" edge="1" parent="1" source="R1Sj7afmYKt7WFE0D8gf-16" target="R1Sj7afmYKt7WFE0D8gf-24">
          <mxGeometry relative="1" as="geometry" />
        </mxCell>
        <mxCell id="R1Sj7afmYKt7WFE0D8gf-44" style="edgeStyle=orthogonalEdgeStyle;rounded=0;orthogonalLoop=1;jettySize=auto;html=1;exitX=1;exitY=0.5;exitDx=0;exitDy=0;entryX=0;entryY=0.5;entryDx=0;entryDy=0;" edge="1" parent="1" source="R1Sj7afmYKt7WFE0D8gf-16" target="R1Sj7afmYKt7WFE0D8gf-28">
          <mxGeometry relative="1" as="geometry">
            <Array as="points">
              <mxPoint x="800" y="330" />
              <mxPoint x="800" y="517" />
            </Array>
          </mxGeometry>
        </mxCell>
        <mxCell id="R1Sj7afmYKt7WFE0D8gf-16" value="&lt;h1 style=&quot;font-size: 19px;&quot;&gt;demo/xxx_pb2.py&lt;/h1&gt;&lt;div&gt;&lt;br&gt;&lt;/div&gt;&lt;div&gt;class DemoMessage(object):&lt;/div&gt;&lt;div&gt;&amp;nbsp; &amp;nbsp;pass&lt;/div&gt;" style="text;html=1;strokeColor=none;fillColor=none;spacing=5;spacingTop=-20;whiteSpace=wrap;overflow=hidden;rounded=0;" vertex="1" parent="1">
          <mxGeometry x="590" y="270" width="190" height="120" as="geometry" />
        </mxCell>
        <mxCell id="R1Sj7afmYKt7WFE0D8gf-17" style="edgeStyle=orthogonalEdgeStyle;rounded=0;orthogonalLoop=1;jettySize=auto;html=1;exitX=1;exitY=0.5;exitDx=0;exitDy=0;" edge="1" parent="1" source="R1Sj7afmYKt7WFE0D8gf-18" target="R1Sj7afmYKt7WFE0D8gf-20">
          <mxGeometry relative="1" as="geometry" />
        </mxCell>
        <mxCell id="R1Sj7afmYKt7WFE0D8gf-18" value="plugin:mypy-protobuf" style="rounded=1;whiteSpace=wrap;html=1;" vertex="1" parent="1">
          <mxGeometry x="439" y="410" width="84" height="60" as="geometry" />
        </mxCell>
        <mxCell id="R1Sj7afmYKt7WFE0D8gf-19" style="edgeStyle=orthogonalEdgeStyle;rounded=0;orthogonalLoop=1;jettySize=auto;html=1;" edge="1" parent="1" source="R1Sj7afmYKt7WFE0D8gf-20">
          <mxGeometry relative="1" as="geometry">
            <mxPoint x="840" y="410" as="targetPoint" />
            <Array as="points">
              <mxPoint x="820" y="440" />
              <mxPoint x="820" y="411" />
            </Array>
          </mxGeometry>
        </mxCell>
        <mxCell id="R1Sj7afmYKt7WFE0D8gf-20" value="&lt;h1 style=&quot;font-size: 19px;&quot;&gt;demo/xxx_pb2.pyi&lt;/h1&gt;&lt;div&gt;&lt;br&gt;&lt;/div&gt;&lt;div&gt;class DemoMessage(object):&lt;/div&gt;&lt;div&gt;&amp;nbsp; &amp;nbsp;pass&lt;/div&gt;" style="text;html=1;strokeColor=none;fillColor=none;spacing=5;spacingTop=-20;whiteSpace=wrap;overflow=hidden;rounded=0;" vertex="1" parent="1">
          <mxGeometry x="585" y="380" width="190" height="120" as="geometry" />
        </mxCell>
        <mxCell id="R1Sj7afmYKt7WFE0D8gf-21" style="edgeStyle=orthogonalEdgeStyle;rounded=0;orthogonalLoop=1;jettySize=auto;html=1;exitX=1;exitY=0.5;exitDx=0;exitDy=0;entryX=0.001;entryY=0.689;entryDx=0;entryDy=0;entryPerimeter=0;" edge="1" parent="1" source="R1Sj7afmYKt7WFE0D8gf-22" target="R1Sj7afmYKt7WFE0D8gf-36">
          <mxGeometry relative="1" as="geometry" />
        </mxCell>
        <mxCell id="R1Sj7afmYKt7WFE0D8gf-22" value="plugin:P2p" style="rounded=1;whiteSpace=wrap;html=1;" vertex="1" parent="1">
          <mxGeometry x="439" y="870" width="84" height="60" as="geometry" />
        </mxCell>
        <mxCell id="R1Sj7afmYKt7WFE0D8gf-23" style="edgeStyle=orthogonalEdgeStyle;rounded=0;orthogonalLoop=1;jettySize=auto;html=1;exitX=1;exitY=0.5;exitDx=0;exitDy=0;entryX=0.25;entryY=0;entryDx=0;entryDy=0;" edge="1" parent="1" source="R1Sj7afmYKt7WFE0D8gf-24" target="R1Sj7afmYKt7WFE0D8gf-35">
          <mxGeometry relative="1" as="geometry" />
        </mxCell>
        <mxCell id="R1Sj7afmYKt7WFE0D8gf-24" value="p2p:msg_to_pydantic_model" style="rounded=1;whiteSpace=wrap;html=1;" vertex="1" parent="1">
          <mxGeometry x="840" y="270" width="170" height="60" as="geometry" />
        </mxCell>
        <mxCell id="R1Sj7afmYKt7WFE0D8gf-25" style="edgeStyle=orthogonalEdgeStyle;rounded=0;orthogonalLoop=1;jettySize=auto;html=1;exitX=1;exitY=0.5;exitDx=0;exitDy=0;entryX=0;entryY=0.5;entryDx=0;entryDy=0;" edge="1" parent="1" source="R1Sj7afmYKt7WFE0D8gf-26" target="R1Sj7afmYKt7WFE0D8gf-35">
          <mxGeometry relative="1" as="geometry">
            <mxPoint x="1299.4679999999998" y="409.34899999999993" as="targetPoint" />
          </mxGeometry>
        </mxCell>
        <mxCell id="R1Sj7afmYKt7WFE0D8gf-26" value="p2p:msg_to_pydantic_model" style="rounded=1;whiteSpace=wrap;html=1;" vertex="1" parent="1">
          <mxGeometry x="840" y="380" width="170" height="60" as="geometry" />
        </mxCell>
        <mxCell id="R1Sj7afmYKt7WFE0D8gf-27" style="edgeStyle=orthogonalEdgeStyle;rounded=0;orthogonalLoop=1;jettySize=auto;html=1;exitX=1;exitY=0.5;exitDx=0;exitDy=0;entryX=0.25;entryY=1;entryDx=0;entryDy=0;" edge="1" parent="1" source="R1Sj7afmYKt7WFE0D8gf-28" target="R1Sj7afmYKt7WFE0D8gf-35">
          <mxGeometry relative="1" as="geometry" />
        </mxCell>
        <mxCell id="R1Sj7afmYKt7WFE0D8gf-28" value="p2p:msg_to_pydantic_model" style="rounded=1;whiteSpace=wrap;html=1;" vertex="1" parent="1">
          <mxGeometry x="840" y="487" width="170" height="60" as="geometry" />
        </mxCell>
        <mxCell id="R1Sj7afmYKt7WFE0D8gf-29" value="Use Message and protobuf file comment" style="text;html=1;align=center;verticalAlign=middle;resizable=0;points=[];autosize=1;strokeColor=none;fillColor=none;" vertex="1" parent="1">
          <mxGeometry x="1005" y="270" width="240" height="30" as="geometry" />
        </mxCell>
        <mxCell id="R1Sj7afmYKt7WFE0D8gf-30" value="Use Message and pyi file comment" style="text;html=1;align=center;verticalAlign=middle;resizable=0;points=[];autosize=1;strokeColor=none;fillColor=none;" vertex="1" parent="1">
          <mxGeometry x="1010" y="370" width="210" height="30" as="geometry" />
        </mxCell>
        <mxCell id="R1Sj7afmYKt7WFE0D8gf-31" value="Use Message and and Message Option Info" style="text;html=1;align=center;verticalAlign=middle;resizable=0;points=[];autosize=1;strokeColor=none;fillColor=none;" vertex="1" parent="1">
          <mxGeometry x="1005" y="480" width="260" height="30" as="geometry" />
        </mxCell>
        <mxCell id="R1Sj7afmYKt7WFE0D8gf-34" style="edgeStyle=orthogonalEdgeStyle;rounded=0;orthogonalLoop=1;jettySize=auto;html=1;exitX=0.5;exitY=1;exitDx=0;exitDy=0;entryX=1;entryY=0.5;entryDx=0;entryDy=0;" edge="1" parent="1" source="R1Sj7afmYKt7WFE0D8gf-35" target="R1Sj7afmYKt7WFE0D8gf-41">
          <mxGeometry relative="1" as="geometry" />
        </mxCell>
        <mxCell id="R1Sj7afmYKt7WFE0D8gf-35" value="Runtime: DemoMessage(BaseModel)" style="rounded=1;whiteSpace=wrap;html=1;" vertex="1" parent="1">
          <mxGeometry x="1220" y="380" width="200" height="60" as="geometry" />
        </mxCell>
        <mxCell id="R1Sj7afmYKt7WFE0D8gf-36" value="" style="shape=image;verticalLabelPosition=bottom;labelBackgroundColor=default;verticalAlign=top;aspect=fixed;imageAspect=0;image=data:image/png,iVBORw0KGgoAAAANSUhEUgAAAhQAAAELCAIAAAAOcIhhAAAACXBIWXMAAA7EAAAOxAGVKw4bAAAgAElEQVR4nOzdd3xUVd4A/N85d3rNZNImnfSQQiAhdEIVUGQRBAvqrth1LVt0V9fXfdfdfXZ9di2r67urPnZFRbooCNJr6IQEEkgjPZM6vd5z3j9SmJkkmEkISfB8P/5hLnfu/Z1775zfKffeQeNzJrc06YFhGIZh+g0PdwAMwzDM6MOSB8MwDOM3ljwYhmEYv7HkwTAMw/iNJQ+GYRjGbyx5MAzDMH5jyYNhGIbxG0seDMMwjN9Y8mB+ShCKTBJnBw93GAwAAOBg4ZwkTo6GOw5mQATDHQDDXB8oarz0qWXSGaGw8z/Ok010uONhQBApeekxMW10rt1o+egUbxvueBi/cLrwSJvVMtxhMMxQ4vCsu9RvrBAnKqC22LHlqPOSebhDYgAoQqE6QWKsMDdHMl1NjhTxZpbTRw80gHdbCceM+2hJpMJzEbVtXb/nvdrRfObxmOV/fumWcK7jL0p5l6Wtvvxc/q5vdxfoncMbmwcu+Z6/P3eTFlP76Xeee+tw55cNySc/8dpD2VJE9N//7XdflfLDHOWIgvCUu9X/yOO4duc775s/KyFuz3/FUfOf/8tNUZ3nHSglbpup+XL5mb37dh6utY6US5pLvPd3v1qgwdRx9r9/++8hS+d5V4x/5PW7sqSINO5/9blvyq7NeeeSf/H8M/OU9Zv+9Zd1dcSPDwoyHn3p8elSz2Eo0nzw9d9svnS1wIJSZP/PA7LJanp5n+mRNc62kXLImR8xkDkPyrsNVkd7538uuz+X10hHeVu7Xq/XNzUbnEJNdObslc+8/PuVaYqRNSxrNxod4pSJ6d2jxdL08aliu8HgGNawRibNePmLMzmBxfn666aPfDJHN8o7TG2G9jaDod3iEqrCUscvevSXv1udphpRJ95uMjpEybnJsu7znpaWJHYYDSOkcUPdVrPJYDJ2/Gd2kn7lgeZi67OvW45ZUOxMxTNZeEQdceYqBjLn4a4qevy9os4/cMAv7p16m/paxjSsjEfe/f1nF9wAAJwydtpdD62aFrvg4TsuvfDBacuIaRIJGsrPc+PG5qTL84+aKYAkZXyqxHqpuGFslma4YxthOMEdS8RBiB7bZFlX3/cJpM35/+1uuQuU8XNvW313emje0luOXvyiyHW9gv0xXHPlBUHG2Iw0+eljZgogTpqQKLFWFtQnZI6I885f+OR/n/uk8w8u4ZY/vjQrqF8fdNbZ/mezaM3dwvk/k6w5ay25kdqjNy52t1XfeFPl/g/e2V5NcEBO3gTlCGoRIUlD2QWrJDUnQ4YAQJw8Pl1mLSprlIygGEcGYZx4kQ6owbHmKN/vGsltKvt+7ddHrRSrUjO7BjJHAixuLL1klSSMz5AiABDHjcuQ2Aov66/5eR+GZlL9EdsuIwh04kVx13/nzED01vPgpOMy429NDk4OlMgwMRmMhWVV60/WVgxmTEQgG58xZmFScEqgVMERk9FYVFa17kQv2xQogm6eFDcnRh0uF4owuByOBn3zgbOlm8ssjoGuOQju2nNFzYujg8KjQzEYPUduhcEZcxfPnzJuTJhaAnZDQ/m5I9u/3XWu+UozVTD2vtd+M4vue/8zx7Q7ZsYrzKW7P/u/713TV99zU1oQaTi95f8+2lXpFaooNGv+rXMnpcWGqsXgMDRWnM/f+d3O042+oxI4QFa3vcianZGTLjua70rKSlfYCk/WSVdh6FH0H4+zK1xN2pwli6ZmxIUFyIWYuO1GfWXRsR+2fH+qwTnQNUEUnD5r4azcjIRwrUzgsjTXlJza/d13R6p6zCVwgekLlv1sekZskAysjZeObf9yS8vsPz07V1W94U9/2lTjWfH3u0QAEJkkDMZgKXGe8fOacNZXtxCIkimkPhWzMDh55qLJOZkxOq2Mc1laqivO7N6943BdzxJp0qbdfEt2WlywWi7AhLcbW6qKzuzZtO9Mg2+kwuDkWbfOyB0XHRYgArupoaz42PY9ewtafdfDKlndvgvWjLTcZNnR087ktLEK+/mTjdJ7MNh9CyAKGzvn1mk56ZEhajHYTfrKSyd27N59qrnHCJcgaPzsJUuyx8YESHhz/YXT33+520hpr+mjv3EOiMN1oJjeOombkMTh0r4yPRc2bfXDK3LDOf2pr/79/sF6Nrk3jHokD1HAiiUT744QYaAOm6ONcAGawBkTAyclaF/dcO7ogG6GQOLAVUtzbg8TIqA2q01v5wIDAqfnBOaO0fxtfeEpjxv0kDT08RXZc1QIiNtosbURJJZKoqIiV0WGpO078vJZM+//moNEbVY7BSQWizwrEXHczb96dnmyHFyGhurSWlCGRabnrUzPzvr6tde3eicEaXpedv6xbdvb59w8+ZYHn0ksqyrYtbk2a9Gi3Lsea638w9dl7q4SJS759W+WJMgQ5R0mgxFkmsj0GVFp2Vmb3nhtU6nN88gjqZK7dLTQOjEjO012yjQ+Q2UrPFkimCwDn+TR7ziRcsJ9Lzw5LYgDYje1NbUTLFZowlOn35aSlfT5n1/fVU8GsKYs+bbf/OqWOBmivN3Y2mIWBYQm5t6SmJWV8PYrn54zXSkRCph4//OPTwnigDpNTU0WyZhZ9z+rPXCplwa1H0ceAFB4CMcB1Nbz/rYnBMFhARhIq77NoxpDspQFT/56zpiOc9Ta5hSpQpLGLUwam5nw8euflHiWSJm9/LdP5Wg5IHZLe5ORYJFCE5I8fUFS1pivXn5/r8c8tDhu9i+fW5SoAJehqabUAsqgyIzJyzIyM9a+9/Y3NV5xI4mCKz9WaM/OSE+VnTONT1ZaL54uFuTKwDt5IEni/KeenRcnQ5R3mNtNIFdFpE+MTEvP3PjBmxsr7VfixIHT7/7tw+kBGKjT3NzqkCfNWP179a7zvXzP/YhzYGh1Pc+DICKUEwDf+ywOFz976bRYNQaIyv3ZnD1HPr/qTDwztHySB07IzrwrQkRNjR9+f25rrcMNIAkIW7Vg3K1hkY9Oazz3faP/d/WixJzMZWFCV1vte9+f39Xo5AHE6rDVi7MWBEU/lF3zy4PtXRcACkmJy1MhV3Pl3zdfOGkmAABYlJKT/ccpgZnjoxLPXSgm/q45FLjoRauXJsmcldvefvPrwjY3AHAB6cufempB0rJfLCx4eXPVlZ0jQePhLzbsNVBBQ0DKc3nKmp0ff3PBjc6Q+FfuTcocF7G+7DIBAOBiFt2/OF5Kmo9/8Z+P9pabCHCKMbPufeyenPglP1905k8bKjxnepFUDudPnLfljs1KS2hLU9sKT11AyjkIDTBOpJ1y82QtdlfvePv1Lwva3AAAWBm/+KlfL01OvWlW3N4vum7g6v+a3JhbVt88RupuOLTm3S8OVhh5AFHIxDuffCQvcs7diw6/uLb7njBBwsKVk4MwbTn26b8+2F9tpcCpkpc88tAC2WCOPAAAyCWAACw2vxo9SBw2+dZlU5VgLtl/WH9li1zUggdmx0r5xoObPlxzotLIAwiDJ9766GOTI+YunX/onxu6S4Q0uTdPCMR8zfcfv/1FcddRiln09IOLUxLmzoo+sKay6yhFzH9wQYLcefm7T/+ztqTdDQCcOmPRY0/PTFy+Yn7Bv7Ze9iwRksqg+PglW25CZnpsW7rSXnSuBCnyfM97xE0PzBkjJS3Htrz34dFKEwFOHjt72YP3Zoz52fIFp9/YXNEVpyTx5jvSAxDRH1r3349O1tkocMqkJXetmtdjIMy/OAfGYqMUQCxBfQ6mk9b6RgcNkiKgzsaGNjY1Mqy8kwdWTUtUcNR54MDZzbWuji+cvb3ho73qCSsTImLDxnKNx/1O9QKBsX7TCVp9qWyPvvPDDkPDR0cbp98SHhoVFI7aq7u+2sFqKQZ6+eLl0+au64I4i0+efPqSSEhdLR7XSv/XvPZwTG5uhIC27PtqXUf9BQB8e+HGtQdynp0fmTsp+puqyu4AKLGaLRQAiMlsJQBmCwEAajGbKWC5QoEBCADg6OxsHQfm/K/e31PeMQLCmyt2f7w2KfXxKbrsnMhNFZWeTWCRUGAtPHXelp0yc4Ex2HFhw3mbcIbY+xvvR5xYG6zFiFQd29O9JhBT2Xdv/vGYQkBtHt/Sfq+JJFzz8e3f0brj3xy+3NmOdOqPr92YM/GXU4LGjg3FpZ3NbxyelhaEqePspk/2V3eW3Viy+fN94/+0LHbgR74jio5D8qO5AwVm//zPCU4AAE4cEBikRKbKU19/suWQx8OESMq1HN/3PWk8teVkVWeJXE3Hv/1m4rhHpmpS0oJwaWPX8QwICkKI1J/cfdHjKF3+/l+vnVAKqNXYHSSOGZcTwdHmo+u/7qiRAYA3nNu+4UDmM/PDciaFf3fZe8hOJLCdO1diS0/Mm2kOdhavv2QTTRL5nPfojAk6Dsyn1/3fkcrO42mp3LVufXL8w1NCxk/UfVPRuU0uJjlVjajp7IaPTtR1jADwpoubNx2d8Oufed8D42+cA9I5Voagzykc2rzv7T+15mbqcFPRsVPNI+YOlp8mn+QhDVUiIObiBrfneeGbqt7ebtKCo3ogu3CdP1dyvsdSp8VmpCATCxXoyne7zeygII0Yo0soKL3o6FrKO/Vtvr3Y/q957Qm0wVoMpK6qxuu2T3fN5XoC2qCQIA4q+/dFuvIl4bRBWgx8XXmlZyOZ2irL6/gpidpgrc82OQEH1sIT5x3Z2RkBtlPbCq0QIPCZ2vUjTmpoN1AI1I3Ljd29qbx7+N5tam4weW+032tSy6U96y71KLKzvdVEQSpTXHkpBVapVRhoc1W15/1sRF9RaaGx8gGWyE9IKA+J9tgXpWKZXCkXYbB2t5aouWL/2ooeH3UZWi0UJF6zI9RkMFAIDE6fFLlvY5XHUWpr9D5KXFBgIAZSV1vnVSK+rrKRQEBgaCAHNT3O+8VTRc6snJQAW+H35+wQwPmcdy4oUIOBr6uu8rqW7FWlen5KrCZY071NrFYrEfB11VWeo16k5fJlGx0j89mmX3EOGWqrK9hXV3A9dsX8CO/kgRBGAEDcPjdoE9v5S4N6d4BAph4fp41TiaRcZ1sQywJVqLtl2IHWlVw+OV6dq0t6ZXVUeUN7ZYv5crPhYm3LRYPb+8rs/5pDAHEYIcC63NvvjfH8KgnCdBgQ5bgB3MKGBQKMANwun8cQ3C43AMICgc82EcZAree+3/B9Swg0njhnpRDoe4e8H3GSxqO7zt30YFbC0hf+OaOqrKK6rqa2+nJ5yYXyJpv38ez/mgAAAlVselZqdLBKIuiMDqmTe9y3xnEYgPJut/dVx/O+vdyhOPJdxep+yA4LVcHJMxfesTxt4dMPCv/3rXUXPMfzOVVscubYCK1K3HVKkDq5x9uZSPOxH4rnPpQWf9sT/zOjrryivr6mofZy1cXzVc3eRwl3lCg8a+l9kV4l0oVgQBTj3s67rWj79h9atdBw7nxv5x0LOIwA3G7fa8ndcS1dOUqYQwj1cqB5t++R9zdO5ifgOrzbCoUlZ744NzJK2Mu/+VQ31FTz6np+xdSEebGq+GhpQnTHYr6+vPTtXWXnPG5o6f+aQwUHp+XNS+u5/DrO4FFrya6vSrri6WOl/sVJWw6884pz8bLFMzKjY9KDYtMnAgBQh/7sNx99+E2xkfq/JhcyefVTv5geLu5lEGJQCd6fIz+A64C4jI2FWz9r4574/e2RM382flfx0c6Hnjlt7gP3r5oR2o8S0db9a151zF1668S0mIixwZFjcwEAqKP53JZ1n24pM3nHhYOTps9P6l+JAIBaSw6t/7HzPhT8jJO5sQ158kDqmCfnRkZiy/5dZz4sNrR2tS650JR/r4wP67G+vbX+0631n3GiMK0yOlAZqwuemRwcEZf0e+R46pvqFjqQNYeE69R7T79xZOS/y63fcTrq8tf/O3+DUBkcERkRHhkVnzFpyriwrOVPrG5/6V/7PV8a0Z81UcicX/xiuo5rPPrxO2sPV7Q7u2YD4u74yx9uCfHaM88TAMQJBD7zvr7jMf6WCACcbqAAYpHfD0Lw9fkFNcuiYuNiI7mjbW4AQMFzV6yaEcI1nv78P1vzK4zdJYq987fPLdb23HVD/rb/5m8XKrW6qFBdRHhcZlZuVnDm7T+/r/3V/2+fwfP6dJ364rnXTo2Ga2lI4xSLEAJwuylLRqOCd7uFUkIBAAs5nyk46djE8BmJ2jD/H5gKiA5NFoKzqvTdwvZWz3GJq36dKe+s17fkF1d+tef4rzaUlvNIHhWWJR7UmgODpDIJAupwOLtjpzyhFJBAwPldJfWJuN2EAgiEvvMWQgEAJe6BDMYNKE7qMukrL5w+vHPLp6/96ZXNVW6QpeaM7e2t2VddE6nGTkgQgatoy5p9Zd2Zo3fE0G4ggIKiozx3g0NiY31363eJaEsroQChwdjvK5c6nE4KIBAKO74jSJkyIUYE7gubNx0sM3qW6OpXssvUXHW+KH/nzi9efeP1TXVukKRMTOx+vwjpKBHHXdNriScUQNBjDkzQcS1deYaC8JTSXrI05/vRIYmzB10wxgDNrYTdRTUqeCcPYms0UcCKlFCvRqAgOOaJheN/MycyqpctUJ4AAMK9v5MGSYQcAiBu3udBIplaHuDb4xYlJkTOTQ1P8a4znC3tlS6KkEAqRP6vOUiCiPS0IExddVUN3Ve0u1nfTACHx3iPxCFV4tT5C+bPTNUMYOd8c1MLAS58TKznQ2lIGhMXzgFt0TcPoDHW/ziRckzO9GnTJiUEeB/P2rIaOyAslYr9XlMsEQMC4nC4vLqASBYSqvY5PqS+sKiJIHHGknunR3TcI8qpkpfcPTPI6dN99P/IV1S6rRQCE4Xxfg7vIHlyXAQHtLW1rfPQiyRihIA4Hd5TM0gSHOo7i4OUUeOn50yZHOtdVFddWb0DEJJIuo8n39TSSgBHREb4lCgpe87CGdPG+h6r/uCbW1oJcOFRMV7XkiQ6PoQD2qpv7b6WiMFgosCFR0ZJPD6PtdExvo9GDiBOyhNCAXF91Aw9YEF2IsaUXqzke3//WGcxdBkzFyyYPSFCNoRpjOkPn+RhOHjJzCPRlBnjlkSIO4a0JJqw++fERGDaXtFwvmcVRmz1RkKReHxyiLaX7ydtaTGZKEiiY269kpCQPDjmsYmBvgPSiEvOynjypqzfzIiM7h5WRsL4zNgcMaJ2c033TEb/1xwMThk7c/Uji6IwbT+x79SV5yNJ1fHjtW6knXbHikxt57gfEodPvevR1XfdvSRTc5VLv0+k+sSJOh4UE++4Py9WiQEAOEXsrPtW5sqBrz1+fCC3svgRpzh+3urVDz728B0zIrqrDSyPnTM/Q46oua7+ykxGP9ek7TU1ForEGfPnX0mHSBY9+97FKT0CdZdv++pIE0HBk37x57def+Vvf/3Hv//53Dxn0QW7z2n0/8hbip35NuDCJEtT+l/XIJE2c+7qezLkQPQnC6s7LnpqqK2xUCQaO3/GlaoVSaPmLF+Y2mML4pg5D6z8+eN33z4j1OMoRebNT5Ehaq7Td895kKqCE7U80uYsX5kaeKVE2SseW7li1fyMgV1LVedO1fKgyFy+enJM57Uki569fNkkGfCNp45faQbxlSUX2glSjlt234SwzrQtT7j1Z9ND+B5H3u84aUtzM0+RKmnSOHU/+n2yFMnCMCA2557ivr+8KCjviT8+c/+qO+57+oXHZgex9DGsfOY8aNnJgi8iJt4dEbr69pC7bXYjLwiQC0UInG3V/z2k7+0JQeeR0zW3R8fo0rLfS3Z1v0iTbyl/aWN5DQVndfmXVWGPxmhXrZw9q769ykqkSnVKCFd8tlGviYr22rlt77GqhbfGRiVnvpmQ2mZxOSkSS8QBYoyo6+zxinO8/2v6TTXl4b+nOwEQJ1EFKMUcovaqHe+tPeN5Fylfte2DLanP3pa04Om/T2+qazARiVanU4sR33Liy7X5poFkrs5tLk2cdN9LOSuN7RYkD1BKOEStlzZ8vP3ygArU7zhpy5Gte2aNmRc++YGXc+42tJmdFIuVASqJAIHl/LfbL7j8XtN5/rvNhdn3ZqTc9uKrU0pL60y8JDAmPlZc+sOp5rCZEd6BUuPJj/72av3yn03PHBOsDYbGS/s//mpzy6yX8wZaou4tm51r9vN5C7jFK2U7XrH0OV6PgnIfeTXDDQCABDKFUipAiNor9q7ZXNVVL7qKv/3hfPZtaakLnnt9QvmlRhMRB0bHREsq95xsC80L9dpry6lteybHzg+d+NBvxt9jaje5KBYqNEqJAIH50vfbS690w/nane/vTHl2QcLC+1+e3lrfaCYSTZhOKUak9fiW9UcH9DJOvnbn+z+k/O6m+MnLfj/xFlO7DeRKpYRD1Fa2ft3OSo9ryXHxu68K0x/OCJ1x50u5i1uabUgdGOgq2l9oz5uk6LFN/+KkpsJd++ekzg2a+swLORarvTMfkbqt7765Te/dGEJS4UMrxWEIKvfb9l7lp1ZwoK4zySFxqE6DYSA9cuYa6fFjULz9fEl9iR0rpWKNQqIWUrOh/URhyVs7y8718Ziuy9B8TE8DA2TBcpFCLJAKBRKhQOxs21HYagAA6iotbawgwkCFLEKrigkQY2vbroMF71eJZ2cEBTjbd51t6n7Yx2lo3n/ZChKRWibRysVKiYDjnfWN+u0HC947b/Z8gqP/a/YX0oydk5ek4oQSuVwul8kk2NFed/HYzq/e/eSHcqvPynzbxfzjFTaRKiAoNFwXrBI5mivOHdj00fvrC648JoeDxy2YGiusO771RB0BpE6dPTsJLu7bc8FAgYuYdPPEcFfloZ1nmzo/4G67mH+8yiFRqNQBAQEKgdtYX3Ji55r/+2yv57sfcFDmvGnxEuOFffs874ECQOrkWbNTVLaygz8UtVJ/4gQAcOnP5Rc2gUylUgUEBKgUcgnnNjWWn9n79XtrDta5BrAmNVeePFnNKwI0QWGRUREhKmS4dPDr974sDJg2a6zKVnpo17lWj/ipXX/p1IFd27Z8s2XL9t2HCi63k5DxN00dI/Ipab9L1K2pgleME2dFCGcmwMUiV63PW6CQOn7GnHg1JxDLpFKZVCoVC5HLWF95Zue3H31w+LLHRU/NNadP1vFydUBwcERUaLAKGy8e3/DuNxcCsmeMVdpLT+w91961tqup4ExRE8iUCpVGrVbL5BKB29Rccfroxvc2H6n1flaireL4sWq7WKHWBul0gSqRs7W85NDGrz9ZV+z1cOa46VMSxKYL+QeLzd7nPX7GnHiV9fKRnRe772pwt5WfOFbrkMhValVAgEzoNjeUnNv9+Zdf7qn3eY+IrbrodCVRBgUEaFQqKTVcPL7+nW8rI6dMjhObi/P3nzd5HPn+xOnJ3Vx4voqogkMCAtQyqUQslojFEqHt0jHvInBq4YOPKe8bg911thc/dNRcpbdFDS22oMSEMJm74eTGr3ZXmtjsyDAayI9BMcx1IMh88LVnZkor1770l631g6skhMHiF59RLAxB1MrvO2D78gf76fZrFCUzCDhAeNtcyfIZ4ng5uPSOv7xh2t403DEx/cae7WFGJEFQzpQ0GaL2hvrWQTcvXU2OP/3N+NpRt0XCzb5JvmwMGywfEQRjJE8uEMdLadlRy+N/Y5ljlLkODwkyzI/jEm7/w2Mzum/aEcpUcjEHjsofdhZckxfsE7Prq/fbv9smWjRVJDBei/spmEEjRveOHe79h+2H6ygbgBp1WPJgRgQklKs1ms57bSl1O9rrCk/v2bx+T8W1/B0/U51z7boR8putDLjLbP9TNtxBMAPF5jwYhmEYv7E5D4ZhGMZvLHkwDMMwfmPJg2EYhvEbSx4MwzCM31jyYBiGYfx25VZdna63d+aODPX1A/oBXIZhGGZosJ4HwzAM4zeWPBiGYRi/seTBMAzD+I0lD4ZhGMZvLHkwDMMwfmPJg2EYhvEbSx4MwzCM31jyYJiRB6HIJHF28HCHwTB9Y7/nwTAjCooaL31qmXRGKOz8j/NkE/vdKmaEYsmDucEhedqypx+eF8PV7X33jS8LTCO5NubwrDtUL80SyIHWFDuONIzkWJmfOpY8fgJE8SkZ45RQW3o6v21U/9onClnw/N/vSOzjoqVtu//xm88uuH0Wc/FT8hI0YgSxM6bGf11wxvff+0Uw7uHXn54u9/ztc9L8w/8+u6aE92MjqT9/5dm56rrNL7+0vqrniUB4yp3qv+RxXLvzP++bPyshA4qUYa4TljxufEgUl5yzLILmt57JbxvuYK4BSp1Wo71npU2MdncvTXW+/Mi+S+lzYriGA4fL/KjqvbltJqOB70weArFCJh7olvqiGS9/cSYnsDhfe920tp71OZiRjiUPZtQxHvnPrz4u6m+7nJqL1v/tmfWD26W76NMXnvm08w8uYeVfX1x4bWezOcEdS8RBiB7bZFnHMgczGrC7rRjmOqHQZ1YQxokX6YAaHGuO8qN6ZJH56RidPQ88ZtFL/++cUOPhN186E75iYd74qEAptTXVFO3ftfm7i209xiaEwckzF03OyYzRaWWcy9JSXXFm9+4dh+us3V9mQeLdbzw0g+Z//Kljyp2Txigs5bs2fbTdNfWB2+akB9KGwm/fXb+30uGzzVm3zsgdFx0WIAK7qaGs+Nj2PXsLWl29RsyFTVv98IrccE5/6qt/v3+wfsDDJ50HQJGWkX1LclRcgFwuwIR3Gg1NRaXnNp2paOhqkCtTb3lzdrTQ40OTFjw86cpfpPTwly+fMXTUVEg97qW7pia4L76xpkCVM3lBXGiYBNnNLRdKC9afLK3pvUwjGhd/x9+fXxjq0TiiloOv/+r9PqY8hMEZcxfPnzJuTJhaAnZDQ/m5I9u/3XWueRAlFwRn3bzs1qnpMYES3lRXnP/tl1sNlPSRPiKThMEYLCXOM47eV2CYkWZ0Jo9OKHDaY79IVVUXnTxVptSlZI6ZvHJ1UuSaV/5bYLjyHUWylKXW+LUAACAASURBVAVP/nrOGBmivMPU2uYUqUKSxi1MGpuZ8PHrn5R43XwjTZqRfebEd/sMc2dNXHznE4mXqwsOfVubdtPNWSseN1x+4duKrppHHDf7l88tSlSAy9BUU2oBZVBkxuRlGZkZa997+5uant9/Ln720mmxagwQlfuzOXuOfH5pMNlDmj1r6VMpSg6I3WZtshAslGgCI6bnhmfpDr78bWEdAQCgbofRaus4vyKJVIrB5bBZr+yWN7upb02GpJPyFqWrWgorL5WLA5KjdDkT5o0NU/z1mzNVg8x21x9vNxmNko7kgUUKuaTvTrY47uZfPbs8WQ4uQ0N1aS0owyLT81amZ2d9/drrWysHVJtj7fRHXnhwQgAG6jQ1tdrlSfMe+Z1mx4U+cgcKD+E4gNp6nuUOZrQY1clDPiZc/8XLfy8yEABAkvj5Tz8/b8yURfN+KFrfXTlzUQsemB0r5RsPbvpwzYlKIw8gDJ5466OPTY6Yu3T+oX9uKL1SLSKu+eia7QcM9EC9Kun3kxQ1B9ZsKXWj8yT++buSUzMit1VUEgAALmL+gwsS5M7L3336n7Ul7W4A4NQZix57embi8hXzC/619bLvyANprW900CApAupsbBjcLU9IlXhzkhLzLd9v/+6Ly2Y3AABWho1/enFuSuS4WSHn1zQQADBf+uHpSx0fUMxfsurnEfTU3k/fuvqMMRcWad7x++1VRgoAwCkTH7tt7uTwnDuTL/3jvMXPgXjx5Cfeejxb2Me/uk688+Sb+UNYU/KVm1/+9eaO/8dhN7/05xVj+liTi160emmSzFm57e03vy5scwMAF5C+/KmnFiQt+8XCgpc393Jj1I+RpC1ZMSEA8Y2HP37r48O1NgqcKvnWh38xV4p6/4BcAgjAYmOzHcyoMaqTB9Ts33i+c+AFqL1s/w9nZzw4SZOYosWX9J3jMVKu5fi+70njqS0nq5wda7qajn/7zcRxj0zVpKQF4dLG7rqBUpvZQgGAmC1WAmC2EgCgVouFApbKu27UxDHjciI42nx0/dcdmQMAeMO57RsOZD4zPyxnUvh3l2t86hvavO/tP7XmZupwU9GxU82DqiKwQhWEgLSU7q4yd/WEiKnhzL++KlNy1GoZeGZC0HqooNrYFR1vKt1QNG7ipOCkKJ3kfKnNv41Ru6FJr+/r+nIb7COknsQxubkRAtqy76t1HZkDAPj2wo1rD+Q8Oz8yd1L0N1WV/h5SLiZ9rBpR8/G1Hx+q7ThuvLFky+eHJry8XN3rJ1DHtTVCjgnD9MOoTh7WpkaD59fN1dpsphAoV8q623fUXLF/bUWPT7oMrRYKEpmir5ZgL1DXqlxQYCAGUldb5zV+ztdVNhIICAwN5MA3eQBQW13BvrqCfu+tb9RqMVAIDIiZFFK0sdFxpao3tZsGuWXe1Gj2PKC0qc3ghmCBTKZA4Ger2Hnmsz+cGVw8fUDqvN9+kOe7lNqO/Ovpd0/5/WyEQBusxUDqqmq8PuquuVxPQBsUEsSB/8lDFaBCwNdVXLZ7LCVNlZUWGqvwN0KGGZFGdfIgxPtbTSml4FHLd+FUscmZYyO0KrGgc+AbqZPl/U8bPjCHEQIcnrX0vkjPCkegC8GAKMZDewsbMVz6oWrcQ7Fhty27Z0ZTY0VLW01ry+XGuvONxsGOelCfAwp884XP9tdz1gbzCGoTU+qyGW09soTdOqDZbdRxNnW5t98b43U2w3QYEOW4AZzNjm2C2+0zSMjzo27qiGH6MqqTR39w2twH7l81I1TcS64Y1NQDDk6aPj+p5/Khrx6oef/OzY7sSbemRMeERAWHROUCAIDDULll794ttddy3JwYa/YU1ly77V0bjpPv/2oAfYyrwcFpefPSei6/XpX9CMrNDNM/N3jyQMFzV6yaEcI1nv78P1vzK4zOznyBY+/87XOLtYPZtOvUF8+9dsrPiYBrxdWWf3R7/lFOqQ6MCtREaEMzE5OyNLG3L5zd/tW2fSOimyDKWvXiXWl9TpgXfvmXTwuc1zWiq3Gdeu/pN44M09kEAKcbKIBYNODuMMNcbzd28kDKlAkxInAXbt50sMzqWaUO5ktKeEIpYI7j0DA3GXmToem8oel8xcWdZ4qX37ZsaXDExEjx/uKRMBmNJAFhurA+k0etH7NNQ4p2nE2B4BqezY5tIoGA817OcVwfH2hpJRS40GDMAXtIkBkdbuzkASKJGCHgnQ7vlx4hSXCocsCVF9/U0kogJCIyQni85ErjGamSJuTEyRxVBYfPG3rUQkiiS8/NDOeaCvNP11oHU0kpQ+LGBQrd7TX5DR63z7pby1qcECySiHqe0s7nOVCPyaCh5Dj69sNHr+P+BsrdrG8mEBYeEyU8cMHzbCZOmRQnd1SdOHChzed0UZ7nKSAO4z4OKG9sN1LQ6mKjJdDS3Z3BwTExfc20VVS6rZQLTBTGY1cxyx7MaHBjv56EGmprLBSJxs6fEdPd0kXSqDnLF6YOfKukquBELY+0OctXpgZ2VtVIHJ694rGVK1bNz9D0MhiPgvKe+OMz96+6476nX3hsdtBgKnEkDst4YM6cx+dPmRHYPcqB5MHp82PEiNrq2nrMeVBHq9lFAY+JiQoYIc39EYRUHT9e60baaXesyNReOZtT73p09V13L8ns7WzSFn0zT5Eqfco4Ta9dCb7yXFE7QcrclfdOCZcgAABOmbj47ryQ3t7cCABgKXbm24ALkyxNYaeIGR1u8J6Hq/jbH85n35aWuuC51yeUX2o0EXFgdEy0pHLPybbQvNABbpWv3fn+zpRnFyQsvP/l6a31jWYi0YTplGJEWo9vWX+0l8fpcKAurKMSQeJQnQZD84BnYmlLyak9aSHzNYkP3Rl3j8VicgMWSjQykQCoueb09tqeW3YXXSiuTxwXnrzwjTi7xUUBAKhp97aN6/U3aiNXlH3///xiXNegGRYpMIAs99F/ZnbekUXNR9/74+fn3QDAV237YEvqs7clLXj679Ob6hpMRKLV6dRixLec+HJtfi+//0FNJ3ccuCVtTsiMp/4xyWq2dz0dUvPtP1/dXk8AwFH0zdqTmQ/lhE1/8M8TVzY3W5E6WOs6vafQNmdSryN51Oxcs5/PW8AtXinb8YpluObSGKb/bvDkAaThyH9fNt5028yJ6RFjMrXE2l57/tAHG/fW5zwyaxCbdZTt+tdLtbOXzMjNiNKN0YDD3Hyx4Oz+fT8crDb1Vh/z5Xs3H05ekavjmk5t3VMxqHt4qKP60w2bKsaPnxWni1EpQzAivNPYVnehrHDL6bK63nbvqDv6j+2uuyemZGjlKiFCAEBdkj7G328ISChTqVU+9bRIphJ1/i/F0iuXvqN86z//eHne4pumZI4JHxMEDqP+0vEzB77ffrCi17MJ1Fr0+T/eNKz42cz0aK1S1TkcyCuuHFLacvi9/7HULFsyLSNGq9VCXcmu//tya/u8l+f0FTEt/Nb8VYbq7gjpK0/SF9+15rcPuPAMcz2g8TmTW5r0AKDTRQ13MH2qr68e7hAYZsgJg8UvPqNYGIKold93wPblD/bTLIUwIxWnC4+0WS0AoFT2/uKEkcBsNg53CAwz5IiV33/MbQwQZMYIkhOEolL7nobhjolh+nCjD1sxzKhCzK6v3m//bpto0VSRwDgCbrlmmD6w5MEwI46pzrl23ch5hJJhenFj36rLMAzDDAmWPBiGYRi/seTBMAzD+I0lD4ZhGMZvLHkwDMMwfmPJg2EYhvHb6LhVd3qm6GJb0HBH8eP01XXDHQLDMMz1wHoeDMMwjN9Y8mAYhmH8xpIHwzAM4zeWPBiGYRi/seTBMAzD+I0lD4ZhGMZvLHkwDMMwfmPJg2EYhvEbSx4MwzCM30bHE+Y/KYhDi6K46RJobOPfb6Tm4Y6HYRimJ5Y8RhwsRZNlIAKI1OAYPV80xD9FKlByf4xCUu+FByvdm6xDu9/BQBjlaJGG0rMttLHX44PQzXHcHDEcvuzeYLnWu5dGC5ffL84KBQRQs8X6r+2EXOtdMMyIx5LHiENs9KgVpkpA30YuD/2PWFNCzW7k7vpTzIEIDflOB4tDOUE4HmhDC994XXeMUFSe+J7bBEECcDpBKLquO2eYkYQljxGH8vS7Svd312t3vIW8crGr5YzQ4nhuFqsSe4WkePq9ksXjMOcip79yFMVIVk0Z+XmWYYYImzBnmP7BkcK8TEwa3ev/aft8P28b+l4hw4xgrOcxhBJ1goc1cLSWdwbgSVJksZGNtcQdwN2mRYGUFjaTda3U0bVyTCj3hBZ5JnNrO/9yHXX7bNRjNP+0GC8KxFFCoDytsdAf9OSi67oUDKGUQDRDjaPFIAIwOWixgexupa3Uax2/4uSEKC8ET5SjQA6sTnq2hex0oV/HYIWdvFFO6gEAIDdasFLhFcd9qR4XMKVby/i9Tt8tRwTgxVocIwIY7FGitPGY49u1rjr7wD7PMDcS1vMYcskazJvoXhNVyPGd0dxMET3URMooygrF8zzmqXkCZjeY3GByg4XAjzZrNRru/mDkspFTBtpA0Rg1fiCWy7wOjQGM5sRwD4TiJDEY7bTKTjkxmhzKPRODo3q7mvoTJxKgFbHcIjUKEoDNRa0YTQnnVqqQz6CQi+88PiYeeAAAsHUdsY7/nD2OmkLFPajDoUAbHZTnUNxgjhJf4fzgE5Y5GKYD63kMuWYDv60NKEIqOTeZo/vrSSmFIope0KFUJdpmox0TDjVN/MtNnR8JDuJ+G/Ijw+lxYrqmjBS5AQAQRvNjuPlSdLMWFTVSfiiLE6HFC2TgtJFPqkmJGwCAE6BFUVyeDK/Q0jeaqM+dR/2JM0aLJwiBuuiGaj7fDhRAKcOrIrDPPWCna92nAQAACfGjCTge6NeX+IKrptlEBeypdO+1AQEQitDKaC5L5L138eQn3no8W9jH510n3nnyzfzO7mFXymIYhvU8rgMb39mNsPAABDrugLXyQAFkHAx4xrWmjZzvGtKihO5voQ4AjQxpBx3w1SA0ToU4oCf0nZkDAHg33a4nbQBhKhTRozw/HidCyQqEAYqbOjMHAJisZGMbHfzV2dpGOjIHALicdEszdfvsndoNTfo+NRnsbGqDYXrDeh6jVZPDa2jL5aJmQIEcyBD8+JjXIGiFABRqvQdveDvoKWiESANQ7X+cKg6A0lq715rNdmoD3wdQ/FVr9+oJWZ3UCEjjuXfnmc/+cGZwO2GYnyKWPEYrn9EhCkApDLwj008IMAIAyArBEd7T4yEAqONfvVNXf+Ls2CZPfVcd/CiR23ublAK5DkeJYX4CWPJg/IdQkgYl9VzORngY5ieDJQ/Gf5R+UcKfvHbv5CAUAIDz6RAg4K7ZHvomylr14l1pfU6YF375l08Letz+yzAMSx6MP7qGfXwr+sExuAEEKEICyGPaI0gy2AmPfkGSgDBdWJ/Jo1bKxrgYpjcseTBeOjoBuO8as8UFIEYREgCPFw4iAcpWISmhBe3U4O8uKS2x0HkSlBLMTbTxxx1AARQyvDQAuQB6r9VpZ465BhW74+jbDx8d/GYY5qeGJQ/GA6XNLqBiSFIjtZUaes5hUHrWSPOC0cRQXFxNLrgAOt5xG4pXqJHDxJ9uH8huq1rISRWXI0Qr4gWLnNSKkFYIJW3UIUK9Jg9KqIEAcJCqgHMm3zn5kQRpZv/ulXvHChBf/92f//h1ue/7Ahhm1GLJY2TAaGU8l9rVkMYYMIBUzf2h620clCdflJNLQz8jfa6FzJHjoADuDyqwdj3oThzknctEDwAAtS1kh5xbKMOrE3Crg5opaMRIiYG46JaB/voIddN1lbw+GOcqUaAQISc9Vkd2uNCvNX10LQjNb6dZWpQdJcjgOx8spy7yYSWpHrpDxMWJnnpIqO4KSSBFAKC7SfrSrI5C0BPvW7eWen0EyZLS4jgE1Fm6d28FyxzMjYQlj5FCKgBljxljZdf5oeg6nSqbhbxTDbcE42QJyAWd40K822PumtBdl/naQDRTjaPESANgdtKzJrq/hVQN4tZa3kX31PF7PJZwct/Xk3gq1/MfE25BAAoTgrgzrqGeYOeQXImU3k8uchKklAAAAAVxj1MkjB+bKEZAzWd+ONLM7kVjbihofM7kliY9AOh0UcMdTJ/igxsvtgUNdxQ/Tl9dN9whXBGp5RYrrzYrYDWRT1t83yYycggU+KVoLLaRVys6Oz2jDpdw11+fXxQC+p3/+/wXJdfnpZUMc52wnscNSypC8bKrJQ+jYwQ/LYcgQ40lAHan/zPwIwUOS03VYuou37v3EssczI2GJY8b1qV697P1wx1Ev3Ey/MsIrOqeUMAgwwCEHvR4a/0ogwKSUyMxtZ3dfaBhxPbvGGagWPJgRgYEKiGou/7iCTSayZFmctg2nEENBpIljx3D0bb8XSd6uW2NYUY7ljyYEYG3kD+fv6Ha59Ry5N+PHRnuKBhmqLBXsjMMwzB+Y8mDYRiG8RtLHgzDMIzfWPJgGIZh/MaSB8MwDOM3ljwYhmEYv7HkwTAMw/iNJQ+GYRjGbyx5MAzDMH5jyYNhGIbxG0seDMMwjN9Y8mAYhmH8xpIHwzAM4zeWPBiGYRi/seTBMAzD+I0lD4ZhGMZv7MegfuoESu6PUUjqvfBgpXuTdXji6Q+EUY4WaSg920Ibe/2VPoRujuPmiOHwZfcGy7XevTRauPx+cVYoIICaLdZ/bSe9/oqVKEQw4yZhVgoOUiFw0OYq95l9rgMFxHmt42GY4cCSx08dJdTsRu6uP8UciNDV1h8ROJQThOOBNrTwjdd1xwhF5YnvuU0QJACnE4SiPleUpYgfeVgYKQHipC16ghRIlyIMTxFk7LS/u5m3st+lZUY9ljx+6ngLeeViV8sZocXx3Ky+q8SfNCTF0++VLB6HORc5/ZWjKEayakofeVbC3XKPMFIMjYftH69zN9oBEArLFf98lSBqnnjhBduGEpY9mNGOzXkwTP/gSGFeJiaN7vX/tH2+n7f1Xf+LkoSZGiANzi+/dDfaAQCA0oZ8+1d7CcF43CROeL1iZpghw3oeQyhRJ3hYA0dreWcAniRFFhvZWEvcAdxtWhRIaWEzWddKHZ4fQChZg6aoUYwYyRBYnLTcRHa30Dr+yipiGX4yBocCPVjFb/YYzRdK8VOxOAzooSp+swWGtmGLUEogmqHG0WIQAZgctNhAdrfSVuq1Tvesw2kxXhSIo4RAeVpjoT/oyUWX7yY5IcoLwRPlKJADq5OebSE7XejXMVhhJ2+Uk3oAAMiNFqxUeMVxX6rHBUzp1jJ+b48ZhYgAvFiLY0QAfe+9fyhtPOb4dq2rzv4jKypDkBiBuZSvdXstry7mrXOxNAgpEbSyvgczurGex5BL1mDeRPeaqEKO74zmZorooSZSRlFWKJ7nMU+NOLQwlnswDKdLkYjQNjdIxCgriHsyFqdwV1ZzWMm6FsojNDUMx3SfPYRm63AYgqY2sn2oMwdGc2K4B0JxkhiMdlplp5wYTQ7lnonBUb1dTRoNd38wctnIKQNtoGiMGj8Qy2V6N1qQAK2I5RapUZAAbC5qxWhKOLdShXwGhVw8mNxgcoOJh458anN3LXGDyQ3OHiVXqLgHdTgUaKOD8hyK623v/cVXOD/45MczBwBwHAIAd88c5QIXBeAAj/xpJYb5EaznMeSaDfy2NqAIqeTcZI7uryelFIooekGHUpVom412TDhEafEcKfBOurGWP2EDHkAoQkuiuMlivDSI/qORdnc/KpvJfgU3W4KXaelbTdQNEKbFsyRAHGS9nvajbhuUCC1eIAOnjXxSTUrcAACcAC2K4vJkeIWWvtFEfe48ihPTNWWkyA0AgDCaH8PNl6KbtajIo0QxWjxBCNRFN1Tz+XagAEoZXhWBfe4BO13rPg0AAEiIH03A8UC/vsQXXDVVJipgT6V7rw0IgFCEVkZzWSLvvYsnP/HW49l9jSO5Trzz5Jv5nd3DrpTFMAxLHteBje/sClh4AICOO2CtPFAAGQfdTVDORfc100YjOdFV/bucdKuejotCGjkKAnrltiJCd9aT5FgcrsUzjfw+wMuCkJDS/fWkrNd7Rq8hhMapEAf0qL4zcwAA76bb9SQzBoepUEQzrfauzWvayPmuNSmh+1vozEikkSEtUH3XNpMVCAOcb+rMHABgspKNbejXIYNtobe2kY7MAQAuJ93STNPDvfdO7YYmvb6v74HbYB9kPy5oiuSh2zk473j3Q3f74DbFMCMJSx4jRUUbqeix0OWmFookGKQIPEejXDayrhk9Hoxmh2JM8RgMjS1kx3V5MkMrBKBQ693B4e2gp6ARIg1Atff6TQ6vYTSXi5oBBXIg8yiRigOgtNbutWazndrA9wEUf9XavXpCVic1AtJ47t155rM/nBncTq4CoTHjBVopQKYgVuweuv0wzHXHkscIwglQsgJFiECMOnskSIDkCKC39nd1M9mj4OYr8AIA3kHWNXnPvQ8R1DlcnxWCI7ynx0MAUMe/ejfVffpCFIBS3xJ1bJOnvqsOfpTI7b1NSoH02PtQovTCbmeRjIPzruKhHlBkmOuKJY+RQqvGq3U4tLc5597Hoig9a6JzpYgD0Btp9VAPWHlCKEmDknoJ6TrGMFqYi50fFnf+P3fVNRlmVGHJY0RAIrxSh0MQPV1PvjFQY1cmwFL8bCzW9vYRLMJLtQhTsFDQafFUI3/genQ9AACA0i9K+JPXLl0RCgDA+XQI0HWpbEVZq168K63PCfPCL//yaQF7oQjD9MCSx4iglKMYDG4T2dhG+zVzgdA0HU7goLGZ3wD4kSC0QIcvXia9v+jpGuoa9vGt6AfH4AYQoAgJII9pjyDJYCc8+gVJAsJ0YX0mj1rpAErK8xQABD03KgQhAuB7jNAxzOjDkseIIMKAAHgK3g+VgUSElL1VXqGBeIEciINsbKblQI6ouGkyfHsg/W8LHeQ8QUcn4CrPIbS4AMQoQgLg8YgiEqBsFZISWtBODf7uktISC50nQSnB3EQbf9wBFEAhw0sDkAug91qdduaYa5DCHEfffvjo4DfjxaSnDgqKBC5cwFd7nNKoFE6GwKonJpY8mFGPPSQ4Ihgc1AIgUuAZ0isVolSClwf1Uj1yYrwiGIkpPdpAygkAodvrSSuF2GCcJx5cHJQ2u4ACJKmRuteKmdKzRsoDTAzFqV31OsIoJxSvDMM3KQc4xV3VQk66AAnRinjBSwncs4mCF2Ox09LnLQCUUAMBQJCqGJFXsPOiq6ANcJjozjsEIR2nBKHQXPHKPIwJOXucuHt+Bmlm//7dDz754MMP/7oijrXpmJGPXaUjgstCd5phmQItjBVk22iDGyRCiJGgyjbSJsKhnqsilBeOYzC0ejxMbreQTQZ0fwCaF46LK0ndINq151rIHDkOCuD+oAIr6dw+cZB3LpOOByNqW8gOObdQhlcn4FYHNVPQiJESA3HRLY3UPKCdUjddV8nrg3GuEgUKEXLSY3Vkhwv9WtNH14LQ/HaapUXZUYIMvvPBcuoiH1aS6qFr03NxoqceEnYnVYEUAYDuJulLszoKQU+8b91aCgAAdv67z12RDwkjp0mezaHNzRQUKEiFMNCaXY7tF3uJEcmS0uI4BNRZundvRS/JhWFGGJY8RgZKj1TzxiA8U4UipUhLod1BD9XyexzoUY3XihFaPF8K1EU26qnNY3lxIzkp5yZK8Yog+nYTHXDtY7OQd6rhlmCcLAG5oLMbxLs95q4J3XWZrw1EM9U4Sow0AGYnPWui+1tI1SCGzHgX3VPH7/FYwsl9X0/iqVzPf0y4BQEoTAjizriGeoKdQ3IlUnp3dTgJUkoAAICC2OPbZLngePsVfuZNwqxUHKTDyEH1F91n9jn3nyWO3vKbMH5sohgBNZ/54UgzG9RiRgE0PmdyS5MeAHS6qOEOpk/xwY0X24KGO4ofp6+uG+4QrojUcouVV5sVsJrIpy2+bxMZOQQK/FI0FtvIqxWdnZ4bGJdw11+fXxQC+p3/+/wXJQN8cSPDXE+s53HDkopQvOxqycPouI5Py/kLQYYaSwDsTv9n4EcfHJaaqsXUXb537yWWOZjRgSWPG9alevez9cMdRL9xMvzLCKzqnlDAIMMAhB5svS5Pzg8vFJCcGomp7ezuAw0jtifIMN5Y8mBGBgQqIai7/uIJNJrJkWZy2Ha1D90YkCx57BiOtuXvOmFg0x3MaMGSBzMi8Bby5/M/0VY3tRz592NHhjsKhvHPSLxLnmEYhhnhWPJgGIZh/MaSB8MwDOM3ljwYhmEYv7HkwTAMw/iNJQ+GYRjGbyx5MAzDMH5jyYNhGIbxG0seDMMwjN9Y8mAYhmH8xpIHwzAM4zeWPBiGYRi/seTBMAzD+I0lD4ZhGMZvLHkwDMMwfmPJg2EYhvEb+zEopr8ESu6PUUjqvfBgpXuT9XpGgVQ3zZ5xk5qWF+z5T5kNZGMem58Wh4w79hzYcb1+hk8aELt8Yuo4BYeA1pzf92aJeVC/YjUCSsQw/mPJg+kvSqjZjdxdf4o5EKGrrX9DEkbFZ65K0wVxxMlTITfc4TDMsGHJg+kv3kJeudjVxkZocTw3SzQMYRA3AQDgCQEAIIQHAErdQ/8TtkgYMG3ChMXhMo43nz5ztkgzcVWM8FpseNhKxDCDwJIHM8q47W4KAA43TwHA7XZQAOR2uH/sc4OG1ZGzdDJiqt18/NxRA0nWXKsND1uJGGYQWPIYegilBKIZahwtBhGAyUGLDWR3K231GM8Wy/CTMTgU6MEqfrPlynKhFD8Vi8OAHqriN1uAemwzWYOmqFGMGMkQWJy03ER2t9A6/spnE3WChzVwtJZ3BuBJUmSxkY21xB3A3aZFgZQWNpN1rdTRtbn5cdwCCRytch8W4EWBeIwYOELrLXS3nhQ6h7bsfqJuuxsAeIero53ushMA3Fn/esPq4Nj5iZHJGrlKyGEgDrulpqnuYEl5fR2TgAAAIABJREFUoZn3WVWoCJ2RFJsVHBAs4cDtaGpvPlNWeqDB4vJay91QXfDd2ao6N1z9VhOsSflNXkKIvfLdfXVhqSnTdGqNAGxWQ/HlS9tLm9p9uhR+lIhhRg52t9UQw2hODPdAKE4Sg9FOq+yUE6PJodwzMTjK49g7rGRdC+URmhqGY7qXIzRbh8MQNLWR7R6ZA3FoYSz3YBhOlyIRoW1ukIhRVhD3ZCxO6TEIn6zBvInuNVGFHN8Zzc0U0UNNpIyirFA8T+q7skrNPRSKBE5yxkBrCYpS4ftiuUkDHpvqX9n9RRwuQinfVbe67S5Kqdvhmw5Aoct4YurYyaEqNXabrNZWmwvEyoTo5J/n5UxTek3WSAKTHp2Vc3NMsE6KHA6HA0t0IVE3T57+aKpG4rEa33rxw5MdmaN/kGxSds58DV9dV3u60cRLA3PScp+YoFP5zhT1t0QMM5KwnsfQitDiBTJw2sgn1aTEDQDACdCiKC5Phldo6RtNtLsVWtlM9iu42RK8TEvfaqJugDAtniUB4iDr9dTusc0oLZ4jBd5JN9byJ2zAAwhFaEkUN1mMlwbRfzRSz1qn2cBvawOKkErOTebo/npSSqGIohd0KFWJttmoZzM4XgJry/mzHc1thKZHcT9ToIVB6GydVwDXuOziyU+89Xh2X7MHrhPvPPlmvuPKAmpzOt3Ebe2oxKnb6iRucPnGh2TjEyM0mNSVnXi/UG8gAABYpJk7adJNQUEzYwKOFrZ1HiasnjU+MVoIrbWFn529XOWggERRYzLuzdBFJ2XOajiwva3rEHXMRvSfKDDMcvqfhxqNFABAokl6aHpSTGTKzPKGrV5dr/6ViGFGFpY8hhJC41SIA3pU31l7AgDvptv1JDMGh6lQRDOt7q5FCN1ZT5JjcbgWzzTy+wAvC0JCSvfXkzLvcQ7ORfc100YjOdFVv7icdKuejotCGjkKAtrosbKN7+yyWHgAgI67aq08UAAZBz5t4Lo2vqB7oIbSI81khgIHylEkoqX+jqH0v+zUbmjS6/u6Et0Gu/euafm53c+f6/7LuGPPth297F6qlSJEjGcrmgzdlb+zbU/+/jNiTF327kOK1boMJQJn7dbTlVUdhafO6vKCrVrtvZGKjHDljjbDQKeuDUeK9cau6O1t5fsb4+6JkMUHyXGr5929/SsRw4wsLHkMLa0QgEKtdyuSt4OegkaINADVHstdNrKuGT0ejGaHYkzxGAyNLWRHj6coKtpIRY8dudzUQpEEgxQBDHSwvMnp9VHihFYKgQKkGNA2+1t255nP/nBmgBH3iTqMDgCZPDVCfbik3dYVvdtpbfKew8FSWQACYmqv8RqPcte0mklkYIBMimGgycNpaXJ4Hja+3eqgIJOJhD+9W5yZGw9LHkMJAUYAAFkhOMKzFkEoBAB1/Kt3pVzdTPYouPkKvACAd5B1TdQBveAEKFmBIkQgRp29ByRAcgS+XQk/kR4ZggAggIE8zuB/2a8pajlVrp85ITQ2ddofYoxVbcZGk6muva28qb3FeyIaY8wBUEK8F1M3IRSAw3jg0zOU+E6NAwAAQix3MDcAljyGHkJJGpTUc3mvVSelZ010rhRxAHojre6tzatV49U6HNpbpTbiHg3wq+zXFG2vOvUfPnFRUlRKgDpJpu4IgvKWCyUFay+2mNmtTAwzKCx5DD1KvyjhT/avXscivFSLMAULBZ0WTzXyB7y7HkiEV+pwCKKn68k3Bmrs2iyW4mdjsfYahz5o/Sm7KGvVi3el9TlhXvjlXz4tGNDtwnxjbfFHtcUCkTxMrQxVqmJCwyeEKsam5txh3/fBZTtLHwwzCCx5DCUKhAIg4Po5ToHQNB1O4KCxmd8A+JEgtECHL14m/3979x0fxXEvAPw3s3u311VOvSAJgYpBogkBNsWAMRBjwCbChTTbMbaTuL6Q95y45DmJY8dxSx7PcQ9x3LAdsA0Oj94sIdNlihBNINROp3a6frcz7w9JqN1hnfqh3/cvuM9qd2Znbn7Tdq+6XTOn15IkCt4mtq6e9/k7pcROoxkCIgAH6Mmm0e7nnahCY2Jj/AaPcnUvZ3m8btulGtulmqqD584WZl77UEbIqLhI9YWy5tvHGJMBREqFDvNoRKSUAHhZ56knhBAAYPDob7UeAInEqwDaPfpHRDLJQNSMFzXwxnYHR4fT+VpgLrbOzM8BKzAI12no98P532rbdt8qKRAAmUOnxw1USqLv9VR6gpoITe2upSLRBLiHN/nqpDcvkFD/F+1u3l37Vq/c19ukd0Kk0KxovZJZS8rrLW2pl6vrLC4eIomikoCdAwAwu72BQ5Q+NEGE+rZnAsX4MB0F3mBzYPBAyBd8SLA/cX7UwmWAydE0s7VnTSjJiabLY+iN+g49ekGieZFE4nxfFTvHABjfVMnqOCRH0llS22GNLm4DUOroDHXb6rhaRZdF9MEqrNpAF+paOhRKJVkSRbQANhsv7xo8ODd7gAOkhZAQn1cOJO/9QAibPmHc7TkTbh6hV7WmjypCrk2NUhNua7JeXvNglsoiCwdl3KLxSYnNb3okyoSUrEXxSmBNRRUWDB4I+YIjj/5VXss2a4UFGnr3KFrn4lYOYRLRU2Ae/kU1t14+jpBZcTSJQl27h8mdNra+kdwVSm6Io8WlrIIDAHhsfIsVbtWRBcniJAev8oJKAUkqUlrP6pU0unepPW3hWYniFC9v5CRMCRIA8/JNZt9PCH5by+ZoaUSo8BsD2FlLmpmLvX6BmQLKe3/g9ktbz4+4K1U/YeKsrCynxc04EbQqSaIAbvP2s+a2gRtr3Hm4ZPR1ackJWQ/FZVqdHlCqdCIh3FNaXLSzoS1uCuHpD04ZcTlUiqICgMSmXftkKgcA4K4D3+zZWIsrKWiYwODRzxjfdkEuDyczQ2iiRMIArG5+tInvrmUX2/W94410nhq4h60zcUe7vy6uZge1wmQ1zYvgq2u4FwA4LyiTLRF0poEkqImRQ4OLf10u73CR+3v9pj63jb3hgJsj6SgJBJlftPEdJvatn8Vqh429XgY3RdJ0FWjFlmGQ7G23r7d7ee8nnpJv81c3pM5OjhkZognVUsKZy9V0rqYqv+RsUcd5OFf96dd3WGakJ0+ICo1QqUB2VZlqDnd9txVV6CSp0+SgICr1zV8iDiqhf7cfIzSUkAk5U2trTAAQG5s42InxKzWyuqQ+YrBT8d1MZRWDnYSeaXkxYsEF72e27z4aIYRwzQO1wYfXEELdhMEDIYRQwDB4IIQQChgumCMA4FvOebcMdiIQQkEERx4IIYQChsEDIYRQwDB4IIQQChgGD4QQQgHD4IEQQihgwbHbam+RGyBIH95GCKGrEI48EEIIBQyDB0IIoYBh8EAIIRQwDB4IIYQChsEDIYRQwDB4IIQQChgGD4QQQgEL1uBBIxVz0gQt/noRQggNhuB4SLArMUH11AMSr3avXWf7+yHZ8d1/gRBCqM8E68jDW+XeVCyTaOVd94e+9QMpVhjsBCGE0HAixMYlOOw2ANDrQwY7MX5ZrZZOn3CrvLfAueE0jLxGmZ2unKaXtx6TnYOSOIQQGn6CdeTRzFxsX/Wy7RsbSZ6pe2Q8xRUQhBAaGMEdPADAXeF49nOPjdB5S1RpQZ8bhBAKDldDc1tZ4NhmATFWWjhysJOCEELDw9UQPMDl2VPMORUmpglXRX4QQmiouzoaW15WKcsA8dFCsG49RgihoHJ1BA+wOTgHkFTkKskPQggNbVdJY8s5AAAQwA1XCCE0AK6S4IEQQmggYfBACCEUMAweCCGEAnaVBA9JSQiA7OXyYKcEIYSGg6skeMRGUgpgrmNssFOCEELDwVURPKg4aTSlnJeUyt7BTgtCCA0HV0Pw0GSoFsQAc7h3FPPBTgtCCA0LQR88iFpx73IphsCF3Y6d1sFODUIIDQ/B/ToPIURxz0r9HfHEU+54fqPXPdjpQQihYSJYgwcNVdwyV7VshpSqBY/J9fvVtkP4U1AIITRQgjV4iCmqB+dLas7P7rM/97GjCCesEEJoAAVr8GAW7+bN3t35zvwKjttzEUJogAVr8PCedTx7drATgRBCw1XQ77ZCCCE08DB4IIQQChgGD4QQQgHD4IEQQihgGDwQQggFDIMHQgihgGHwQAghFDAMHgghhAKGwQMhhFDAMHgghBAKGAYPhBBCAcPggRBCKGAYPBBCCAUMgwdCCKGAYfBAaKAQkpAmTYoc7GSgYY9GKuakCVrSq5ME6+95IBRUSOIE9UO3qmdEw5bX3Adr+GCnBw1rYoLqqQckXu1eu87290Oyo0cnEWLjEhx2GwDo9SF9m74+ZLVaBjsJA0gaM/XmpxbOuHmk6tL5smrvYCdnaCLaMctWPfHQDxZN1F86fLzaPdjpuRKBXn9HyCt50mgdlBe7vtjnPo2/mowGFSckOlYcnazIzVFND2EFx2Vr4P0ZHHkMOTT6umtiwhQEojKvjS48Wir3+ozK1IyscXooP3O4sH4I/mYviZr/+HO3jfZTFXn99hf+458nO8dQIXXarFFhEoHkGdemflJ0pEcxVhy38uWHp3cYvDPz1j+t+uBUADddzPzx86vmhlR8/sxTn13sensJnXZ7yO9nCUKD+7W3rf88xbqTUkFLf51E9S72yjlW0btRSnI4XRBGRyhBQaA5o+Um+VVzv/x4s6gXnk4k6o4f7i31rrdf6a8IJTlGEsb50Vpe3SdDMmWUOONGxfgMGmEg4OLmi94juzx7itiQ7mL0ke7lnVW6nnvJ9VaG5sl7NFNn6l7l/L4P3PUB3nwMHkMOM+WfqBozNkJsOJlf3fvIAUCUI9Nzbo3nhXVHCuv74Hz9g3O33eLsml9mcXp9VGr5XMGu02PnJAlVe/LP9vgueR1Nlka5JXiIkk4j9fRM/oRN0D4xUxBt7pdeblpbOdCzVdFG4d5oIgF4ZLjctbT1WweCM271ksvRURJA2Z1ZdYHkRNBU4FW1cnXvE6HJkO5bqUhQAXPzWhMjOhKboYjLELO2ON/4XLZf1ROGAebdXGxf9TJ/cZV2ykzdIycafnuYBXR3MHgMPc5j+9Y/vG+wUzHgLAWvPbrmeHdHENx6/LM/PvJZ7y7pPf7erx95r+U/wqjlf3hiQd+uZgvibYulCMK/WW/7dMAjBwAZYyASwJlq+a1aPgDzn7KNPV/SGpoIWZQqXK/s/6t2oBJu+oEiQYLqfOeaT73VTgBCYnKlH68QE2+QFpx0/OvU1Rs9epJ3d4Xj2c+VH9ypmLdE9cFR+6lAOha42wqhXuHgtzlSjJQWxgJvdH2wTx6E+UICGgEAoMoxEJFjSFCmKbLDgFW5P/rIW+0EAADOqwqdH+9kjNJxUwTFICewH/U075UFjm0WEGOlhSMDu2AwjzwUkekzF07NyU6KNWoEj6227PyR7ds351d0GZ0JYVkzlyyZPCYlXA12U0nR1g+31M559JEbdJc+e/WP6ypZx3Nef/OM3HEjYkKV4GyqOlv8zaYdO4vqPD5TIMRcd/fKvNw4wXTo4/95e29lLyaZhJhpf7plfHS7UT53Fb/49x1HOp+Tpkxd/tuJoZZjG546HZ43ZeyEKL2au2pqLu4++M1XZdbLh+szb/rL7BHt68uU+SuntP2Pncn/6JkjjUNwDeQKhNTbnnt8QXS7Lg+37X350bf9LHkoIrPmLpo3bVxKTIgKnI1V574t2LRx27dm36XZLWLk+O/devO1Y5PCVXJTRXHhxo82NHJ/o/2ENEUkBdsp9xHXFc+pJLMjaY6OhFKwuvhhM9vm9RORCMkIJzNC6AgJlABNLl7cyLbX8bredKcJSQ8j00JIkkQ0BGxufq6Jba/lFXKHY5aOEqaLfEepvLHd1hyqpquSqdHL/vcMKw0wDbkjxOW6Dun4UWa75ojzDWflnYGuUuijiETAekYu71gjyopl+1yqjiB6Ar26Wd9NUJBZUXSyloQLYHfzo7Vsi4c8lkR1TvbKOVbZ/tC+Lc0e593l2VPMb54iTEwT6JkAejnBGjyIJmP+g4/NSdEQLrua6urdSkNU2rgFaddkj1rz8j9ONbXdIxIyOe+Xv5hoFIC7beYahypl6g/+MzS/xMdkrDRy9i9+tXC0DjyNNZfO2EAfkZA19das7Ky1b67+8lLX77+QOnvpdckhFCAxd8mcHQXvn+5F9JA9TXaHqjlVVNSpFFceFBJ95gMLEwymsoMlVXpjfHZc+vKYuIQt6/521tacd+51WeyO5vJVqtRqCh6Xw96WQNnq5cE3gpedTRaLqvnWUKVOq/J/l6SR33t01bJ0LXgaq8rOlIM+JmHsrOVjJ43/5KWXN5ResTX3hxqn3/frn04MpcDdTTV1Tm3aDff9Z9jmk37uI4mLEgSA8kr5ClejCrIiWRgrAgBY3dwpkBkJQkitrwVtSuaMEBZqADiYnNwOEKEiU6OFbD178yIra/2DlChhRShprkgqAQBgcqKY1S6JlWb5nbqW8xOBzB8hzFUDAXB5eT0nBomMl4QxeramlBX3xZKbPx4ZmppbOQIaAQQAhxfamj0O7h5UT0EgAODt2jvwgIeDWgBKwP9IsfeISPKShUkKAACbm9spmRYnhNVzH61N90ozAD3POy+rlGUQ46MFEeTux+sgDR5C4vx7Zier5eq969/94ECpRQZQRE6++f4HpsbPXTrv6z//60xrtReT5t0+wUh5XeG61W8Xlts5CPq0JXf+ZIG6yznj5/10/iit+8JX77229lSDFwCEkKyFDzw8c/SyvHlFr2640LlAWV1ltYtHqAlwd3VV7zYyyTUHfrvmQPO/aeiEp2+fesUxJNHGhZu2fPxcqZ0BAChTJy96fHL0tKnZW88XnGYAANbTWx8+3Xysbt7iFT+O54d2vvfXnq8tN5Om/vyvP5vkb+zvOfD6g38p7FG73D1y6efPPPZ5879pzPee+l1eip8jhREL716apnGX/nv1Xz45Vu8FACF07LKHHpqfdutPFhQ987mPjVHfRTVmcd7EUCJX56/565r8cgcHwZB+88qfzFX7WRbWqoAA2BxXaq3SIoWxIjA3/7RMPuACDqDX0DvjaJf6CfFGOl8Dbgf7Rxk75QUAEESyMFGYpaF5Rv5KTUs8EAUSIkL7FEkCtN8IYG0XcBONdI4aZDdfVy4fcIAMoFCSxYnCVIkujeAvVPP+Cx+Hy72HAQCAKOj9o2gq8E9Oy0U+b9Ug17oAJBnpRAVwD/9XmVzobCnNFfE9L82BybvNwTmApCIBLWMEZ/AgaqF2/67/Y9WHvjh4sSVSemr2b/xy8rj7rg3LGBNBz1Q333sal5YZQbnr5JdrCsub57PkppL16/dMeHRJx3aHJo3LiRe4ed9nnzRHDgCQG7/d9K892Y/Mi8mZEvfVhUud2htu3rX6v+tys2NpzfFvDpkHth9vOr7ugr01Qe6zR48eHXfjFH1cRgg5HeiWuwBwZ2ONyeSv1ngbnUNkMEOTcnPjRV676+NPmyMHAMgNx9at3ZOzal5C7pQRX14sDTR6CEljrwkh3Lp/7Zqvy5vnbmTLqS/e/3riM8t8PyPV0v+/wj0hJF0LBOBItby/tQlosrP1DeSxKNLpyHEGIgDfZ2ppawBA9vJNJpadRGMMJN7MyzgAwOlK76rKlj9pXrK+wmZZwcN3mXm1hR1wtnzicfMNJj4ukYRpSQTwPtj+1Hs9q3UR01T3fl+AE6433vU29GPq2hCSriMU4ERNS+QAgCY7W1ff89IcmLy3zEEQCOiR8+AMHtx6fvfa810+9jTW2TioNLq2niANMegpcHP5JVu7m8zMFy44eEqH7oAQER5OgVWUV3SYMZQrSqsZhIZHhwvQOXgAcEdF0a6Koj7IUoC4vbGhsX218VrNDg4GlV7q13G5+8g/f3OkX85MQmb98p1ZnT/ljoJXH37jUMDrvaIx0kiBVVy81OFPvZcuVDIwRkRFCBB48DCEGgjIFecvONt9ympKS208Wef3z76DQQDgvMzZ4UOzkzuAaDoeaVQAcCjveKTsBBOHMAUJAygL/Orn65mP75GX2zhRUVD37xxPt/Wk1hGSMkE0qgGyxWTJ2z91tqvm0ix3drhtzaXZafDR3dIcwnkPzuABAACCITk9+5p4o0ESWwZbJCS9y9taBCoAcK8sd/wSyN4uC9ECJQRo3PilP0po3+CIsVEUCKd0aG1MY50XaTnnHC53doMP5x6HxdElSjjtPVrdJs2lGZv7/R8mdSjNmFgKhAtCD0qz+Zzg7Vx1ZLnnczsEKAEAkDuXJnQ+Z+uR46NofPuDCYkCIKTnk/mCSNJ1JF4JUmvHk4hESyCwXuiQw/nJ7e7jGgFOeIqd3314Hxn00my+3sDkPUiDh2DMveeuFTOiJR8VvFdLDzQybfq8tK6f9+fKIQIAANfBtx/twRjjSmjkmFk3jOn6+UCVZt/32glJCyM+6mdPr2QMoXfH0mhfoTS49uH5YC12v1vc8m9hUFPiT1+XZpsByXtQBg8SOTdvxYwoofrw+69tKDxvcbfUc5p8+y9/tcjY4ViZyQBEbN6J0EYQfd9Sz6EPf/XSoZ69J2w4UI5f8cQdY/wu3x376PfvFQ2dl0B4Dr358CsFg1eabi9wAKlbj1l3D+cfnpIP9lG7TpR0eSyNIvxwJfuykVtaT9uyAbdvLtIXgqfWNc8HdGpsgPhpwLtTmgOSd0nZPKYObH9EMAYPos+YmKQE77HP1+892+Ghjq5fUtbYaGGgj4hP0JIyS+uxNCIpqfMOGSYzzoEKgjBEJnqHJKIKjYmN8VuVy/3tOxpovLk0RbEPS7P5nETs3O8QBD99O15bxzgI0ZFUAD/b5zkwDkC60dz4O7IX9FqSRMHbxNbV8yu+fQoAwMsBCIid131BJAC8n4cp3a91zdPTYtdDFaAgAHKXGaU+1ugFEEm8Cki7ZY8IVecFjwBKc0DyHhtJKYC5jgVUjsEYPECpkggB2e3q+NIjooqM1ncOCRUlJ2tuSIhOv+lHky+8tb/CyUHQjV685LpID4cOt1muqa1jEBWfEK/Yf6otlBND2sSckRrXxaL8E41dbj5RxY7NzY4Tao4VHi4fsq/Nad1L0QfrIa59q1cGw5tTvGaTmUFMXFKiYs/J9qU5etqUkVrXxQN7Tnbek8ZlWeZABEr93CbZ0mDhYIxNHqGC2svDGRqZlOTvdxHOl3rtXAgfrUilnmI/30uLDKAgiSqAdos7PpobgFoPgETiVQC2tg+JSCYZiJrxogbe6PsKfikpEACZQ6e5QpWSdP4ecV7rAa4kiWpC7G3PB4WpiQGAucHnBr/mbri/29nu5NC62ceP7te6JhN3cdCNEuJEuaxdthIzBA0Bu4k19eeXlPNTNn6DimRECpMd8n4XcACdhi4NJR6ATo16d0tzAPJOxUmjKeW8pFQOaNZ4aK0Cdw9vLL9k40R5zbwZbeMHok6cs2xBZpeDvRe3fHjIzEjE1O8/ufrJ3z2/6g+rf/PoPPfJE65Od5JdLDpQLhNjzrLlmeEtMZVIcZPyHliet2JeVpiP20oiZv386UfuWnHbjx7+9QOzI4ZIp7sL7qqzejjQlKTE0KGaxr7GLu7fX+4lxutuy8s2tpXmtXfcf/cddy7O9lWavNZkljkxjJ02LsznUEIu/fZ4AyP63OU/nBbX/DinoB+96M5ZUb7e3AgAYCt2FzpAiFEtzfBz4zkvtgIDGBctTJJaWk+dhi4JJZ0nEDg/auEywORomtnaDhFKcqLp8hh6o74n6ziNLm4DUOroDHVbw61W0WW+qvKJRu4CSIqgczUtoyKDluZFEAHgtIX5eMc852YPcIC0EBJyxWrHGW9kAAQydb1uj9wlnqJ6oDHK228To5ofbiEkOldaPotSxo7u9/VOYxI2+7/eeOcf77z77h/yRvayN32xlh30AFGQvFTxqVHCqtHiE8nUbeOdn8Toh9LsUd4BADQZqgUxwBzuHcWBRdagHHl4ijduPTHpljGZ83/18sRzp6ubmBQ+ImmEqnTHwfroWdEdD+aWg5+++IJp8dLJY0eGh0eSmpJvPvhoc+3sx6Z3OqtcvuXtLRmr5o9acNcz0+sqq61MFRYTq5cIq9v/xWf7bF1vLA2PjWluRIgUHRtGwdzjlVhx0uw77k5qbbOoqKMAylE/+2FSa3fUWbB17T+77hXuFu/xk8WVo8fFpS94ZaTT5uEAALxp+7/XfWYKrlVR5aS7nv3JuNYvG1XqKIAm9/4/Z7fcJW7d9+bT75/wAoB88d/vfJG56pa0+Q8/N72moqqJqYyxsSESkWsPfLS20EcnjDcd3LznpjFzomY89MIUu9XZ+nTIpY1/fnFTJQMA1/Ev1x7MvjcnZvpPfzd5udlsJyGRRs/hHcccc6b4nFfgVvcHu+VZ84VFyzWbn7f5XEsrMcvf6oVsJbk9VVzk5nZCjAo4Xsed4aTT9t/yWrZZKyzQ0LtH0ToXt3IIk4ieAvPwL6p5D34ixGPjW6xwq44sSBYnOXiVF1QKSFKR0npWr6SdvkeNjewLvbBMTxYki7O83A4kVAQBoM4ir2/0PTP4bS2bo6URocJvDGBnLccwF3v9AjO1P47xwgY+3kgmJYpZcsuD5dzD3i1lZQGPE5zyV+97Eu5VJFynWpXDzWYOOhJhIBT4pW2uTSU+zkc0aWNGCgS4+8zOned7uWGDe/mnpbIpkubqSbiCEDf/poJt9pDHwjrHzz4vzZ7kHYCoFfcul2IIlO527AzwqkEZPIBVFfztGcuNt8ycPDY+JdvI7A3lJ75+Z93Oypz7rvdxuFx/bMeaYzvafSJk+prCcZ3d9upT5bMXz8jNSoxNCQOX1VxSdHT3rq17y5p8tbLyuZ2f56fn5cYKNYc27Djfmz08RCmpQzQdO7xE1Ghay4cTTS82Tbgq9r2wyXPn5Iwso9agIAQAuEc1NHegXAlRaAwhhk47wTBbAAADEklEQVTttFJjaH11K6fqtgrtOrfhz09fuGHRjdOyU+JSIsBlMZ3ef2TP/23ae95naQK3H3//hb805i2ZOXaEUW9oqSGyru1G8dr8N5+1Xbp18XVZSUajESpObXvrow0NNzwzx1+K+bGN1o+zDHfGq59/kD/xhr2wyxNb3MM/OC9XRtEcHQlTEO7iX5vYVi/5ZXiXGsr4tgtyeTiZGUITJRIGYHXzo018dy272LO6x3lBmWyJoDMNJEFNjBwaXPzrcnmHi9wf5uPgby55a8Po9aE0SSKhHBod/HgD217Pm/yc3mFjr5fBTZE0XQXa1ofeZa+P1eNzJnkNE+aHkhhFy8PwjPd0l5DtpGv18/LMGxXjM2lELCUubirxHtnl3n2UdZ5tAAAAReo1oyUC3Hpka0FfPOgre/iOCrlDa6P11dr0eWlCwHkXQhT3rNTfEU885Y7nN3oDXXcnE3Km1taYACA2NrGnSe53lZU9eP7pSsSxK5/8+Uzpwscv/enLIOt9o2CjiJSeeES3IIpwu7xrj+Ojrc7DA/PAM+oGYdQdf3h8YRSYtvzp8Q9P9eKVmf6JOvrUCCo52IvnOw65Bg8NVdwyV7VshpSqBY/J9ftXmjbVBH6SfkjYkCdGZuWOURHuMlUG2VtlURDy1Lj++4+Wl/Z5bSph9o3aW1OGy8JTMKAxmZlGyr2lO3ee7pfIAQSyQqgKwOUOeEdD/xFTVA/Ol1LV/Ow+28/+2JPIAcE6bRUgIXX5L3464/IGElFt0EgCuM5/vf3o0HidGrrKMavn47cbvvq3cuG1StEyVHflDUMkND0zgXLH0e17qvqoHylo6C/iqeFya0NBQwEY31vXZdl88DCLd/Nm7+58Z35Fz3+QeFgEDxA1+tCwli0fnMuuhuoThwo2flpQ2j99DYR8aapwr/10aDzMhgAAgGjSr0kReH3htgNd9+H3+KRgUMDlN2XKDKqtrMDM8ofSo8fes45nz/b2JMN0zQMhhFBvDMs1D4QQQr2DwQMhhFDAMHgghBAKGAYPhBBCAcPggRBCKGD/D4lxm5KoOtroAAAAAElFTkSuQmCC;" vertex="1" parent="1">
          <mxGeometry x="597" y="716" width="532" height="267" as="geometry" />
        </mxCell>
        <mxCell id="R1Sj7afmYKt7WFE0D8gf-37" value="gen code" style="text;html=1;align=center;verticalAlign=middle;resizable=0;points=[];autosize=1;strokeColor=none;fillColor=none;" vertex="1" parent="1">
          <mxGeometry x="515" y="300" width="70" height="30" as="geometry" />
        </mxCell>
        <mxCell id="R1Sj7afmYKt7WFE0D8gf-38" value="gen code" style="text;html=1;align=center;verticalAlign=middle;resizable=0;points=[];autosize=1;strokeColor=none;fillColor=none;" vertex="1" parent="1">
          <mxGeometry x="518" y="410" width="70" height="30" as="geometry" />
        </mxCell>
        <mxCell id="R1Sj7afmYKt7WFE0D8gf-39" value="gen code" style="text;html=1;align=center;verticalAlign=middle;resizable=0;points=[];autosize=1;strokeColor=none;fillColor=none;" vertex="1" parent="1">
          <mxGeometry x="515" y="870" width="70" height="30" as="geometry" />
        </mxCell>
        <mxCell id="R1Sj7afmYKt7WFE0D8gf-40" style="edgeStyle=orthogonalEdgeStyle;rounded=0;orthogonalLoop=1;jettySize=auto;html=1;exitX=0;exitY=0.5;exitDx=0;exitDy=0;entryX=0.328;entryY=0.002;entryDx=0;entryDy=0;entryPerimeter=0;" edge="1" parent="1" source="R1Sj7afmYKt7WFE0D8gf-41" target="R1Sj7afmYKt7WFE0D8gf-36">
          <mxGeometry relative="1" as="geometry" />
        </mxCell>
        <mxCell id="R1Sj7afmYKt7WFE0D8gf-41" value="p2p:pydantic_model_to_py_code" style="rounded=1;whiteSpace=wrap;html=1;" vertex="1" parent="1">
          <mxGeometry x="840" y="610" width="190" height="60" as="geometry" />
        </mxCell>
        <mxCell id="R1Sj7afmYKt7WFE0D8gf-42" value="gen code" style="text;html=1;align=center;verticalAlign=middle;resizable=0;points=[];autosize=1;strokeColor=none;fillColor=none;" vertex="1" parent="1">
          <mxGeometry x="762" y="610" width="70" height="30" as="geometry" />
        </mxCell>
      </root>
    </mxGraphModel>
  </diagram>
</mxfile>
